Rosario-SemiBoldItalic.ufo
<glyph name="exclam" format="2">
  <advance width="246.0"/>
  <unicode hex="0021"/>
  <note>
exclam
</note>
  <outline>
    <contour>
      <point x="129.52941176470588" y="729.8823529411765" type="line"/>
      <point x="86.52941176470588" y="217.94117647058823" type="line"/>
      <point x="160.11764705882354" y="217.94117647058823" type="line"/>
      <point x="261.11764705882354" y="729.8823529411765" type="line"/>
    </contour>
    <contour>
      <point x="172.2941176470588" y="67.17647058823529" type="curve" smooth="yes"/>
      <point x="172.2941176470588" y="101.05882352941177"/>
      <point x="145.88235294117646" y="127.0"/>
      <point x="111.0" y="127.0" type="curve" smooth="yes"/>
      <point x="69.58823529411765" y="127.0"/>
      <point x="30.294117647058822" y="90.17647058823529"/>
      <point x="30.294117647058822" y="47.76470588235294" type="curve" smooth="yes"/>
      <point x="30.294117647058822" y="13.882352941176471"/>
      <point x="56.705882352941174" y="-12.529411764705882"/>
      <point x="91.58823529411765" y="-12.529411764705882" type="curve" smooth="yes"/>
      <point x="133.41176470588235" y="-12.529411764705882"/>
      <point x="172.2941176470588" y="24.352941176470587"/>
    </contour>
  </outline>
</glyph>
<glyph name="quotedbl" format="2">
  <advance width="300.0"/>
  <unicode hex="0022"/>
  <note>
quotedbl
</note>
  <outline>
    <contour>
      <point x="100.88235294117646" y="442.11764705882354" type="line"/>
      <point x="148.11764705882354" y="553.1764705882352" type="line"/>
      <point x="172.64705882352942" y="727.7647058823529" type="line"/>
      <point x="86.05882352941177" y="727.7647058823529" type="line"/>
      <point x="61.529411764705884" y="554.2352941176471" type="line"/>
      <point x="76.17647058823529" y="442.11764705882354" type="line"/>
    </contour>
    <contour>
      <point x="243.64705882352942" y="442.11764705882354" type="line"/>
      <point x="290.88235294117646" y="553.1764705882352" type="line"/>
      <point x="315.4117647058824" y="727.7647058823529" type="line"/>
      <point x="228.8235294117647" y="727.7647058823529" type="line"/>
      <point x="204.2941176470588" y="554.2352941176471" type="line"/>
      <point x="218.47058823529412" y="442.11764705882354" type="line"/>
    </contour>
  </outline>
</glyph>
<glyph name="numbersign" format="2">
  <advance width="640.0"/>
  <unicode hex="0023"/>
  <note>
numbersign
</note>
  <outline>
    <contour>
      <point x="442.05882352941177" y="296.47058823529414" type="line"/>
      <point x="460.05882352941177" y="425.52941176470586" type="line"/>
      <point x="583.0588235294117" y="425.52941176470586" type="line"/>
      <point x="583.0588235294117" y="497.5882352941176" type="line"/>
      <point x="469.4117647058824" y="497.5882352941176" type="line"/>
      <point x="499.47058823529414" y="723.5294117647059" type="line"/>
      <point x="425.8235294117647" y="723.5294117647059" type="line"/>
      <point x="395.7647058823529" y="497.5882352941176" type="line"/>
      <point x="286.94117647058823" y="497.5882352941176" type="line"/>
      <point x="317.52941176470586" y="723.5294117647059" type="line"/>
      <point x="242.8235294117647" y="723.5294117647059" type="line"/>
      <point x="212.76470588235293" y="497.5882352941176" type="line"/>
      <point x="84.41176470588235" y="497.5882352941176" type="line"/>
      <point x="84.41176470588235" y="425.52941176470586" type="line"/>
      <point x="202.88235294117646" y="425.52941176470586" type="line"/>
      <point x="185.41176470588235" y="296.47058823529414" type="line"/>
      <point x="58.411764705882355" y="296.47058823529414" type="line"/>
      <point x="58.411764705882355" y="225.47058823529412" type="line"/>
      <point x="175.52941176470588" y="225.47058823529412" type="line"/>
      <point x="144.88235294117646" y="0.0" type="line"/>
      <point x="218.52941176470588" y="0.0" type="line"/>
      <point x="249.7058823529412" y="225.47058823529412" type="line"/>
      <point x="358.0" y="225.47058823529412" type="line"/>
      <point x="327.3529411764706" y="0.0" type="line"/>
      <point x="401.52941176470586" y="0.0" type="line"/>
      <point x="432.70588235294116" y="225.47058823529412" type="line"/>
      <point x="557.5882352941177" y="225.47058823529412" type="line"/>
      <point x="557.5882352941177" y="296.47058823529414" type="line"/>
    </contour>
    <contour>
      <point x="259.5882352941176" y="296.47058823529414" type="line"/>
      <point x="277.05882352941177" y="425.52941176470586" type="line"/>
      <point x="385.88235294117646" y="425.52941176470586" type="line"/>
      <point x="367.88235294117646" y="296.47058823529414" type="line"/>
    </contour>
  </outline>
</glyph>
<glyph name="dollar" format="2">
  <advance width="535.4705882352941"/>
  <unicode hex="0024"/>
  <note>
dollar
</note>
  <outline>
    <contour>
      <point x="359.5882352941176" y="700.7058823529412" type="curve" smooth="yes"/>
      <point x="224.2941176470588" y="700.7058823529412"/>
      <point x="101.23529411764706" y="633.2352941176471"/>
      <point x="101.23529411764706" y="487.11764705882354" type="curve" smooth="yes"/>
      <point x="101.23529411764706" y="315.4117647058824"/>
      <point x="365.8235294117647" y="329.2352941176471"/>
      <point x="365.8235294117647" y="206.11764705882354" type="curve" smooth="yes"/>
      <point x="365.8235294117647" y="129.94117647058823"/>
      <point x="296.52941176470586" y="70.76470588235294"/>
      <point x="222.23529411764707" y="70.76470588235294" type="curve" smooth="yes"/>
      <point x="158.0" y="70.76470588235294"/>
      <point x="114.23529411764706" y="94.47058823529412"/>
      <point x="65.23529411764706" y="136.88235294117646" type="curve"/>
      <point x="13.352941176470589" y="46.35294117647059" type="line"/>
      <point x="75.29411764705883" y="8.117647058823529"/>
      <point x="149.41176470588235" y="-10.941176470588236"/>
      <point x="219.64705882352942" y="-10.941176470588236" type="curve" smooth="yes"/>
      <point x="361.7647058823529" y="-10.941176470588236"/>
      <point x="482.88235294117646" y="82.3529411764706"/>
      <point x="482.88235294117646" y="229.94117647058823" type="curve" smooth="yes"/>
      <point x="482.88235294117646" y="409.2352941176471"/>
      <point x="217.7058823529412" y="399.70588235294116"/>
      <point x="217.7058823529412" y="512.0" type="curve" smooth="yes"/>
      <point x="217.7058823529412" y="580.3529411764706"/>
      <point x="279.2352941176471" y="619.0"/>
      <point x="343.6470588235294" y="619.0" type="curve" smooth="yes"/>
      <point x="390.7647058823529" y="619.0"/>
      <point x="440.8235294117647" y="601.2941176470588"/>
      <point x="477.11764705882354" y="568.2941176470588" type="curve"/>
      <point x="527.1176470588235" y="647.5882352941177" type="line"/>
      <point x="483.3529411764706" y="681.0"/>
      <point x="414.2352941176471" y="700.7058823529412"/>
    </contour>
    <contour>
      <point x="249.35294117647058" y="27.11764705882353" type="line"/>
      <point x="194.88235294117646" y="27.11764705882353" type="line"/>
      <point x="130.05882352941177" y="-133.2941176470588" type="line"/>
      <point x="211.47058823529412" y="-133.2941176470588" type="line"/>
    </contour>
    <contour>
      <point x="312.8235294117647" y="670.8235294117648" type="line"/>
      <point x="370.2352941176471" y="670.8235294117648" type="line"/>
      <point x="431.1764705882353" y="822.3529411764706" type="line"/>
      <point x="347.7647058823529" y="822.3529411764706" type="line"/>
    </contour>
  </outline>
</glyph>
<glyph name="percent" format="2">
  <advance width="945.6470588235294"/>
  <unicode hex="0025"/>
  <note>
percent
</note>
  <outline>
    <contour>
      <point x="689.0588235294117" y="730.9411764705883" type="line"/>
      <point x="213.47058823529412" y="-3.7058823529411766" type="line"/>
      <point x="291.11764705882354" y="-3.7058823529411766" type="line"/>
      <point x="768.2352941176471" y="730.9411764705883" type="line"/>
    </contour>
    <contour>
      <point x="292.4117647058824" y="730.9411764705883" type="curve" smooth="yes"/>
      <point x="161.0" y="730.9411764705883"/>
      <point x="82.23529411764706" y="612.7647058823529"/>
      <point x="82.23529411764706" y="471.2352941176471" type="curve" smooth="yes"/>
      <point x="82.23529411764706" y="377.94117647058823"/>
      <point x="124.94117647058823" y="308.52941176470586"/>
      <point x="224.35294117647058" y="308.52941176470586" type="curve" smooth="yes"/>
      <point x="356.29411764705884" y="308.52941176470586"/>
      <point x="433.52941176470586" y="430.05882352941177"/>
      <point x="433.52941176470586" y="573.5882352941177" type="curve" smooth="yes"/>
      <point x="433.52941176470586" y="665.4117647058823"/>
      <point x="392.29411764705884" y="730.9411764705883"/>
    </contour>
    <contour>
      <point x="279.47058823529414" y="668.5882352941177" type="curve" smooth="yes"/>
      <point x="338.29411764705884" y="668.5882352941177"/>
      <point x="353.88235294117646" y="624.0"/>
      <point x="353.88235294117646" y="573.2941176470588" type="curve" smooth="yes"/>
      <point x="353.88235294117646" y="468.7647058823529"/>
      <point x="320.7647058823529" y="371.4117647058824"/>
      <point x="237.2941176470588" y="371.4117647058824" type="curve" smooth="yes"/>
      <point x="177.0" y="371.4117647058824"/>
      <point x="161.41176470588235" y="417.05882352941177"/>
      <point x="161.41176470588235" y="468.8235294117647" type="curve" smooth="yes"/>
      <point x="161.41176470588235" y="567.8823529411765"/>
      <point x="198.0" y="668.5882352941177"/>
    </contour>
    <contour>
      <point x="754.7647058823529" y="412.4117647058824" type="curve" smooth="yes"/>
      <point x="622.3529411764706" y="412.4117647058824"/>
      <point x="545.5882352941177" y="294.2352941176471"/>
      <point x="545.5882352941177" y="150.7058823529412" type="curve" smooth="yes"/>
      <point x="545.5882352941177" y="58.411764705882355"/>
      <point x="588.2994117647058" y="-10.0"/>
      <point x="686.7058823529412" y="-10.0" type="curve" smooth="yes"/>
      <point x="818.1176470588235" y="-10.0"/>
      <point x="896.8823529411765" y="113.0"/>
      <point x="896.8823529411765" y="253.05882352941177" type="curve" smooth="yes"/>
      <point x="896.8823529411765" y="345.88235294117646"/>
      <point x="854.6470588235294" y="412.4117647058824"/>
    </contour>
    <contour>
      <point x="741.8235294117648" y="349.52941176470586" type="curve" smooth="yes"/>
      <point x="801.6470588235294" y="349.52941176470586"/>
      <point x="816.2352941176471" y="304.0"/>
      <point x="816.2352941176471" y="252.76470588235293" type="curve" smooth="yes"/>
      <point x="816.2352941176471" y="149.23529411764707"/>
      <point x="783.5882352941177" y="52.88235294117647"/>
      <point x="699.6470588235294" y="52.88235294117647" type="curve" smooth="yes"/>
      <point x="640.3529411764706" y="52.88235294117647"/>
      <point x="624.2352941176471" y="97.05882352941177"/>
      <point x="624.2352941176471" y="148.2941176470588" type="curve" smooth="yes"/>
      <point x="624.2352941176471" y="249.2941176470588"/>
      <point x="659.8823529411765" y="349.52941176470586"/>
    </contour>
    <contour>
      <point x="292.4117647058824" y="730.9411764705883" type="line"/>
      <point x="279.47058823529414" y="668.5882352941177" type="line"/>
      <point x="694.5882352941177" y="668.5882352941177" type="line"/>
      <point x="703.0" y="730.9411764705883" type="line"/>
    </contour>
  </outline>
</glyph>
<glyph name="ampersand" format="2">
  <advance width="646.8235294117648"/>
  <unicode hex="0026"/>
  <note>
ampersand
</note>
  <outline>
    <contour>
      <point x="231.0" y="420.8235294117647" type="line"/>
      <point x="90.23529411764706" y="378.47058823529414"/>
      <point x="4.705882352941177" y="270.6470588235294"/>
      <point x="4.705882352941177" y="168.2941176470588" type="curve" smooth="yes"/>
      <point x="4.705882352941177" y="66.82352941176471"/>
      <point x="82.05882352941177" y="-9.0"/>
      <point x="223.1764705882353" y="-9.0" type="curve" smooth="yes"/>
      <point x="408.7647058823529" y="-9.0"/>
      <point x="518.7058823529412" y="116.70588235294117"/>
      <point x="518.7058823529412" y="239.05882352941177" type="curve" smooth="yes"/>
      <point x="518.7058823529412" y="293.70588235294116"/>
      <point x="497.70588235294116" y="347.4117647058824"/>
      <point x="451.88235294117646" y="389.0" type="curve"/>
      <point x="382.05882352941177" y="346.70588235294116" type="line"/>
      <point x="416.94117647058823" y="306.94117647058823"/>
      <point x="433.94117647058823" y="261.70588235294116"/>
      <point x="433.94117647058823" y="219.0" type="curve" smooth="yes"/>
      <point x="433.94117647058823" y="134.94117647058823"/>
      <point x="367.4117647058824" y="61.588235294117645"/>
      <point x="248.11764705882354" y="61.588235294117645" type="curve" smooth="yes"/>
      <point x="162.52941176470588" y="61.588235294117645"/>
      <point x="112.23529411764706" y="120.47058823529412"/>
      <point x="112.23529411764706" y="195.1764705882353" type="curve" smooth="yes"/>
      <point x="112.23529411764706" y="264.88235294117646"/>
      <point x="161.8235294117647" y="333.94117647058823"/>
      <point x="244.64705882352942" y="353.70588235294116" type="curve"/>
    </contour>
    <contour>
      <point x="389.3529411764706" y="740.1764705882352" type="curve" smooth="yes"/>
      <point x="273.4117647058824" y="740.1764705882352"/>
      <point x="180.1764705882353" y="632.7647058823529"/>
      <point x="180.1764705882353" y="462.6470588235294" type="curve" smooth="yes"/>
      <point x="180.1764705882353" y="285.05882352941177"/>
      <point x="241.35294117647058" y="133.7058823529412"/>
      <point x="346.6470588235294" y="56.23529411764706" type="curve" smooth="yes"/>
      <point x="406.3529411764706" y="12.588235294117647"/>
      <point x="478.52941176470586" y="-9.0"/>
      <point x="545.8235294117648" y="-9.0" type="curve" smooth="yes"/>
      <point x="573.4705882352941" y="-9.0"/>
      <point x="603.1176470588235" y="-5.588235294117647"/>
      <point x="634.7058823529412" y="0.8235294117647056" type="curve"/>
      <point x="623.3529411764706" y="74.88235294117646" type="line"/>
      <point x="602.1176470588235" y="68.94117647058823"/>
      <point x="582.2941176470588" y="66.0"/>
      <point x="562.4117647058823" y="66.0" type="curve" smooth="yes"/>
      <point x="513.7647058823529" y="66.0"/>
      <point x="466.8235294117647" y="84.0"/>
      <point x="423.5882352941176" y="118.11764705882354" type="curve" smooth="yes"/>
      <point x="335.70588235294116" y="183.47058823529412"/>
      <point x="286.7647058823529" y="317.0"/>
      <point x="286.7647058823529" y="473.2352941176471" type="curve" smooth="yes"/>
      <point x="286.7647058823529" y="588.9411764705883"/>
      <point x="327.11764705882354" y="668.1764705882352"/>
      <point x="388.0" y="668.1764705882352" type="curve" smooth="yes"/>
      <point x="416.88235294117646" y="668.1764705882352"/>
      <point x="448.1764705882353" y="650.3529411764706"/>
      <point x="479.94117647058823" y="615.7058823529412" type="curve"/>
      <point x="539.8823529411765" y="685.0588235294117" type="line"/>
      <point x="491.8235294117647" y="722.3529411764706"/>
      <point x="439.6470588235294" y="740.1764705882352"/>
    </contour>
    <contour>
      <point x="392.0" y="424.11764705882354" type="line"/>
      <point x="382.05882352941177" y="346.70588235294116" type="line"/>
      <point x="607.1764705882352" y="346.70588235294116" type="line"/>
      <point x="623.2941176470588" y="424.11764705882354" type="line"/>
    </contour>
  </outline>
</glyph>
<glyph name="quotesingle" format="2">
  <advance width="157.0"/>
  <unicode hex="0027"/>
  <note>
quotesingle
</note>
  <outline>
    <contour>
      <point x="144.94117647058823" y="553.1764705882352" type="line"/>
      <point x="169.47058823529412" y="727.7647058823529" type="line"/>
      <point x="82.88235294117646" y="727.7647058823529" type="line"/>
      <point x="58.35294117647059" y="554.2352941176471" type="line"/>
      <point x="73.0" y="442.11764705882354" type="line"/>
      <point x="97.70588235294117" y="442.11764705882354" type="line"/>
    </contour>
  </outline>
</glyph>
<glyph name="parenleft" format="2">
  <advance width="323.0"/>
  <unicode hex="0028"/>
  <note>
parenleft
</note>
  <outline>
    <contour>
      <point x="366.8235294117647" y="727.0" type="curve"/>
      <point x="291.05882352941177" y="739.8235294117648" type="line"/>
      <point x="153.58823529411765" y="598.2352941176471"/>
      <point x="52.411764705882355" y="415.52941176470586"/>
      <point x="52.411764705882355" y="215.64705882352942" type="curve" smooth="yes"/>
      <point x="52.411764705882355" y="85.94117647058823"/>
      <point x="95.58823529411765" y="-36.411764705882355"/>
      <point x="170.41176470588235" y="-142.8235294117647" type="curve"/>
      <point x="248.58823529411765" y="-130.0" type="line"/>
      <point x="182.23529411764707" y="-27.529411764705884"/>
      <point x="148.52941176470588" y="75.05882352941177"/>
      <point x="148.52941176470588" y="193.7058823529412" type="curve" smooth="yes"/>
      <point x="148.52941176470588" y="400.29411764705884"/>
      <point x="224.88235294117646" y="572.4705882352941"/>
    </contour>
  </outline>
</glyph>
<glyph name="parenright" format="2">
  <advance width="328.0"/>
  <unicode hex="0029"/>
  <note>
parenright
</note>
  <outline>
    <contour>
      <point x="304.52941176470586" y="380.8235294117647" type="curve" smooth="yes"/>
      <point x="304.52941176470586" y="510.05882352941177"/>
      <point x="261.3529411764706" y="633.4117647058823"/>
      <point x="186.52941176470588" y="739.8235294117648" type="curve"/>
      <point x="108.82352941176471" y="727.0" type="line"/>
      <point x="174.7058823529412" y="624.0588235294117"/>
      <point x="208.41176470588235" y="521.4705882352941"/>
      <point x="208.41176470588235" y="402.29411764705884" type="curve" smooth="yes"/>
      <point x="208.41176470588235" y="196.7058823529412"/>
      <point x="132.05882352941177" y="23.529411764705884"/>
      <point x="-9.882352941176471" y="-130.0" type="curve"/>
      <point x="66.41176470588235" y="-142.8235294117647" type="line"/>
      <point x="203.88235294117646" y="-1.2352941176470589"/>
      <point x="304.52941176470586" y="180.47058823529412"/>
    </contour>
  </outline>
</glyph>
<glyph name="asterisk" format="2">
  <advance width="479.4117647058824"/>
  <unicode hex="002A"/>
  <note>
asterisk
</note>
  <outline>
    <contour>
      <point x="253.94117647058823" y="735.7058823529412" type="line"/>
      <point x="257.2352941176471" y="588.1764705882352" type="line"/>
      <point x="306.2352941176471" y="588.1764705882352" type="line"/>
      <point x="347.47058823529414" y="735.7058823529412" type="line"/>
    </contour>
    <contour>
      <point x="313.11764705882354" y="583.9411764705883" type="line"/>
      <point x="321.52941176470586" y="534.8823529411765" type="line"/>
      <point x="471.47058823529414" y="562.8823529411765" type="line"/>
      <point x="450.1764705882353" y="655.0" type="line"/>
    </contour>
    <contour>
      <point x="126.6470588235294" y="650.5294117647059" type="line"/>
      <point x="89.05882352941177" y="559.9411764705883" type="line"/>
      <point x="229.58823529411765" y="538.9411764705883" type="line"/>
      <point x="250.88235294117646" y="583.4117647058823" type="line"/>
    </contour>
    <contour>
      <point x="230.11764705882354" y="530.4705882352941" type="line"/>
      <point x="112.6470588235294" y="422.70588235294116" type="line"/>
      <point x="178.94117647058823" y="369.2352941176471" type="line"/>
      <point x="266.29411764705884" y="499.2352941176471" type="line"/>
    </contour>
    <contour>
      <point x="274.2352941176471" y="499.2352941176471" type="line"/>
      <point x="324.70588235294116" y="366.29411764705884" type="line"/>
      <point x="408.3529411764706" y="425.11764705882354" type="line"/>
      <point x="317.29411764705884" y="526.9411764705883" type="line"/>
    </contour>
  </outline>
</glyph>
<glyph name="plus" format="2">
  <advance width="642.0"/>
  <unicode hex="002B"/>
  <note>
plus
</note>
  <outline>
    <contour>
      <point x="321.29411764705884" y="0.0" type="line"/>
      <point x="350.29411764705884" y="208.1764705882353" type="line"/>
      <point x="560.5882352941177" y="208.1764705882353" type="line"/>
      <point x="571.5294117647059" y="286.11764705882354" type="line"/>
      <point x="361.2352941176471" y="286.11764705882354" type="line"/>
      <point x="390.2352941176471" y="493.29411764705884" type="line"/>
      <point x="311.7647058823529" y="493.29411764705884" type="line"/>
      <point x="282.7647058823529" y="285.6470588235294" type="line"/>
      <point x="73.0" y="285.6470588235294" type="line"/>
      <point x="62.05882352941177" y="207.7058823529412" type="line"/>
      <point x="271.8235294117647" y="207.7058823529412" type="line"/>
      <point x="242.8235294117647" y="0.0" type="line"/>
    </contour>
  </outline>
</glyph>
<glyph name="comma" format="2">
  <advance width="243.47058823529412"/>
  <unicode hex="002C"/>
  <note>
comma
</note>
  <outline>
    <contour>
      <point x="175.7058823529412" y="55.64705882352941" type="curve" smooth="yes"/>
      <point x="175.7058823529412" y="95.52941176470588"/>
      <point x="148.94117647058823" y="128.94117647058823"/>
      <point x="104.52941176470588" y="128.94117647058823" type="curve" smooth="yes"/>
      <point x="66.17647058823529" y="128.94117647058823"/>
      <point x="30.823529411764707" y="100.76470588235294"/>
      <point x="30.823529411764707" y="56.35294117647059" type="curve" smooth="yes"/>
      <point x="30.823529411764707" y="15.058823529411764"/>
      <point x="68.94117647058823" y="1.9411764705882353"/>
      <point x="68.94117647058823" y="-17.058823529411764" type="curve" smooth="yes"/>
      <point x="68.94117647058823" y="-38.411764705882355"/>
      <point x="42.05882352941177" y="-67.41176470588235"/>
      <point x="11.882352941176471" y="-92.47058823529412" type="curve"/>
      <point x="43.294117647058826" y="-129.23529411764707" type="line"/>
      <point x="104.17647058823529" y="-89.29411764705883"/>
      <point x="175.7058823529412" y="-20.58823529411765"/>
    </contour>
  </outline>
</glyph>
<glyph name="hyphen" format="2">
  <advance width="318.8235294117647"/>
  <unicode hex="002D"/>
  <note>
hyphen
</note>
  <outline>
    <contour>
      <point x="38.23529411764706" y="216.35294117647058" type="line"/>
      <point x="269.8235294117647" y="216.35294117647058" type="line"/>
      <point x="281.7647058823529" y="298.6470588235294" type="line"/>
      <point x="50.1764705882353" y="298.6470588235294" type="line"/>
    </contour>
  </outline>
</glyph>
<glyph name="period" format="2">
  <advance width="231.94117647058823"/>
  <unicode hex="002E"/>
  <note>
period
</note>
  <outline>
    <contour>
      <point x="163.2941176470588" y="69.11764705882354" type="curve" smooth="yes"/>
      <point x="163.2941176470588" y="104.47058823529412"/>
      <point x="136.41176470588235" y="130.8235294117647"/>
      <point x="100.05882352941177" y="130.8235294117647" type="curve" smooth="yes"/>
      <point x="58.23529411764706" y="130.8235294117647"/>
      <point x="18.470588235294116" y="93.0"/>
      <point x="18.470588235294116" y="49.23529411764706" type="curve" smooth="yes"/>
      <point x="18.470588235294116" y="14.352941176470589"/>
      <point x="44.82352941176471" y="-12.529411764705882"/>
      <point x="80.70588235294117" y="-12.529411764705882" type="curve" smooth="yes"/>
      <point x="123.47058823529412" y="-12.529411764705882"/>
      <point x="163.2941176470588" y="25.294117647058822"/>
    </contour>
  </outline>
</glyph>
<glyph name="slash" format="2">
  <advance width="293.0"/>
  <unicode hex="002F"/>
  <note>
slash
</note>
  <outline>
    <contour>
      <point x="-15.882352941176471" y="-4.235294117647059" type="line"/>
      <point x="63.88235294117647" y="-4.235294117647059" type="line"/>
      <point x="324.88235294117646" y="727.7647058823529" type="line"/>
      <point x="245.7058823529412" y="727.7647058823529" type="line"/>
    </contour>
  </outline>
</glyph>
<glyph name="zero" format="2">
  <advance width="554.6470588235294"/>
  <unicode hex="0030"/>
  <note>
zero
</note>
  <guideline x="82.23529411764706" y="439.7647058823529" angle="90.0"/>
  <guideline x="93.35294117647058" y="439.7647058823529" angle="90.0"/>
  <guideline x="461.29411764705884" y="439.7647058823529" angle="90.0"/>
  <guideline x="472.4117647058824" y="439.7647058823529" angle="90.0"/>
  <outline>
    <contour>
      <point x="309.1764705882353" y="506.29411764705884" type="curve" smooth="yes"/>
      <point x="146.58823529411765" y="506.29411764705884"/>
      <point x="38.294117647058826" y="369.5882352941176"/>
      <point x="38.294117647058826" y="201.76470588235293" type="curve" smooth="yes"/>
      <point x="38.294117647058826" y="80.76470588235294"/>
      <point x="115.88235294117646" y="-12.529411764705882"/>
      <point x="245.47058823529412" y="-12.529411764705882" type="curve" smooth="yes"/>
      <point x="424.5882352941176" y="-12.529411764705882"/>
      <point x="516.3529411764706" y="141.05882352941177"/>
      <point x="516.3529411764706" y="292.0" type="curve" smooth="yes"/>
      <point x="516.3529411764706" y="415.52941176470586"/>
      <point x="441.7647058823529" y="506.29411764705884"/>
    </contour>
    <contour>
      <point x="300.8235294117647" y="435.3529411764706" type="curve" smooth="yes"/>
      <point x="387.6470588235294" y="435.3529411764706"/>
      <point x="417.3529411764706" y="376.29411764705884"/>
      <point x="417.3529411764706" y="299.8235294117647" type="curve" smooth="yes"/>
      <point x="417.3529411764706" y="192.47058823529412"/>
      <point x="380.2352941176471" y="58.411764705882355"/>
      <point x="253.8235294117647" y="58.411764705882355" type="curve" smooth="yes"/>
      <point x="166.52941176470588" y="58.411764705882355"/>
      <point x="137.2941176470588" y="116.11764705882354"/>
      <point x="137.2941176470588" y="191.64705882352942" type="curve" smooth="yes"/>
      <point x="137.2941176470588" y="296.5882352941176"/>
      <point x="173.52941176470588" y="435.3529411764706"/>
    </contour>
  </outline>
</glyph>
<glyph name="one" format="2">
  <advance width="383.05882352941177"/>
  <unicode hex="0031"/>
  <note>
one
</note>
  <outline>
    <contour>
      <point x="292.94117647058823" y="495.3529411764706" type="line"/>
      <point x="232.7058823529412" y="495.3529411764706" type="line"/>
      <point x="65.6470588235294" y="415.11764705882354" type="line"/>
      <point x="74.47058823529412" y="360.11764705882354" type="line"/>
      <point x="182.58823529411765" y="390.1764705882353" type="line"/>
      <point x="141.8235294117647" y="82.05882352941177" type="line"/>
      <point x="34.588235294117645" y="82.05882352941177" type="line"/>
      <point x="24.235294117647058" y="0.0" type="line"/>
      <point x="330.6470588235294" y="0.0" type="line"/>
      <point x="341.52941176470586" y="82.05882352941177" type="line"/>
      <point x="238.2941176470588" y="82.05882352941177" type="line"/>
    </contour>
  </outline>
</glyph>
<glyph name="two" format="2">
  <advance width="449.52941176470586"/>
  <unicode hex="0032"/>
  <note>
two
</note>
  <guideline x="459.7647058823529" y="484.47058823529414" angle="0.0"/>
  <guideline x="415.8235294117647" y="441.6470588235294" angle="0.0"/>
  <outline>
    <contour>
      <point x="278.11764705882354" y="510.4117647058824" type="curve" smooth="yes"/>
      <point x="207.88235294117646" y="510.4117647058824"/>
      <point x="124.6470588235294" y="483.4117647058824"/>
      <point x="59.88235294117647" y="435.4117647058824" type="curve"/>
      <point x="103.05882352941177" y="368.7647058823529" type="line"/>
      <point x="142.05882352941177" y="405.4117647058824"/>
      <point x="205.0" y="432.29411764705884"/>
      <point x="251.58823529411765" y="432.29411764705884" type="curve" smooth="yes"/>
      <point x="286.88235294117646" y="432.29411764705884"/>
      <point x="312.6470588235294" y="416.6470588235294"/>
      <point x="312.6470588235294" y="379.3529411764706" type="curve" smooth="yes"/>
      <point x="312.6470588235294" y="275.4117647058824"/>
      <point x="155.11764705882354" y="157.7058823529412"/>
      <point x="1.6470588235294117" y="66.41176470588235" type="curve"/>
      <point x="-7.764705882352941" y="-0.5294117647058824" type="line"/>
      <point x="378.47058823529414" y="-0.5294117647058824" type="line"/>
      <point x="410.8235294117647" y="82.58823529411765" type="line"/>
      <point x="156.88235294117646" y="82.58823529411765" type="line"/>
      <point x="282.6470588235294" y="162.23529411764707"/>
      <point x="420.5882352941176" y="271.94117647058823"/>
      <point x="420.5882352941176" y="398.5882352941176" type="curve" smooth="yes"/>
      <point x="420.5882352941176" y="475.94117647058823"/>
      <point x="357.8235294117647" y="510.4117647058824"/>
    </contour>
  </outline>
</glyph>
<glyph name="three" format="2">
  <advance width="394.11764705882354"/>
  <unicode hex="0033"/>
  <note>
three
</note>
  <outline>
    <contour>
      <point x="252.7058823529412" y="510.94117647058823" type="curve" smooth="yes"/>
      <point x="186.88235294117646" y="510.94117647058823"/>
      <point x="106.17647058823529" y="485.94117647058823"/>
      <point x="40.0" y="438.05882352941177" type="curve"/>
      <point x="82.11764705882354" y="369.29411764705884" type="line"/>
      <point x="118.58823529411765" y="406.29411764705884"/>
      <point x="180.58823529411765" y="433.29411764705884"/>
      <point x="222.76470588235293" y="433.29411764705884" type="curve" smooth="yes"/>
      <point x="254.47058823529412" y="433.29411764705884"/>
      <point x="269.70588235294116" y="413.6470588235294"/>
      <point x="269.70588235294116" y="383.94117647058823" type="curve" smooth="yes"/>
      <point x="269.70588235294116" y="300.11764705882354"/>
      <point x="142.1764705882353" y="219.64705882352942"/>
      <point x="62.0" y="184.52941176470588" type="curve"/>
      <point x="80.82352941176471" y="131.8235294117647" type="line"/>
      <point x="102.88235294117646" y="139.2941176470588"/>
      <point x="124.88235294117646" y="143.2941176470588"/>
      <point x="143.88235294117646" y="143.2941176470588" type="curve" smooth="yes"/>
      <point x="192.47058823529412" y="143.2941176470588"/>
      <point x="228.94117647058823" y="119.23529411764706"/>
      <point x="228.94117647058823" y="66.47058823529412" type="curve" smooth="yes"/>
      <point x="228.94117647058823" y="-83.94117647058823"/>
      <point x="53.76470588235294" y="-136.47058823529412"/>
      <point x="-111.05882352941177" y="-145.88235294117646" type="curve"/>
      <point x="-113.52941176470588" y="-196.94117647058823" type="line"/>
      <point x="97.88235294117646" y="-200.11764705882354"/>
      <point x="342.4117647058824" y="-113.05882352941177"/>
      <point x="342.4117647058824" y="76.41176470588235" type="curve" smooth="yes"/>
      <point x="342.4117647058824" y="159.41176470588235"/>
      <point x="271.7647058823529" y="194.47058823529412"/>
      <point x="205.35294117647058" y="196.05882352941177" type="curve"/>
      <point x="295.88235294117646" y="241.11764705882354"/>
      <point x="379.05882352941177" y="324.11764705882354"/>
      <point x="379.05882352941177" y="410.0" type="curve" smooth="yes"/>
      <point x="379.05882352941177" y="477.11764705882354"/>
      <point x="328.5882352941176" y="510.94117647058823"/>
    </contour>
  </outline>
</glyph>
<glyph name="four" format="2">
  <advance width="486.4117647058824"/>
  <unicode hex="0034"/>
  <note>
four
</note>
  <outline>
    <contour>
      <point x="306.7647058823529" y="498.0" type="line"/>
      <point x="-17.529411764705884" y="48.0" type="line"/>
      <point x="-24.470588235294116" y="-0.47058823529411764" type="line"/>
      <point x="247.52941176470588" y="-0.47058823529411764" type="line"/>
      <point x="221.52941176470588" y="-184.52941176470588" type="line"/>
      <point x="324.29411764705884" y="-184.52941176470588" type="line"/>
      <point x="350.29411764705884" y="-0.47058823529411764" type="line"/>
      <point x="431.4117647058824" y="-0.47058823529411764" type="line"/>
      <point x="466.0" y="83.11764705882354" type="line"/>
      <point x="362.1764705882353" y="83.11764705882354" type="line"/>
      <point x="420.29411764705884" y="498.0" type="line"/>
    </contour>
    <contour>
      <point x="300.2352941176471" y="375.47058823529414" type="line"/>
      <point x="259.4117647058824" y="83.11764705882354" type="line"/>
      <point x="94.0" y="83.11764705882354" type="line"/>
    </contour>
  </outline>
</glyph>
<glyph name="five" format="2">
  <advance width="385.1764705882353"/>
  <unicode hex="0035"/>
  <note>
five
</note>
  <outline>
    <contour>
      <point x="165.0" y="497.47058823529414" type="line"/>
      <point x="35.1764705882353" y="264.52941176470586" type="line"/>
      <point x="125.23529411764706" y="232.8235294117647"/>
      <point x="193.05882352941177" y="175.0"/>
      <point x="193.05882352941177" y="94.88235294117646" type="curve" smooth="yes"/>
      <point x="193.05882352941177" y="-39.529411764705884"/>
      <point x="81.58823529411765" y="-121.82352941176471"/>
      <point x="-65.29411764705883" y="-157.94117647058823" type="curve"/>
      <point x="-58.35294117647059" y="-208.05882352941177" type="line"/>
      <point x="126.47058823529412" y="-183.41176470588235"/>
      <point x="307.94117647058823" y="-65.11764705882354"/>
      <point x="307.94117647058823" y="109.23529411764706" type="curve" smooth="yes"/>
      <point x="307.94117647058823" y="201.8235294117647"/>
      <point x="240.7058823529412" y="263.0"/>
      <point x="139.88235294117646" y="303.1764705882353" type="curve"/>
      <point x="191.76470588235293" y="395.52941176470586" type="line"/>
      <point x="386.7647058823529" y="395.52941176470586" type="line"/>
      <point x="430.29411764705884" y="497.47058823529414" type="line"/>
    </contour>
  </outline>
</glyph>
<glyph name="six" format="2">
  <advance width="534.4705882352941"/>
  <unicode hex="0036"/>
  <note>
six
</note>
  <outline>
    <contour>
      <point x="522.8235294117648" y="731.0588235294117" type="line"/>
      <point x="275.05882352941177" y="658.7058823529412"/>
      <point x="33.8235294117647" y="431.7647058823529"/>
      <point x="33.8235294117647" y="188.2941176470588" type="curve" smooth="yes"/>
      <point x="33.8235294117647" y="51.411764705882355"/>
      <point x="122.11764705882354" y="-12.529411764705882"/>
      <point x="227.7058823529412" y="-12.529411764705882" type="curve" smooth="yes"/>
      <point x="376.7647058823529" y="-12.529411764705882"/>
      <point x="499.8235294117647" y="110.29411764705883"/>
      <point x="499.8235294117647" y="254.41176470588235" type="curve" smooth="yes"/>
      <point x="499.8235294117647" y="342.29411764705884"/>
      <point x="440.29411764705884" y="412.52941176470586"/>
      <point x="329.5882352941176" y="412.52941176470586" type="curve" smooth="yes"/>
      <point x="280.94117647058823" y="412.52941176470586"/>
      <point x="225.7058823529412" y="396.3529411764706"/>
      <point x="174.76470588235293" y="362.0" type="curve"/>
      <point x="150.94117647058823" y="288.5882352941176" type="line"/>
      <point x="199.1764705882353" y="320.88235294117646"/>
      <point x="247.0" y="336.52941176470586"/>
      <point x="286.7647058823529" y="336.52941176470586" type="curve" smooth="yes"/>
      <point x="354.8235294117647" y="336.52941176470586"/>
      <point x="383.4117647058824" y="286.88235294117646"/>
      <point x="383.4117647058824" y="230.7058823529412" type="curve" smooth="yes"/>
      <point x="383.4117647058824" y="152.05882352941177"/>
      <point x="330.3529411764706" y="59.88235294117647"/>
      <point x="244.23529411764707" y="59.88235294117647" type="curve" smooth="yes"/>
      <point x="183.8235294117647" y="59.88235294117647"/>
      <point x="146.8235294117647" y="109.52941176470588"/>
      <point x="146.8235294117647" y="192.11764705882354" type="curve" smooth="yes"/>
      <point x="146.8235294117647" y="393.2352941176471"/>
      <point x="320.29411764705884" y="584.9411764705883"/>
      <point x="539.7058823529412" y="675.5882352941177" type="curve"/>
    </contour>
  </outline>
</glyph>
<glyph name="seven" format="2">
  <advance width="427.1764705882353"/>
  <unicode hex="0037"/>
  <note>
seven
</note>
  <outline>
    <contour>
      <point x="66.17647058823529" y="497.0" type="line"/>
      <point x="27.647058823529413" y="405.05882352941177" type="line"/>
      <point x="339.0" y="405.05882352941177" type="line"/>
      <point x="-46.411764705882355" y="-186.88235294117646" type="line"/>
      <point x="73.94117647058823" y="-186.88235294117646" type="line"/>
      <point x="443.8235294117647" y="445.11764705882354" type="line"/>
      <point x="451.2352941176471" y="497.0" type="line"/>
    </contour>
  </outline>
</glyph>
<glyph name="eight" format="2">
  <advance width="479.94117647058823"/>
  <unicode hex="0038"/>
  <note>
eight
</note>
  <outline>
    <contour>
      <point x="317.88235294117646" y="730.4117647058823" type="curve" smooth="yes"/>
      <point x="215.11764705882354" y="730.4117647058823"/>
      <point x="98.3529411764706" y="656.0588235294117"/>
      <point x="98.3529411764706" y="520.0" type="curve" smooth="yes"/>
      <point x="98.3529411764706" y="439.47058823529414"/>
      <point x="147.2941176470588" y="388.1764705882353"/>
      <point x="200.76470588235293" y="343.70588235294116" type="curve" smooth="yes"/>
      <point x="261.29411764705884" y="294.1764705882353"/>
      <point x="327.3529411764706" y="257.11764705882354"/>
      <point x="327.3529411764706" y="189.41176470588235" type="curve" smooth="yes"/>
      <point x="327.3529411764706" y="121.05882352941177"/>
      <point x="274.05882352941177" y="57.94117647058823"/>
      <point x="204.41176470588235" y="57.94117647058823" type="curve" smooth="yes"/>
      <point x="156.76470588235293" y="57.94117647058823"/>
      <point x="117.52941176470588" y="88.58823529411765"/>
      <point x="117.52941176470588" y="149.8235294117647" type="curve" smooth="yes"/>
      <point x="117.52941176470588" y="221.05882352941177"/>
      <point x="160.41176470588235" y="284.52941176470586"/>
      <point x="240.05882352941177" y="328.8235294117647" type="curve"/>
      <point x="197.05882352941177" y="377.2352941176471" type="line"/>
      <point x="87.64705882352942" y="316.7647058823529"/>
      <point x="21.352941176470587" y="237.11764705882354"/>
      <point x="21.352941176470587" y="140.7058823529412" type="curve" smooth="yes"/>
      <point x="21.352941176470587" y="40.411764705882355"/>
      <point x="104.52941176470588" y="-11.470588235294118"/>
      <point x="199.76470588235293" y="-11.470588235294118" type="curve" smooth="yes"/>
      <point x="330.94117647058823" y="-11.470588235294118"/>
      <point x="442.29411764705884" y="78.6470588235294"/>
      <point x="442.29411764705884" y="214.2941176470588" type="curve" smooth="yes"/>
      <point x="442.29411764705884" y="316.11764705882354"/>
      <point x="367.4117647058824" y="367.5882352941176"/>
      <point x="303.47058823529414" y="417.4117647058824" type="curve" smooth="yes"/>
      <point x="254.35294117647058" y="454.94117647058823"/>
      <point x="209.76470588235293" y="485.5882352941176"/>
      <point x="209.76470588235293" y="543.8235294117648" type="curve" smooth="yes"/>
      <point x="209.76470588235293" y="605.6470588235294"/>
      <point x="251.0" y="662.5294117647059"/>
      <point x="310.3529411764706" y="662.5294117647059" type="curve" smooth="yes"/>
      <point x="347.94117647058823" y="662.5294117647059"/>
      <point x="377.8235294117647" y="638.3529411764706"/>
      <point x="377.8235294117647" y="588.5294117647059" type="curve" smooth="yes"/>
      <point x="377.8235294117647" y="531.4117647058823"/>
      <point x="340.1764705882353" y="467.05882352941177"/>
      <point x="274.5882352941176" y="430.6470588235294" type="curve"/>
      <point x="320.7647058823529" y="383.6470588235294" type="line"/>
      <point x="421.8235294117647" y="444.11764705882354"/>
      <point x="471.3529411764706" y="525.8235294117648"/>
      <point x="471.3529411764706" y="599.9411764705883" type="curve" smooth="yes"/>
      <point x="471.3529411764706" y="687.4705882352941"/>
      <point x="398.5882352941176" y="730.4117647058823"/>
    </contour>
  </outline>
</glyph>
<glyph name="nine" format="2">
  <advance width="537.1764705882352"/>
  <unicode hex="0039"/>
  <note>
nine
</note>
  <outline>
    <contour>
      <point x="311.0" y="509.94117647058823" type="curve" smooth="yes"/>
      <point x="162.41176470588235" y="509.94117647058823"/>
      <point x="39.35294117647059" y="388.05882352941177"/>
      <point x="39.35294117647059" y="244.8235294117647" type="curve" smooth="yes"/>
      <point x="39.35294117647059" y="158.88235294117646"/>
      <point x="91.29411764705883" y="84.88235294117646"/>
      <point x="208.58823529411765" y="84.88235294117646" type="curve" smooth="yes"/>
      <point x="257.2352941176471" y="84.88235294117646"/>
      <point x="313.0" y="101.05882352941177"/>
      <point x="363.4117647058824" y="135.41176470588235" type="curve"/>
      <point x="386.7647058823529" y="208.8235294117647" type="line"/>
      <point x="339.0" y="176.52941176470588"/>
      <point x="291.70588235294116" y="160.88235294117646"/>
      <point x="251.94117647058823" y="160.88235294117646" type="curve" smooth="yes"/>
      <point x="184.35294117647058" y="160.88235294117646"/>
      <point x="154.2941176470588" y="210.05882352941177"/>
      <point x="154.2941176470588" y="266.7647058823529" type="curve" smooth="yes"/>
      <point x="154.2941176470588" y="345.4117647058824"/>
      <point x="208.41176470588235" y="437.52941176470586"/>
      <point x="294.47058823529414" y="437.52941176470586" type="curve" smooth="yes"/>
      <point x="354.88235294117646" y="437.52941176470586"/>
      <point x="391.88235294117646" y="387.88235294117646"/>
      <point x="391.88235294117646" y="306.2352941176471" type="curve" smooth="yes"/>
      <point x="391.88235294117646" y="107.17647058823529"/>
      <point x="221.47058823529412" y="-75.0"/>
      <point x="1.5294117647058822" y="-158.1764705882353" type="curve"/>
      <point x="17.88235294117647" y="-213.64705882352942" type="line"/>
      <point x="266.29411764705884" y="-151.64705882352942"/>
      <point x="504.88235294117646" y="64.58823529411765"/>
      <point x="504.88235294117646" y="309.11764705882354" type="curve" smooth="yes"/>
      <point x="504.88235294117646" y="446.0"/>
      <point x="416.5882352941176" y="509.94117647058823"/>
    </contour>
  </outline>
</glyph>
<glyph name="colon" format="2">
  <advance width="247.0"/>
  <unicode hex="003A"/>
  <note>
colon
</note>
  <outline>
    <contour>
      <point x="213.8235294117647" y="366.1764705882353" type="curve" smooth="yes"/>
      <point x="216.64705882352942" y="402.88235294117646"/>
      <point x="189.2941176470588" y="432.5882352941176"/>
      <point x="151.58823529411765" y="432.5882352941176" type="curve" smooth="yes"/>
      <point x="111.17647058823529" y="432.5882352941176"/>
      <point x="72.76470588235294" y="397.5882352941176"/>
      <point x="69.94117647058823" y="356.6470588235294" type="curve" smooth="yes"/>
      <point x="67.11764705882354" y="319.47058823529414"/>
      <point x="94.47058823529412" y="289.7647058823529"/>
      <point x="132.1764705882353" y="289.7647058823529" type="curve" smooth="yes"/>
      <point x="172.58823529411765" y="289.7647058823529"/>
      <point x="211.0" y="324.7647058823529"/>
    </contour>
    <contour>
      <point x="171.7058823529412" y="63.411764705882355" type="curve" smooth="yes"/>
      <point x="174.52941176470588" y="100.58823529411765"/>
      <point x="147.1764705882353" y="130.2941176470588"/>
      <point x="109.47058823529412" y="130.2941176470588" type="curve" smooth="yes"/>
      <point x="69.05882352941177" y="130.2941176470588"/>
      <point x="30.647058823529413" y="95.29411764705883"/>
      <point x="27.823529411764707" y="53.88235294117647" type="curve" smooth="yes"/>
      <point x="25.0" y="17.176470588235293"/>
      <point x="52.35294117647059" y="-12.529411764705882"/>
      <point x="90.05882352941177" y="-12.529411764705882" type="curve" smooth="yes"/>
      <point x="130.47058823529412" y="-12.529411764705882"/>
      <point x="168.88235294117646" y="22.470588235294116"/>
    </contour>
  </outline>
</glyph>
<glyph name="semicolon" format="2">
  <advance width="251.94117647058823"/>
  <unicode hex="003B"/>
  <note>
semicolon
</note>
  <outline>
    <contour>
      <point x="219.23529411764707" y="368.1764705882353" type="curve" smooth="yes"/>
      <point x="219.23529411764707" y="403.05882352941177"/>
      <point x="192.35294117647058" y="429.4117647058824"/>
      <point x="156.47058823529412" y="429.4117647058824" type="curve" smooth="yes"/>
      <point x="113.70588235294117" y="429.4117647058824"/>
      <point x="74.41176470588235" y="391.5882352941176"/>
      <point x="74.41176470588235" y="348.29411764705884" type="curve" smooth="yes"/>
      <point x="74.41176470588235" y="312.94117647058823"/>
      <point x="100.76470588235294" y="286.05882352941177"/>
      <point x="137.11764705882354" y="286.05882352941177" type="curve" smooth="yes"/>
      <point x="178.94117647058823" y="286.05882352941177"/>
      <point x="219.23529411764707" y="323.88235294117646"/>
    </contour>
    <contour>
      <point x="104.52941176470588" y="128.94117647058823" type="curve" smooth="yes"/>
      <point x="66.17647058823529" y="128.94117647058823"/>
      <point x="30.823529411764707" y="100.76470588235294"/>
      <point x="30.823529411764707" y="56.35294117647059" type="curve" smooth="yes"/>
      <point x="30.823529411764707" y="15.058823529411764"/>
      <point x="68.94117647058823" y="1.9411764705882353"/>
      <point x="68.94117647058823" y="-17.058823529411764" type="curve" smooth="yes"/>
      <point x="68.94117647058823" y="-38.411764705882355"/>
      <point x="42.05882352941177" y="-67.41176470588235"/>
      <point x="11.882352941176471" y="-92.47058823529412" type="curve"/>
      <point x="43.294117647058826" y="-129.23529411764707" type="line"/>
      <point x="104.17647058823529" y="-89.29411764705883"/>
      <point x="175.7058823529412" y="-20.58823529411765"/>
      <point x="175.7058823529412" y="55.64705882352941" type="curve" smooth="yes"/>
      <point x="175.7058823529412" y="95.52941176470588"/>
      <point x="148.94117647058823" y="128.94117647058823"/>
    </contour>
  </outline>
</glyph>
<glyph name="less" format="2">
  <advance width="630.0"/>
  <unicode hex="003C"/>
  <note>
less
</note>
  <outline>
    <contour>
      <point x="71.58823529411765" y="278.1764705882353" type="line"/>
      <point x="62.529411764705884" y="215.05882352941177" type="line"/>
      <point x="529.1176470588235" y="-9.352941176470589" type="line"/>
      <point x="540.5294117647059" y="71.76470588235294" type="line"/>
      <point x="177.47058823529412" y="245.8235294117647" type="line"/>
      <point x="589.5882352941177" y="418.47058823529414" type="line"/>
      <point x="601.0" y="501.05882352941177" type="line"/>
    </contour>
  </outline>
</glyph>
<glyph name="equal" format="2">
  <advance width="630.0"/>
  <unicode hex="003D"/>
  <note>
equal
</note>
  <outline>
    <contour>
      <point x="86.0" y="381.0" type="line"/>
      <point x="75.11764705882354" y="303.5882352941176" type="line"/>
      <point x="573.6470588235294" y="303.5882352941176" type="line"/>
      <point x="584.5294117647059" y="381.0" type="line"/>
    </contour>
    <contour>
      <point x="59.529411764705884" y="190.11764705882354" type="line"/>
      <point x="48.11764705882353" y="112.17647058823529" type="line"/>
      <point x="546.6470588235294" y="112.17647058823529" type="line"/>
      <point x="558.0588235294117" y="190.11764705882354" type="line"/>
    </contour>
  </outline>
</glyph>
<glyph name="greater" format="2">
  <advance width="630.0"/>
  <unicode hex="003E"/>
  <note>
greater
</note>
  <outline>
    <contour>
      <point x="42.529411764705884" y="71.76470588235294" type="line"/>
      <point x="31.11764705882353" y="-9.352941176470589" type="line"/>
      <point x="560.5294117647059" y="215.05882352941177" type="line"/>
      <point x="569.5882352941177" y="278.1764705882353" type="line"/>
      <point x="103.0" y="501.05882352941177" type="line"/>
      <point x="91.58823529411765" y="418.47058823529414" type="line"/>
      <point x="454.6470588235294" y="245.8235294117647" type="line"/>
    </contour>
  </outline>
</glyph>
<glyph name="question" format="2">
  <advance width="432.6470588235294"/>
  <unicode hex="003F"/>
  <note>
question
</note>
  <outline>
    <contour>
      <point x="282.1764705882353" y="727.7647058823529" type="curve" smooth="yes"/>
      <point x="237.88235294117646" y="727.7647058823529"/>
      <point x="188.7058823529412" y="715.2941176470588"/>
      <point x="142.1764705882353" y="690.2941176470588" type="curve"/>
      <point x="168.11764705882354" y="610.5882352941177" type="line"/>
      <point x="197.52941176470588" y="629.2352941176471"/>
      <point x="228.05882352941177" y="638.8235294117648"/>
      <point x="256.70588235294116" y="638.8235294117648" type="curve" smooth="yes"/>
      <point x="297.3529411764706" y="638.8235294117648"/>
      <point x="328.05882352941177" y="618.7058823529412"/>
      <point x="328.05882352941177" y="571.1764705882352" type="curve" smooth="yes"/>
      <point x="328.05882352941177" y="519.1764705882352"/>
      <point x="291.7647058823529" y="491.7647058823529"/>
      <point x="244.64705882352942" y="462.3529411764706" type="curve" smooth="yes"/>
      <point x="185.58823529411765" y="426.47058823529414"/>
      <point x="117.94117647058823" y="387.05882352941177"/>
      <point x="117.94117647058823" y="306.8235294117647" type="curve" smooth="yes"/>
      <point x="117.94117647058823" y="264.11764705882354"/>
      <point x="147.88235294117646" y="208.35294117647058"/>
      <point x="240.88235294117646" y="203.1764705882353" type="curve"/>
      <point x="269.05882352941177" y="272.70588235294116" type="line"/>
      <point x="223.58823529411765" y="272.70588235294116"/>
      <point x="212.88235294117646" y="299.5882352941176"/>
      <point x="212.88235294117646" y="315.3529411764706" type="curve" smooth="yes"/>
      <point x="212.88235294117646" y="353.2352941176471"/>
      <point x="250.76470588235293" y="375.7647058823529"/>
      <point x="298.1764705882353" y="402.4117647058824" type="curve" smooth="yes"/>
      <point x="360.47058823529414" y="438.6470588235294"/>
      <point x="437.3529411764706" y="487.11764705882354"/>
      <point x="437.3529411764706" y="590.8823529411765" type="curve" smooth="yes"/>
      <point x="437.3529411764706" y="681.2941176470588"/>
      <point x="368.29411764705884" y="727.7647058823529"/>
    </contour>
    <contour>
      <point x="172.58823529411765" y="130.2941176470588" type="curve" smooth="yes"/>
      <point x="129.2941176470588" y="130.2941176470588"/>
      <point x="90.47058823529412" y="93.0"/>
      <point x="90.47058823529412" y="48.705882352941174" type="curve" smooth="yes"/>
      <point x="90.47058823529412" y="14.352941176470589"/>
      <point x="116.3529411764706" y="-12.529411764705882"/>
      <point x="152.1764705882353" y="-12.529411764705882" type="curve" smooth="yes"/>
      <point x="194.94117647058823" y="-12.529411764705882"/>
      <point x="234.8235294117647" y="25.823529411764707"/>
      <point x="234.8235294117647" y="69.11764705882354" type="curve" smooth="yes"/>
      <point x="234.8235294117647" y="103.41176470588235"/>
      <point x="208.41176470588235" y="130.2941176470588"/>
    </contour>
  </outline>
</glyph>
<glyph name="at" format="2">
  <advance width="1022.2352941176471"/>
  <unicode hex="0040"/>
  <note>
at
</note>
  <outline>
    <contour>
      <point x="553.8823529411765" y="731.7647058823529" type="curve" smooth="yes"/>
      <point x="217.58823529411765" y="731.7647058823529"/>
      <point x="47.64705882352941" y="460.88235294117646"/>
      <point x="47.64705882352941" y="204.0" type="curve" smooth="yes"/>
      <point x="47.64705882352941" y="-25.88235294117647"/>
      <point x="184.52941176470588" y="-244.23529411764707"/>
      <point x="460.88235294117646" y="-244.23529411764707" type="curve" smooth="yes"/>
      <point x="503.7647058823529" y="-244.23529411764707"/>
      <point x="544.7058823529412" y="-238.23529411764707"/>
      <point x="585.1176470588235" y="-227.76470588235293" type="curve"/>
      <point x="567.2352941176471" y="-167.23529411764707" type="line"/>
      <point x="532.2941176470588" y="-176.7058823529412"/>
      <point x="496.8235294117647" y="-181.7058823529412"/>
      <point x="460.88235294117646" y="-181.7058823529412" type="curve" smooth="yes"/>
      <point x="232.7058823529412" y="-181.7058823529412"/>
      <point x="121.11764705882354" y="2.9411764705882355"/>
      <point x="121.11764705882354" y="200.52941176470588" type="curve" smooth="yes"/>
      <point x="121.11764705882354" y="426.6470588235294"/>
      <point x="267.70588235294116" y="669.2352941176471"/>
      <point x="553.8823529411765" y="669.2352941176471" type="curve" smooth="yes"/>
      <point x="748.0588235294117" y="669.2352941176471"/>
      <point x="908.6470588235294" y="545.6470588235294"/>
      <point x="908.6470588235294" y="331.0" type="curve" smooth="yes"/>
      <point x="908.6470588235294" y="196.76470588235293"/>
      <point x="842.5882352941177" y="57.529411764705884"/>
      <point x="736.2941176470588" y="57.529411764705884" type="curve" smooth="yes"/>
      <point x="691.1176470588235" y="57.529411764705884"/>
      <point x="676.4705882352941" y="75.0"/>
      <point x="676.4705882352941" y="101.05882352941177" type="curve" smooth="yes"/>
      <point x="676.4705882352941" y="128.05882352941177"/>
      <point x="682.5294117647059" y="162.58823529411765"/>
      <point x="733.5294117647059" y="497.3529411764706" type="curve"/>
      <point x="680.5882352941177" y="497.3529411764706" type="line"/>
      <point x="656.7058823529412" y="460.4117647058824" type="line"/>
      <point x="621.7647058823529" y="494.3529411764706"/>
      <point x="576.1764705882352" y="505.8235294117647"/>
      <point x="541.5294117647059" y="505.8235294117647" type="curve" smooth="yes"/>
      <point x="371.52941176470586" y="505.8235294117647"/>
      <point x="289.5882352941176" y="344.3529411764706"/>
      <point x="289.5882352941176" y="196.76470588235293" type="curve" smooth="yes"/>
      <point x="289.5882352941176" y="83.82352941176471"/>
      <point x="335.47058823529414" y="-12.529411764705882"/>
      <point x="447.70588235294116" y="-12.529411764705882" type="curve" smooth="yes"/>
      <point x="496.52941176470586" y="-12.529411764705882"/>
      <point x="554.5294117647059" y="13.352941176470589"/>
      <point x="589.2941176470588" y="66.94117647058823" type="curve"/>
      <point x="593.2941176470588" y="66.94117647058823" type="line"/>
      <point x="618.2352941176471" y="3.7058823529411766"/>
      <point x="671.2941176470588" y="-6.470588235294118"/>
      <point x="731.8823529411765" y="-6.470588235294118" type="curve" smooth="yes"/>
      <point x="887.7058823529412" y="-6.470588235294118"/>
      <point x="982.1176470588235" y="167.0"/>
      <point x="982.1176470588235" y="331.0" type="curve" smooth="yes"/>
      <point x="982.1176470588235" y="584.8823529411765"/>
      <point x="786.7058823529412" y="731.7647058823529"/>
    </contour>
    <contour>
      <point x="545.4117647058823" y="434.4117647058824" type="curve" smooth="yes"/>
      <point x="573.0" y="434.4117647058824"/>
      <point x="598.5294117647059" y="426.4117647058824"/>
      <point x="626.0588235294117" y="409.4117647058824" type="curve"/>
      <point x="613.4117647058823" y="319.70588235294116" type="line" smooth="yes"/>
      <point x="595.0" y="189.7058823529412"/>
      <point x="553.5882352941177" y="59.94117647058823"/>
      <point x="467.0" y="59.94117647058823" type="curve" smooth="yes"/>
      <point x="410.7647058823529" y="59.94117647058823"/>
      <point x="388.5882352941176" y="123.52941176470588"/>
      <point x="388.5882352941176" y="198.7058823529412" type="curve" smooth="yes"/>
      <point x="388.5882352941176" y="323.5882352941176"/>
      <point x="439.7647058823529" y="434.4117647058824"/>
    </contour>
  </outline>
</glyph>
<glyph name="A" format="2">
  <advance width="595.5882352941177"/>
  <unicode hex="0041"/>
  <note>
A
</note>
  <anchor x="255.0" y="0.0" name="bottom"/>
  <anchor x="464.5882352941176" y="0.0" name="ogonek"/>
  <anchor x="358.0" y="727.7647058823529" name="top"/>
  <outline>
    <contour>
      <point x="408.6470588235294" y="727.7647058823529" type="line"/>
      <point x="311.7647058823529" y="727.7647058823529" type="line"/>
      <point x="-29.058823529411764" y="0.0" type="line"/>
      <point x="72.17647058823529" y="0.0" type="line"/>
      <point x="178.7058823529412" y="230.64705882352942" type="line"/>
      <point x="393.0" y="230.64705882352942" type="line"/>
      <point x="436.2352941176471" y="0.0" type="line"/>
      <point x="553.4705882352941" y="0.0" type="line"/>
    </contour>
    <contour>
      <point x="331.2352941176471" y="581.2941176470588" type="line"/>
      <point x="378.11764705882354" y="312.2352941176471" type="line"/>
      <point x="213.94117647058823" y="312.2352941176471" type="line"/>
    </contour>
  </outline>
</glyph>
<glyph name="B" format="2">
  <advance width="573.4117647058823"/>
  <unicode hex="0042"/>
  <note>
B
</note>
  <outline>
    <contour>
      <point x="549.5294117647059" y="581.0588235294117" type="curve" smooth="yes"/>
      <point x="549.5294117647059" y="697.5294117647059"/>
      <point x="449.11764705882354" y="727.7647058823529"/>
      <point x="349.88235294117646" y="727.7647058823529" type="curve" smooth="yes"/>
      <point x="115.64705882352942" y="727.7647058823529" type="line"/>
      <point x="118.47058823529412" y="664.6470588235294" type="line"/>
      <point x="29.0" y="0.0" type="line"/>
      <point x="243.41176470588235" y="0.0" type="line" smooth="yes"/>
      <point x="392.4117647058824" y="0.0"/>
      <point x="533.5294117647059" y="60.82352941176471"/>
      <point x="533.5294117647059" y="232.1764705882353" type="curve" smooth="yes"/>
      <point x="533.5294117647059" y="320.6470588235294"/>
      <point x="475.88235294117646" y="379.2352941176471"/>
      <point x="394.11764705882354" y="396.88235294117646" type="curve"/>
      <point x="483.8235294117647" y="415.6470588235294"/>
      <point x="549.5294117647059" y="488.2352941176471"/>
    </contour>
    <contour>
      <point x="433.4117647058824" y="564.8235294117648" type="curve" smooth="yes"/>
      <point x="433.4117647058824" y="482.70588235294116"/>
      <point x="376.7647058823529" y="435.94117647058823"/>
      <point x="295.29411764705884" y="435.94117647058823" type="curve" smooth="yes"/>
      <point x="197.23529411764707" y="435.94117647058823" type="line"/>
      <point x="224.88235294117646" y="644.6470588235294" type="line"/>
      <point x="333.70588235294116" y="644.6470588235294" type="line" smooth="yes"/>
      <point x="388.0" y="644.6470588235294"/>
      <point x="433.4117647058824" y="624.6470588235294"/>
    </contour>
    <contour>
      <point x="420.29411764705884" y="240.05882352941177" type="curve" smooth="yes"/>
      <point x="420.29411764705884" y="137.35294117647058"/>
      <point x="351.6470588235294" y="83.11764705882354"/>
      <point x="252.7058823529412" y="83.11764705882354" type="curve" smooth="yes"/>
      <point x="150.1764705882353" y="83.11764705882354" type="line"/>
      <point x="185.2941176470588" y="351.2352941176471" type="line"/>
      <point x="276.2352941176471" y="351.2352941176471" type="line" smooth="yes"/>
      <point x="349.0" y="351.2352941176471"/>
      <point x="420.29411764705884" y="320.8235294117647"/>
    </contour>
  </outline>
</glyph>
<glyph name="C" format="2">
  <advance width="585.9411764705883"/>
  <unicode hex="0043"/>
  <note>
C
</note>
  <anchor x="296.0" y="0.0" name="bottom"/>
  <anchor x="396.0" y="727.7647058823529" name="top"/>
  <outline>
    <contour>
      <point x="310.88235294117646" y="-10.941176470588236" type="curve" smooth="yes"/>
      <point x="396.47058823529414" y="-10.941176470588236"/>
      <point x="471.88235294117646" y="14.0"/>
      <point x="541.9411764705883" y="60.411764705882355" type="curve"/>
      <point x="511.7647058823529" y="123.41176470588235" type="line"/>
      <point x="448.0" y="88.94117647058823"/>
      <point x="386.4117647058824" y="73.0"/>
      <point x="331.11764705882354" y="73.0" type="curve" smooth="yes"/>
      <point x="207.1764705882353" y="73.0"/>
      <point x="150.47058823529412" y="185.05882352941177"/>
      <point x="150.47058823529412" y="311.70588235294116" type="curve" smooth="yes"/>
      <point x="150.47058823529412" y="473.0"/>
      <point x="243.41176470588235" y="657.4705882352941"/>
      <point x="405.94117647058823" y="657.4705882352941" type="curve" smooth="yes"/>
      <point x="459.05882352941177" y="657.4705882352941"/>
      <point x="517.4117647058823" y="636.0588235294117"/>
      <point x="553.1764705882352" y="591.4705882352941" type="curve"/>
      <point x="620.9411764705883" y="665.4705882352941" type="line"/>
      <point x="571.9411764705883" y="719.6470588235294"/>
      <point x="483.0" y="739.6470588235294"/>
      <point x="415.0" y="739.6470588235294" type="curve" smooth="yes"/>
      <point x="170.52941176470588" y="739.6470588235294"/>
      <point x="31.823529411764707" y="506.4117647058824"/>
      <point x="31.823529411764707" y="299.5882352941176" type="curve" smooth="yes"/>
      <point x="31.823529411764707" y="135.58823529411765"/>
      <point x="119.29411764705883" y="-10.941176470588236"/>
    </contour>
  </outline>
</glyph>
<glyph name="D" format="2">
  <advance width="671.9411764705883"/>
  <unicode hex="0044"/>
  <note>
D
</note>
  <anchor x="183.47058823529412" y="363.7647058823529" name="center"/>
  <anchor x="374.5882352941176" y="727.7647058823529" name="top"/>
  <outline>
    <contour>
      <point x="642.7647058823529" y="434.47058823529414" type="curve" smooth="yes"/>
      <point x="642.7647058823529" y="605.8235294117648"/>
      <point x="551.5294117647059" y="727.7647058823529"/>
      <point x="368.11764705882354" y="727.7647058823529" type="curve" smooth="yes"/>
      <point x="115.17647058823529" y="727.7647058823529" type="line"/>
      <point x="118.47058823529412" y="664.6470588235294" type="line"/>
      <point x="29.0" y="0.0" type="line"/>
      <point x="267.0" y="0.0" type="line" smooth="yes"/>
      <point x="513.6470588235294" y="0.0"/>
      <point x="642.7647058823529" y="212.8235294117647"/>
    </contour>
    <contour>
      <point x="526.1764705882352" y="426.70588235294116" type="curve" smooth="yes"/>
      <point x="526.1764705882352" y="277.52941176470586"/>
      <point x="452.94117647058823" y="83.11764705882354"/>
      <point x="273.94117647058823" y="83.11764705882354" type="curve" smooth="yes"/>
      <point x="150.1764705882353" y="83.11764705882354" type="line"/>
      <point x="224.88235294117646" y="644.6470588235294" type="line"/>
      <point x="353.0" y="644.6470588235294" type="line" smooth="yes"/>
      <point x="483.2352941176471" y="644.6470588235294"/>
      <point x="526.1764705882352" y="539.2941176470588"/>
    </contour>
  </outline>
</glyph>
<glyph name="E" format="2">
  <advance width="503.29411764705884"/>
  <unicode hex="0045"/>
  <note>
E
</note>
  <anchor x="257.29411764705884" y="0.0" name="bottom"/>
  <anchor x="365.2352941176471" y="0.0" name="ogonek"/>
  <anchor x="332.11764705882354" y="727.7647058823529" name="top"/>
  <outline>
    <contour>
      <point x="114.64705882352942" y="727.7647058823529" type="line"/>
      <point x="117.94117647058823" y="664.6470588235294" type="line"/>
      <point x="29.0" y="0.0" type="line"/>
      <point x="440.88235294117646" y="0.0" type="line"/>
      <point x="451.7647058823529" y="83.11764705882354" type="line"/>
      <point x="148.64705882352942" y="83.11764705882354" type="line"/>
      <point x="181.8235294117647" y="332.29411764705884" type="line"/>
      <point x="415.3529411764706" y="332.29411764705884" type="line"/>
      <point x="426.7647058823529" y="414.88235294117646" type="line"/>
      <point x="193.23529411764707" y="414.88235294117646" type="line"/>
      <point x="223.35294117647058" y="644.6470588235294" type="line"/>
      <point x="526.9411764705883" y="644.6470588235294" type="line"/>
      <point x="538.3529411764706" y="727.7647058823529" type="line"/>
    </contour>
  </outline>
</glyph>
<glyph name="F" format="2">
  <advance width="467.52941176470586"/>
  <unicode hex="0046"/>
  <note>
F
</note>
  <outline>
    <contour>
      <point x="114.58823529411765" y="727.7647058823529" type="line"/>
      <point x="117.41176470588235" y="664.6470588235294" type="line"/>
      <point x="28.470588235294116" y="0.0" type="line"/>
      <point x="137.23529411764707" y="0.0" type="line"/>
      <point x="182.2941176470588" y="332.8235294117647" type="line"/>
      <point x="395.88235294117646" y="332.8235294117647" type="line"/>
      <point x="407.29411764705884" y="415.4117647058824" type="line"/>
      <point x="193.7058823529412" y="415.4117647058824" type="line"/>
      <point x="223.8235294117647" y="644.6470588235294" type="line"/>
      <point x="496.4117647058824" y="644.6470588235294" type="line"/>
      <point x="507.29411764705884" y="727.7647058823529" type="line"/>
    </contour>
  </outline>
</glyph>
<glyph name="G" format="2">
  <advance width="667.4705882352941"/>
  <unicode hex="0047"/>
  <note>
G
</note>
  <anchor x="299.3529411764706" y="0.0" name="bottom"/>
  <anchor x="403.3529411764706" y="727.7647058823529" name="top"/>
  <outline>
    <contour>
      <point x="422.0" y="738.7058823529412" type="curve" smooth="yes"/>
      <point x="166.8235294117647" y="738.7058823529412"/>
      <point x="31.823529411764707" y="513.7647058823529"/>
      <point x="31.823529411764707" y="282.4117647058824" type="curve" smooth="yes"/>
      <point x="31.823529411764707" y="118.70588235294117"/>
      <point x="112.11764705882354" y="-10.470588235294118"/>
      <point x="290.52941176470586" y="-10.470588235294118" type="curve" smooth="yes"/>
      <point x="375.7647058823529" y="-10.470588235294118"/>
      <point x="441.0" y="17.529411764705884"/>
      <point x="504.7647058823529" y="75.0" type="curve"/>
      <point x="524.7058823529412" y="-0.47058823529411764" type="line"/>
      <point x="582.1176470588235" y="-0.47058823529411764" type="line"/>
      <point x="593.1176470588235" y="128.41176470588235"/>
      <point x="608.9411764705883" y="252.58823529411765"/>
      <point x="627.9411764705883" y="381.0" type="curve"/>
      <point x="359.94117647058823" y="381.0" type="line"/>
      <point x="350.0" y="303.5882352941176" type="line"/>
      <point x="507.2352941176471" y="303.5882352941176" type="line"/>
      <point x="499.2352941176471" y="240.0" type="line" smooth="yes"/>
      <point x="487.1764705882353" y="150.0"/>
      <point x="416.88235294117646" y="74.41176470588235"/>
      <point x="319.70588235294116" y="74.41176470588235" type="curve" smooth="yes"/>
      <point x="189.8235294117647" y="74.41176470588235"/>
      <point x="148.47058823529412" y="187.94117647058823"/>
      <point x="148.47058823529412" y="299.52941176470586" type="curve" smooth="yes"/>
      <point x="148.47058823529412" y="460.4117647058824"/>
      <point x="223.76470588235293" y="657.9411764705883"/>
      <point x="411.11764705882354" y="657.9411764705883" type="curve" smooth="yes"/>
      <point x="486.0" y="657.9411764705883"/>
      <point x="525.9411764705883" y="638.3529411764706"/>
      <point x="579.2352941176471" y="587.7647058823529" type="curve"/>
      <point x="647.0588235294117" y="657.5882352941177" type="line"/>
      <point x="597.0588235294117" y="717.1764705882352"/>
      <point x="492.3529411764706" y="738.7058823529412"/>
    </contour>
  </outline>
</glyph>
<glyph name="H" format="2">
  <advance width="672.9411764705883"/>
  <unicode hex="0048"/>
  <note>
H
</note>
  <anchor x="282.5882352941176" y="0.0" name="bottom"/>
  <anchor x="367.5882352941176" y="558.0" name="center"/>
  <anchor x="386.5882352941176" y="727.7647058823529" name="top"/>
  <outline>
    <contour>
      <point x="451.52941176470586" y="0.0" type="line"/>
      <point x="561.2941176470588" y="0.0" type="line"/>
      <point x="659.2941176470588" y="727.7647058823529" type="line"/>
      <point x="549.5294117647059" y="727.7647058823529" type="line"/>
      <point x="508.0" y="417.52941176470586" type="line"/>
      <point x="193.76470588235293" y="417.52941176470586" type="line"/>
      <point x="235.2941176470588" y="727.7647058823529" type="line"/>
      <point x="115.11764705882354" y="727.7647058823529" type="line"/>
      <point x="117.94117647058823" y="664.6470588235294" type="line"/>
      <point x="28.470588235294116" y="0.0" type="line"/>
      <point x="137.76470588235293" y="0.0" type="line"/>
      <point x="182.35294117647058" y="334.94117647058823" type="line"/>
      <point x="496.5882352941176" y="334.94117647058823" type="line"/>
    </contour>
  </outline>
</glyph>
<glyph name="I" format="2">
  <advance width="250.52941176470588"/>
  <unicode hex="0049"/>
  <note>
I
</note>
  <anchor x="85.3529411764706" y="0.0" name="bottom"/>
  <anchor x="69.82352941176471" y="0.0" name="ogonek"/>
  <anchor x="179.35294117647058" y="727.7647058823529" name="top"/>
  <outline>
    <contour>
      <point x="116.70588235294117" y="727.7647058823529" type="line"/>
      <point x="119.52941176470588" y="664.6470588235294" type="line"/>
      <point x="30.058823529411764" y="0.0" type="line"/>
      <point x="139.35294117647058" y="0.0" type="line"/>
      <point x="236.88235294117646" y="727.7647058823529" type="line"/>
    </contour>
  </outline>
</glyph>
<glyph name="J" format="2">
  <advance width="253.47058823529412"/>
  <unicode hex="004A"/>
  <note>
J
</note>
  <anchor x="182.05882352941177" y="727.7647058823529" name="top"/>
  <outline>
    <contour>
      <point x="120.17647058823529" y="727.7647058823529" type="line"/>
      <point x="123.0" y="664.1176470588235" type="line"/>
      <point x="39.529411764705884" y="46.470588235294116" type="line" smooth="yes"/>
      <point x="28.529411764705884" y="-36.11764705882353"/>
      <point x="5.882352941176471" y="-138.05882352941177"/>
      <point x="-97.3529411764706" y="-151.64705882352942" type="curve"/>
      <point x="-92.6470588235294" y="-215.88235294117646" type="line"/>
      <point x="87.3529411764706" y="-203.7058823529412"/>
      <point x="130.64705882352942" y="-81.11764705882354"/>
      <point x="151.05882352941177" y="71.52941176470588" type="curve" smooth="yes"/>
      <point x="240.35294117647058" y="727.7647058823529" type="line"/>
    </contour>
  </outline>
</glyph>
<glyph name="K" format="2">
  <advance width="558.0"/>
  <unicode hex="004B"/>
  <note>
K
</note>
  <anchor x="253.05882352941177" y="0.0" name="bottom"/>
  <outline>
    <contour>
      <point x="235.2941176470588" y="727.7647058823529" type="line"/>
      <point x="115.11764705882354" y="727.7647058823529" type="line"/>
      <point x="117.94117647058823" y="664.6470588235294" type="line"/>
      <point x="28.470588235294116" y="0.0" type="line"/>
      <point x="137.76470588235293" y="0.0" type="line"/>
    </contour>
    <contour>
      <point x="479.52941176470586" y="727.7647058823529" type="line"/>
      <point x="223.23529411764707" y="385.8235294117647" type="line"/>
      <point x="387.70588235294116" y="0.0" type="line"/>
      <point x="509.11764705882354" y="0.0" type="line"/>
      <point x="338.6470588235294" y="397.88235294117646" type="line"/>
      <point x="587.6470588235294" y="727.7647058823529" type="line"/>
    </contour>
  </outline>
</glyph>
<glyph name="L" format="2">
  <advance width="464.88235294117646"/>
  <unicode hex="004C"/>
  <note>
L
</note>
  <anchor x="238.88235294117646" y="0.0" name="bottom"/>
  <anchor x="134.41176470588235" y="360.6470588235294" name="center"/>
  <anchor x="173.8235294117647" y="727.7647058823529" name="top"/>
  <anchor x="186.94117647058823" y="492.94117647058823" name="topright"/>
  <outline>
    <contour>
      <point x="236.8235294117647" y="727.7647058823529" type="line"/>
      <point x="116.11764705882354" y="727.7647058823529" type="line"/>
      <point x="118.47058823529412" y="664.6470588235294" type="line"/>
      <point x="29.0" y="0.0" type="line"/>
      <point x="420.29411764705884" y="0.0" type="line"/>
      <point x="431.70588235294116" y="83.11764705882354" type="line"/>
      <point x="150.7058823529412" y="83.11764705882354" type="line"/>
    </contour>
  </outline>
</glyph>
<glyph name="M" format="2">
  <advance width="808.2941176470588"/>
  <unicode hex="004D"/>
  <note>
M
</note>
  <outline>
    <contour>
      <point x="270.5882352941176" y="727.7647058823529" type="line"/>
      <point x="114.58823529411765" y="727.7647058823529" type="line"/>
      <point x="116.94117647058823" y="665.1764705882352" type="line"/>
      <point x="28.470588235294116" y="0.0" type="line"/>
      <point x="118.41176470588235" y="0.0" type="line"/>
      <point x="185.94117647058823" y="497.5882352941176" type="line" smooth="yes"/>
      <point x="189.47058823529412" y="524.7647058823529"/>
      <point x="191.58823529411765" y="552.9411764705883"/>
      <point x="194.1764705882353" y="584.9411764705883" type="curve"/>
      <point x="199.2941176470588" y="550.1176470588235"/>
      <point x="206.7058823529412" y="517.7058823529412"/>
      <point x="211.35294117647058" y="497.5882352941176" type="curve" smooth="yes"/>
      <point x="319.8235294117647" y="-1.5294117647058822" type="line"/>
      <point x="389.29411764705884" y="-1.5294117647058822" type="line"/>
      <point x="629.0" y="498.6470588235294" type="line" smooth="yes"/>
      <point x="642.0588235294117" y="525.2941176470588"/>
      <point x="654.7058823529412" y="552.4705882352941"/>
      <point x="666.8235294117648" y="584.4117647058823" type="curve"/>
      <point x="662.8235294117648" y="552.9411764705883"/>
      <point x="657.4117647058823" y="525.2941176470588"/>
      <point x="653.8823529411765" y="498.6470588235294" type="curve" smooth="yes"/>
      <point x="587.3529411764706" y="0.0" type="line"/>
      <point x="696.6470588235294" y="0.0" type="line"/>
      <point x="794.6470588235294" y="727.7647058823529" type="line"/>
      <point x="644.1764705882352" y="727.7647058823529" type="line"/>
      <point x="423.52941176470586" y="267.8235294117647" type="line" smooth="yes"/>
      <point x="408.70588235294116" y="237.7058823529412"/>
      <point x="397.1764705882353" y="208.05882352941177"/>
      <point x="384.1764705882353" y="169.35294117647058" type="curve"/>
      <point x="381.11764705882354" y="206.64705882352942"/>
      <point x="378.47058823529414" y="237.64705882352942"/>
      <point x="371.5882352941176" y="269.1764705882353" type="curve" smooth="yes"/>
    </contour>
  </outline>
</glyph>
<glyph name="N" format="2">
  <advance width="677.7647058823529"/>
  <unicode hex="004E"/>
  <note>
N
</note>
  <anchor x="301.0" y="0.0" name="bottom"/>
  <anchor x="393.2352941176471" y="727.7647058823529" name="top"/>
  <outline>
    <contour>
      <point x="250.8235294117647" y="727.7647058823529" type="line"/>
      <point x="115.64705882352942" y="727.7647058823529" type="line"/>
      <point x="118.0" y="664.6470588235294" type="line"/>
      <point x="29.0" y="0.0" type="line"/>
      <point x="119.0" y="0.0" type="line"/>
      <point x="189.1764705882353" y="522.4117647058823" type="line" smooth="yes"/>
      <point x="192.1764705882353" y="543.9411764705883"/>
      <point x="193.2941176470588" y="567.4117647058823"/>
      <point x="195.35294117647058" y="594.7058823529412" type="curve"/>
      <point x="205.35294117647058" y="567.9411764705883"/>
      <point x="215.35294117647058" y="546.5294117647059"/>
      <point x="225.8235294117647" y="525.0588235294117" type="curve" smooth="yes"/>
      <point x="484.5882352941176" y="-5.0" type="line"/>
      <point x="565.1176470588235" y="-5.0" type="line"/>
      <point x="663.5882352941177" y="727.7647058823529" type="line"/>
      <point x="572.7058823529412" y="727.7647058823529" type="line"/>
      <point x="511.47058823529414" y="274.88235294117646" type="line" smooth="yes"/>
      <point x="508.47058823529414" y="251.47058823529412"/>
      <point x="507.3529411764706" y="227.11764705882354"/>
      <point x="504.8235294117647" y="198.41176470588235" type="curve"/>
      <point x="493.3529411764706" y="228.58823529411765"/>
      <point x="482.8235294117647" y="252.52941176470588"/>
      <point x="473.70588235294116" y="271.29411764705884" type="curve" smooth="yes"/>
    </contour>
  </outline>
</glyph>
<glyph name="O" format="2">
  <advance width="707.5294117647059"/>
  <unicode hex="004F"/>
  <note>
O
</note>
  <anchor x="320.1764705882353" y="0.0" name="bottom"/>
  <anchor x="357.1764705882353" y="363.0" name="center"/>
  <anchor x="360.05882352941177" y="0.0" name="ogonek"/>
  <anchor x="408.1764705882353" y="727.7647058823529" name="top"/>
  <anchor x="440.1764705882353" y="727.7647058823529" name="topright"/>
  <outline>
    <contour>
      <point x="302.11764705882354" y="-10.470588235294118" type="curve" smooth="yes"/>
      <point x="547.4117647058823" y="-10.470588235294118"/>
      <point x="678.3529411764706" y="212.7058823529412"/>
      <point x="678.3529411764706" y="438.47058823529414" type="curve" smooth="yes"/>
      <point x="678.3529411764706" y="611.9411764705883"/>
      <point x="590.0" y="738.2352941176471"/>
      <point x="404.1764705882353" y="738.2352941176471" type="curve" smooth="yes"/>
      <point x="159.8235294117647" y="738.2352941176471"/>
      <point x="31.823529411764707" y="511.88235294117646"/>
      <point x="31.823529411764707" y="291.8235294117647" type="curve" smooth="yes"/>
      <point x="31.823529411764707" y="122.29411764705883"/>
      <point x="118.29411764705883" y="-10.470588235294118"/>
    </contour>
    <contour>
      <point x="316.52941176470586" y="70.76470588235294" type="curve" smooth="yes"/>
      <point x="186.7058823529412" y="70.76470588235294"/>
      <point x="148.0" y="182.94117647058823"/>
      <point x="148.0" y="294.29411764705884" type="curve" smooth="yes"/>
      <point x="148.0" y="444.29411764705884"/>
      <point x="213.88235294117646" y="657.0"/>
      <point x="394.2352941176471" y="657.0" type="curve" smooth="yes"/>
      <point x="523.5294117647059" y="657.0"/>
      <point x="562.2352941176471" y="545.8235294117648"/>
      <point x="562.2352941176471" y="433.47058823529414" type="curve" smooth="yes"/>
      <point x="562.2352941176471" y="283.47058823529414"/>
      <point x="497.88235294117646" y="70.76470588235294"/>
    </contour>
  </outline>
</glyph>
<glyph name="P" format="2">
  <advance width="539.0"/>
  <unicode hex="0050"/>
  <note>
P
</note>
  <outline>
    <contour>
      <point x="116.17647058823529" y="727.7647058823529" type="line"/>
      <point x="119.0" y="664.6470588235294" type="line"/>
      <point x="29.529411764705884" y="0.0" type="line"/>
      <point x="139.35294117647058" y="0.0" type="line"/>
      <point x="177.8235294117647" y="289.7647058823529" type="line"/>
      <point x="269.11764705882354" y="289.7647058823529" type="line" smooth="yes"/>
      <point x="427.05882352941177" y="289.7647058823529"/>
      <point x="542.5882352941177" y="380.88235294117646"/>
      <point x="542.5882352941177" y="542.0588235294117" type="curve" smooth="yes"/>
      <point x="542.5882352941177" y="677.4705882352941"/>
      <point x="442.4117647058824" y="727.7647058823529"/>
      <point x="324.47058823529414" y="727.7647058823529" type="curve" smooth="yes"/>
    </contour>
    <contour>
      <point x="225.94117647058823" y="644.6470588235294" type="line"/>
      <point x="316.47058823529414" y="644.6470588235294" type="line" smooth="yes"/>
      <point x="387.52941176470586" y="644.6470588235294"/>
      <point x="427.4117647058824" y="605.8823529411765"/>
      <point x="427.4117647058824" y="534.8235294117648" type="curve" smooth="yes"/>
      <point x="427.4117647058824" y="447.70588235294116"/>
      <point x="373.94117647058823" y="370.88235294117646"/>
      <point x="280.29411764705884" y="370.88235294117646" type="curve" smooth="yes"/>
      <point x="189.7058823529412" y="370.88235294117646" type="line"/>
    </contour>
  </outline>
</glyph>
<glyph name="Q" format="2">
  <advance width="707.5294117647059"/>
  <unicode hex="0051"/>
  <note>
Q
</note>
  <outline>
    <contour>
      <point x="1077.4117647058824" y="-167.94117647058823" type="curve"/>
      <point x="1058.1764705882354" y="-108.70588235294117" type="line"/>
      <point x="1005.9411764705883" y="-123.76470588235294"/>
      <point x="935.1176470588235" y="-141.05882352941177"/>
      <point x="883.4705882352941" y="-141.05882352941177" type="curve" smooth="yes"/>
      <point x="764.7058823529412" y="-141.05882352941177"/>
      <point x="604.8235294117648" y="-59.705882352941174"/>
      <point x="496.29411764705884" y="-1.0588235294117645" type="curve" smooth="yes"/>
      <point x="481.2352941176471" y="7.529411764705882"/>
      <point x="463.47058823529414" y="15.117647058823529"/>
      <point x="447.3529411764706" y="21.176470588235293" type="curve"/>
      <point x="603.7058823529412" y="92.82352941176471"/>
      <point x="678.3529411764706" y="265.70588235294116"/>
      <point x="678.3529411764706" y="435.6470588235294" type="curve" smooth="yes"/>
      <point x="678.3529411764706" y="607.2352941176471"/>
      <point x="591.8823529411765" y="738.7058823529412"/>
      <point x="406.05882352941177" y="738.7058823529412" type="curve" smooth="yes"/>
      <point x="160.76470588235293" y="738.7058823529412"/>
      <point x="31.823529411764707" y="509.52941176470586"/>
      <point x="31.823529411764707" y="289.47058823529414" type="curve" smooth="yes"/>
      <point x="31.823529411764707" y="131.23529411764707"/>
      <point x="101.88235294117646" y="13.647058823529411"/>
      <point x="273.88235294117646" y="-11.705882352941178" type="curve" smooth="yes"/>
      <point x="305.4117647058824" y="-17.470588235294116"/>
      <point x="341.2352941176471" y="-24.0"/>
      <point x="376.05882352941177" y="-39.88235294117647" type="curve" smooth="yes"/>
      <point x="510.52941176470586" y="-100.76470588235294"/>
      <point x="680.0" y="-219.1764705882353"/>
      <point x="836.7647058823529" y="-219.1764705882353" type="curve" smooth="yes"/>
      <point x="926.9411764705883" y="-219.1764705882353"/>
      <point x="993.0588235294117" y="-197.35294117647058"/>
    </contour>
    <contour>
      <point x="317.0" y="71.23529411764706" type="curve" smooth="yes"/>
      <point x="188.11764705882354" y="71.23529411764706"/>
      <point x="148.47058823529412" y="182.94117647058823"/>
      <point x="148.47058823529412" y="293.8235294117647" type="curve" smooth="yes"/>
      <point x="148.47058823529412" y="441.94117647058823"/>
      <point x="217.1764705882353" y="657.0"/>
      <point x="395.1764705882353" y="657.0" type="curve" smooth="yes"/>
      <point x="524.0" y="657.0"/>
      <point x="563.1764705882352" y="543.9411764705883"/>
      <point x="563.1764705882352" y="432.52941176470586" type="curve" smooth="yes"/>
      <point x="563.1764705882352" y="283.0"/>
      <point x="496.47058823529414" y="71.23529411764706"/>
    </contour>
  </outline>
</glyph>
<glyph name="R" format="2">
  <advance width="566.5882352941177"/>
  <unicode hex="0052"/>
  <note>
R
</note>
  <anchor x="254.2941176470588" y="0.0" name="bottom"/>
  <anchor x="316.8235294117647" y="727.7647058823529" name="top"/>
  <outline>
    <contour>
      <point x="138.2941176470588" y="0.0" type="line"/>
      <point x="224.41176470588235" y="644.1764705882352" type="line"/>
      <point x="320.6470588235294" y="644.1764705882352" type="line" smooth="yes"/>
      <point x="389.5882352941176" y="644.1764705882352"/>
      <point x="434.3529411764706" y="610.4705882352941"/>
      <point x="434.3529411764706" y="539.9411764705883" type="curve" smooth="yes"/>
      <point x="434.3529411764706" y="432.88235294117646"/>
      <point x="359.52941176470586" y="377.1764705882353"/>
      <point x="255.58823529411765" y="377.1764705882353" type="curve" smooth="yes"/>
      <point x="228.41176470588235" y="377.1764705882353" type="line"/>
      <point x="414.0" y="0.0" type="line"/>
      <point x="534.4705882352941" y="0.0" type="line"/>
      <point x="378.6470588235294" y="314.88235294117646" type="line"/>
      <point x="475.52941176470586" y="347.70588235294116"/>
      <point x="549.5294117647059" y="428.1764705882353"/>
      <point x="549.5294117647059" y="545.6470588235294" type="curve" smooth="yes"/>
      <point x="549.5294117647059" y="673.3529411764706"/>
      <point x="455.0" y="727.7647058823529"/>
      <point x="342.4117647058824" y="727.7647058823529" type="curve" smooth="yes"/>
      <point x="115.11764705882354" y="727.7647058823529" type="line"/>
      <point x="117.94117647058823" y="664.6470588235294" type="line"/>
      <point x="28.470588235294116" y="0.0" type="line"/>
    </contour>
  </outline>
</glyph>
<glyph name="S" format="2">
  <advance width="501.3529411764706"/>
  <unicode hex="0053"/>
  <note>
S
</note>
  <anchor x="215.05882352941177" y="0.0" name="bottom"/>
  <anchor x="312.05882352941177" y="727.7647058823529" name="top"/>
  <outline>
    <contour>
      <point x="335.6470588235294" y="738.7058823529412" type="curve" smooth="yes"/>
      <point x="200.35294117647058" y="738.7058823529412"/>
      <point x="77.29411764705883" y="671.2352941176471"/>
      <point x="77.29411764705883" y="525.1176470588235" type="curve" smooth="yes"/>
      <point x="77.29411764705883" y="333.4117647058824"/>
      <point x="341.88235294117646" y="349.2352941176471"/>
      <point x="341.88235294117646" y="206.11764705882354" type="curve" smooth="yes"/>
      <point x="341.88235294117646" y="129.94117647058823"/>
      <point x="272.5882352941176" y="70.76470588235294"/>
      <point x="198.2941176470588" y="70.76470588235294" type="curve" smooth="yes"/>
      <point x="134.05882352941177" y="70.76470588235294"/>
      <point x="90.29411764705883" y="94.47058823529412"/>
      <point x="41.294117647058826" y="136.88235294117646" type="curve"/>
      <point x="-10.588235294117645" y="46.35294117647059" type="line"/>
      <point x="51.35294117647059" y="8.117647058823529"/>
      <point x="125.47058823529412" y="-10.941176470588236"/>
      <point x="195.7058823529412" y="-10.941176470588236" type="curve" smooth="yes"/>
      <point x="337.8235294117647" y="-10.941176470588236"/>
      <point x="458.94117647058823" y="82.3529411764706"/>
      <point x="458.94117647058823" y="229.94117647058823" type="curve" smooth="yes"/>
      <point x="458.94117647058823" y="429.2352941176471"/>
      <point x="193.76470588235293" y="417.70588235294116"/>
      <point x="193.76470588235293" y="550.0" type="curve" smooth="yes"/>
      <point x="193.76470588235293" y="618.3529411764706"/>
      <point x="255.2941176470588" y="657.0"/>
      <point x="319.70588235294116" y="657.0" type="curve" smooth="yes"/>
      <point x="366.8235294117647" y="657.0"/>
      <point x="416.88235294117646" y="639.2941176470588"/>
      <point x="453.1764705882353" y="606.2941176470588" type="curve"/>
      <point x="503.1764705882353" y="685.5882352941177" type="line"/>
      <point x="459.4117647058824" y="719.0"/>
      <point x="390.29411764705884" y="738.7058823529412"/>
    </contour>
  </outline>
</glyph>
<glyph name="T" format="2">
  <advance width="518.2352941176471"/>
  <unicode hex="0054"/>
  <note>
T
</note>
  <anchor x="204.47058823529412" y="0.0" name="bottom"/>
  <anchor x="256.47058823529414" y="366.0" name="center"/>
  <anchor x="306.47058823529414" y="727.7647058823529" name="top"/>
  <outline>
    <contour>
      <point x="46.705882352941174" y="727.7647058823529" type="line"/>
      <point x="35.294117647058826" y="644.6470588235294" type="line"/>
      <point x="236.2941176470588" y="644.6470588235294" type="line"/>
      <point x="150.1764705882353" y="0.0" type="line"/>
      <point x="262.3529411764706" y="0.0" type="line"/>
      <point x="348.94117647058823" y="644.6470588235294" type="line"/>
      <point x="551.3529411764706" y="644.6470588235294" type="line"/>
      <point x="562.7058823529412" y="727.7647058823529" type="line"/>
    </contour>
  </outline>
</glyph>
<glyph name="U" format="2">
  <advance width="647.8823529411765"/>
  <unicode hex="0055"/>
  <note>
U
</note>
  <anchor x="274.2352941176471" y="0.0" name="bottom"/>
  <anchor x="333.6470588235294" y="0.0" name="ogonek"/>
  <anchor x="382.7647058823529" y="727.7647058823529" name="top"/>
  <anchor x="471.2352941176471" y="743.2352941176471" name="topright"/>
  <outline>
    <contour>
      <point x="219.1764705882353" y="727.7647058823529" type="line"/>
      <point x="96.11764705882354" y="727.7647058823529" type="line"/>
      <point x="99.41176470588235" y="665.6470588235294" type="line"/>
      <point x="44.8235294117647" y="260.0" type="line" smooth="yes"/>
      <point x="42.35294117647059" y="240.58823529411765"/>
      <point x="40.8235294117647" y="221.64705882352942"/>
      <point x="40.8235294117647" y="203.2941176470588" type="curve" smooth="yes"/>
      <point x="40.8235294117647" y="72.52941176470588"/>
      <point x="112.82352941176471" y="-10.470588235294118"/>
      <point x="270.8235294117647" y="-10.470588235294118" type="curve" smooth="yes"/>
      <point x="467.88235294117646" y="-10.470588235294118"/>
      <point x="550.2941176470588" y="105.70588235294117"/>
      <point x="572.1764705882352" y="266.88235294117646" type="curve" smooth="yes"/>
      <point x="634.7647058823529" y="727.7647058823529" type="line"/>
      <point x="545.2352941176471" y="727.7647058823529" type="line"/>
      <point x="480.8235294117647" y="251.88235294117646" type="line" smooth="yes"/>
      <point x="467.1764705882353" y="148.35294117647058"/>
      <point x="401.6470588235294" y="70.76470588235294"/>
      <point x="289.88235294117646" y="70.76470588235294" type="curve" smooth="yes"/>
      <point x="196.23529411764707" y="70.76470588235294"/>
      <point x="151.64705882352942" y="126.58823529411765"/>
      <point x="151.64705882352942" y="207.52941176470588" type="curve" smooth="yes"/>
      <point x="151.64705882352942" y="219.1764705882353"/>
      <point x="152.64705882352942" y="230.2941176470588"/>
      <point x="154.1764705882353" y="243.0" type="curve" smooth="yes"/>
    </contour>
  </outline>
</glyph>
<glyph name="V" format="2">
  <advance width="538.2352941176471"/>
  <unicode hex="0056"/>
  <note>
V
</note>
  <outline>
    <contour>
      <point x="155.47058823529412" y="727.7647058823529" type="curve"/>
      <point x="39.76470588235294" y="727.7647058823529" type="line"/>
      <point x="180.76470588235293" y="-2.0588235294117645" type="line"/>
      <point x="258.4117647058824" y="-2.0588235294117645" type="line"/>
      <point x="595.8823529411765" y="727.7647058823529" type="line"/>
      <point x="496.7647058823529" y="727.7647058823529" type="line"/>
      <point x="414.94117647058823" y="543.8823529411765"/>
      <point x="320.5882352941176" y="359.0"/>
      <point x="251.8235294117647" y="175.11764705882354" type="curve"/>
      <point x="227.94117647058823" y="359.0"/>
      <point x="187.58823529411765" y="543.8823529411765"/>
    </contour>
  </outline>
</glyph>
<glyph name="W" format="2">
  <advance width="832.6470588235294"/>
  <unicode hex="0057"/>
  <note>
W
</note>
  <anchor x="473.94117647058823" y="727.7647058823529" name="top"/>
  <outline>
    <contour>
      <point x="154.0" y="727.7647058823529" type="curve"/>
      <point x="39.76470588235294" y="727.7647058823529" type="line"/>
      <point x="133.8235294117647" y="-2.5294117647058822" type="line"/>
      <point x="234.58823529411765" y="-2.5294117647058822" type="line"/>
      <point x="327.3529411764706" y="231.8235294117647"/>
      <point x="379.7647058823529" y="353.70588235294116"/>
      <point x="440.11764705882354" y="538.1764705882352" type="curve"/>
      <point x="452.52941176470586" y="355.11764705882354"/>
      <point x="471.88235294117646" y="238.88235294117646"/>
      <point x="502.47058823529414" y="-2.5294117647058822" type="curve"/>
      <point x="604.1764705882352" y="-2.5294117647058822" type="line"/>
      <point x="889.7647058823529" y="727.7647058823529" type="line"/>
      <point x="797.8823529411765" y="727.7647058823529" type="line"/>
      <point x="702.7058823529412" y="485.11764705882354"/>
      <point x="647.8823529411765" y="356.88235294117646"/>
      <point x="585.9411764705883" y="169.2941176470588" type="curve"/>
      <point x="575.5294117647059" y="342.29411764705884"/>
      <point x="553.2941176470588" y="483.2352941176471"/>
      <point x="522.2352941176471" y="727.7647058823529" type="curve"/>
      <point x="429.1764705882353" y="727.7647058823529" type="line"/>
      <point x="334.0" y="487.94117647058823"/>
      <point x="275.0" y="352.1764705882353"/>
      <point x="219.1764705882353" y="169.2941176470588" type="curve"/>
      <point x="204.88235294117646" y="344.6470588235294"/>
      <point x="185.05882352941177" y="482.29411764705884"/>
    </contour>
  </outline>
</glyph>
<glyph name="X" format="2">
  <advance width="554.8823529411765"/>
  <unicode hex="0058"/>
  <note>
X
</note>
  <outline>
    <contour>
      <point x="474.70588235294116" y="727.7647058823529" type="line"/>
      <point x="-41.0" y="0.0" type="line"/>
      <point x="80.11764705882354" y="0.0" type="line"/>
      <point x="595.8823529411765" y="727.7647058823529" type="line"/>
    </contour>
    <contour>
      <point x="201.94117647058823" y="727.7647058823529" type="line"/>
      <point x="76.88235294117646" y="727.7647058823529" type="line"/>
      <point x="392.3529411764706" y="0.0" type="line"/>
      <point x="518.4705882352941" y="0.0" type="line"/>
    </contour>
  </outline>
</glyph>
<glyph name="Y" format="2">
  <advance width="498.6470588235294"/>
  <unicode hex="0059"/>
  <note>
Y
</note>
  <anchor x="203.11764705882354" y="0.0" name="bottom"/>
  <anchor x="304.11764705882354" y="727.7647058823529" name="top"/>
  <outline>
    <contour>
      <point x="161.94117647058823" y="727.7647058823529" type="line"/>
      <point x="38.705882352941174" y="727.7647058823529" type="line"/>
      <point x="191.94117647058823" y="345.3529411764706" type="line"/>
      <point x="146.2941176470588" y="0.0" type="line"/>
      <point x="255.64705882352942" y="0.0" type="line"/>
      <point x="301.7647058823529" y="343.4117647058824" type="line"/>
      <point x="556.8235294117648" y="727.7647058823529" type="line"/>
      <point x="451.1764705882353" y="727.7647058823529" type="line"/>
      <point x="271.70588235294116" y="457.1764705882353" type="line"/>
    </contour>
  </outline>
</glyph>
<glyph name="Z" format="2">
  <advance width="538.5882352941177"/>
  <unicode hex="005A"/>
  <note>
Z
</note>
  <anchor x="323.05882352941177" y="727.7647058823529" name="top"/>
  <outline>
    <contour>
      <point x="97.70588235294117" y="727.7647058823529" type="line"/>
      <point x="86.82352941176471" y="644.6470588235294" type="line"/>
      <point x="405.05882352941177" y="644.6470588235294" type="line"/>
      <point x="-12.235294117647058" y="74.05882352941177" type="line"/>
      <point x="-17.0" y="0.0" type="line"/>
      <point x="466.2352941176471" y="0.0" type="line"/>
      <point x="481.29411764705884" y="83.11764705882354" type="line"/>
      <point x="129.58823529411765" y="83.11764705882354" type="line"/>
      <point x="548.2941176470588" y="657.9411764705883" type="line"/>
      <point x="553.0588235294117" y="727.7647058823529" type="line"/>
    </contour>
  </outline>
</glyph>
<glyph name="bracketleft" format="2">
  <advance width="324.0"/>
  <unicode hex="005B"/>
  <note>
bracketleft
</note>
  <outline>
    <contour>
      <point x="237.2941176470588" y="674.0588235294117" type="line"/>
      <point x="345.05882352941177" y="674.0588235294117" type="line"/>
      <point x="352.52941176470586" y="727.7647058823529" type="line"/>
      <point x="150.2941176470588" y="727.7647058823529" type="line"/>
      <point x="31.647058823529413" y="-130.94117647058823" type="line"/>
      <point x="233.88235294117646" y="-130.94117647058823" type="line"/>
      <point x="241.88235294117646" y="-77.23529411764706" type="line"/>
      <point x="134.11764705882354" y="-77.23529411764706" type="line"/>
    </contour>
  </outline>
</glyph>
<glyph name="backslash" format="2">
  <advance width="359.0"/>
  <unicode hex="005C"/>
  <note>
backslash
</note>
  <outline>
    <contour>
      <point x="-5.8235294117647065" y="727.7647058823529" type="line"/>
      <point x="254.1764705882353" y="0.0" type="line"/>
      <point x="332.29411764705884" y="0.0" type="line"/>
      <point x="73.41176470588235" y="727.7647058823529" type="line"/>
    </contour>
  </outline>
</glyph>
<glyph name="bracketright" format="2">
  <advance width="319.47058823529414"/>
  <unicode hex="005D"/>
  <note>
bracketright
</note>
  <outline>
    <contour>
      <point x="-10.941176470588236" y="-129.88235294117646" type="line"/>
      <point x="191.2941176470588" y="-129.88235294117646" type="line"/>
      <point x="309.47058823529414" y="727.7647058823529" type="line"/>
      <point x="107.23529411764706" y="727.7647058823529" type="line"/>
      <point x="99.70588235294117" y="674.5882352941177" type="line"/>
      <point x="207.52941176470588" y="674.5882352941177" type="line"/>
      <point x="104.82352941176471" y="-76.17647058823529" type="line"/>
      <point x="-2.9411764705882355" y="-76.17647058823529" type="line"/>
    </contour>
  </outline>
</glyph>
<glyph name="asciicircum" format="2">
  <advance width="618.0"/>
  <unicode hex="005E"/>
  <note>
asciicircum
</note>
  <outline>
    <contour>
      <point x="329.1764705882353" y="384.94117647058823" type="line"/>
      <point x="448.2352941176471" y="0.0" type="line"/>
      <point x="531.2941176470588" y="0.0" type="line"/>
      <point x="375.29411764705884" y="494.29411764705884" type="line"/>
      <point x="312.1764705882353" y="494.29411764705884" type="line"/>
      <point x="17.235294117647058" y="0.0" type="line"/>
      <point x="99.41176470588235" y="0.0" type="line"/>
    </contour>
  </outline>
</glyph>
<glyph name="underscore" format="2">
  <advance width="477.52941176470586"/>
  <unicode hex="005F"/>
  <note>
underscore
</note>
  <outline>
    <contour>
      <point x="-16.764705882352942" y="-135.05882352941177" type="line"/>
      <point x="482.7647058823529" y="-135.05882352941177" type="line"/>
      <point x="493.6470588235294" y="-60.76470588235294" type="line"/>
      <point x="-5.882352941176471" y="-60.76470588235294" type="line"/>
    </contour>
  </outline>
</glyph>
<glyph name="grave" format="2">
  <advance width="280.29411764705884"/>
  <unicode hex="0060"/>
  <note>
grave
</note>
  <anchor x="247.64705882352942" y="493.29411764705884" name="_top"/>
  <outline>
    <contour>
      <point x="224.76470588235293" y="733.9411764705883" type="line"/>
      <point x="91.94117647058823" y="733.9411764705883" type="line"/>
      <point x="214.1764705882353" y="575.8235294117648" type="line"/>
      <point x="303.94117647058823" y="575.8235294117648" type="line"/>
    </contour>
  </outline>
</glyph>
<glyph name="a" format="2">
  <advance width="510.88235294117646"/>
  <unicode hex="0061"/>
  <note>
a
</note>
  <guideline x="66.88235294117646" y="439.7647058823529" angle="90.0"/>
  <guideline x="78.0" y="439.7647058823529" angle="90.0"/>
  <anchor x="206.7058823529412" y="0.0" name="bottom"/>
  <anchor x="429.88235294117646" y="0.0" name="ogonek"/>
  <anchor x="286.70588235294116" y="493.29411764705884" name="top"/>
  <outline>
    <contour>
      <point x="419.4117647058824" y="497.3529411764706" type="line"/>
      <point x="365.3529411764706" y="413.3529411764706" type="line"/>
      <point x="352.2352941176471" y="319.70588235294116" type="line" smooth="yes"/>
      <point x="333.8235294117647" y="189.7058823529412"/>
      <point x="292.4117647058824" y="59.94117647058823"/>
      <point x="205.8235294117647" y="59.94117647058823" type="curve" smooth="yes"/>
      <point x="149.58823529411765" y="59.94117647058823"/>
      <point x="127.41176470588235" y="123.52941176470588"/>
      <point x="127.41176470588235" y="198.7058823529412" type="curve" smooth="yes"/>
      <point x="127.41176470588235" y="323.5882352941176"/>
      <point x="178.58823529411765" y="434.4117647058824"/>
      <point x="284.2352941176471" y="434.4117647058824" type="curve" smooth="yes"/>
      <point x="324.7647058823529" y="434.4117647058824"/>
      <point x="363.1764705882353" y="416.52941176470586"/>
      <point x="406.52941176470586" y="377.70588235294116" type="curve"/>
      <point x="406.52941176470586" y="448.94117647058823" type="line"/>
      <point x="370.52941176470586" y="491.3529411764706"/>
      <point x="318.52941176470586" y="505.8235294117647"/>
      <point x="280.3529411764706" y="505.8235294117647" type="curve" smooth="yes"/>
      <point x="110.3529411764706" y="505.8235294117647"/>
      <point x="28.411764705882355" y="344.3529411764706"/>
      <point x="28.411764705882355" y="196.76470588235293" type="curve" smooth="yes"/>
      <point x="28.411764705882355" y="83.82352941176471"/>
      <point x="74.29411764705883" y="-12.529411764705882"/>
      <point x="186.52941176470588" y="-12.529411764705882" type="curve" smooth="yes"/>
      <point x="235.35294117647058" y="-12.529411764705882"/>
      <point x="293.3529411764706" y="13.352941176470589"/>
      <point x="328.11764705882354" y="66.94117647058823" type="curve"/>
      <point x="332.11764705882354" y="66.94117647058823" type="line"/>
      <point x="336.4117647058824" y="23.176470588235293"/>
      <point x="368.29411764705884" y="-10.058823529411764"/>
      <point x="412.52941176470586" y="-10.058823529411764" type="curve" smooth="yes"/>
      <point x="441.7647058823529" y="-10.058823529411764"/>
      <point x="476.8235294117647" y="1.4117647058823528"/>
      <point x="502.11764705882354" y="16.705882352941178" type="curve"/>
      <point x="488.29411764705884" y="72.82352941176471" type="line"/>
      <point x="475.8235294117647" y="68.3529411764706"/>
      <point x="457.52941176470586" y="62.94117647058823"/>
      <point x="444.52941176470586" y="62.94117647058823" type="curve" smooth="yes"/>
      <point x="421.88235294117646" y="62.94117647058823"/>
      <point x="415.29411764705884" y="80.3529411764706"/>
      <point x="415.29411764705884" y="101.05882352941177" type="curve" smooth="yes"/>
      <point x="415.29411764705884" y="128.05882352941177"/>
      <point x="421.3529411764706" y="162.58823529411765"/>
      <point x="472.3529411764706" y="497.3529411764706" type="curve"/>
    </contour>
  </outline>
</glyph>
<glyph name="b" format="2">
  <advance width="498.5882352941176"/>
  <unicode hex="0062"/>
  <note>
b
</note>
  <outline>
    <contour>
      <point x="34.35294117647059" y="36.76470588235294" type="line"/>
      <point x="130.7058823529412" y="62.82352941176471" type="line"/>
      <point x="171.8235294117647" y="357.7647058823529" type="line"/>
      <point x="192.0" y="381.7647058823529"/>
      <point x="245.1764705882353" y="427.29411764705884"/>
      <point x="295.0" y="427.29411764705884" type="curve" smooth="yes"/>
      <point x="351.05882352941177" y="427.29411764705884"/>
      <point x="371.1764705882353" y="370.11764705882354"/>
      <point x="371.1764705882353" y="291.4117647058824" type="curve" smooth="yes"/>
      <point x="371.1764705882353" y="181.64705882352942"/>
      <point x="324.0" y="58.88235294117647"/>
      <point x="214.35294117647058" y="58.88235294117647" type="curve" smooth="yes"/>
      <point x="173.8235294117647" y="58.88235294117647"/>
      <point x="128.35294117647058" y="68.6470588235294"/>
      <point x="89.41176470588235" y="104.52941176470588" type="curve"/>
      <point x="34.35294117647059" y="36.76470588235294" type="line"/>
      <point x="88.47058823529412" y="2.8823529411764706"/>
      <point x="157.64705882352942" y="-12.529411764705882"/>
      <point x="214.05882352941177" y="-12.529411764705882" type="curve" smooth="yes"/>
      <point x="381.2352941176471" y="-12.529411764705882"/>
      <point x="470.1764705882353" y="135.35294117647058"/>
      <point x="470.1764705882353" y="299.52941176470586" type="curve" smooth="yes"/>
      <point x="470.1764705882353" y="416.4117647058824"/>
      <point x="426.8235294117647" y="506.7647058823529"/>
      <point x="317.5882352941176" y="506.7647058823529" type="curve" smooth="yes"/>
      <point x="266.6470588235294" y="506.7647058823529"/>
      <point x="212.0" y="475.11764705882354"/>
      <point x="183.7058823529412" y="446.8235294117647" type="curve"/>
      <point x="226.2941176470588" y="765.8823529411765" type="line"/>
      <point x="119.94117647058823" y="765.8823529411765" type="line"/>
      <point x="122.29411764705883" y="709.8235294117648" type="line"/>
    </contour>
  </outline>
</glyph>
<glyph name="c" format="2">
  <advance width="420.94117647058823"/>
  <unicode hex="0063"/>
  <note>
c
</note>
  <anchor x="207.41176470588235" y="0.0" name="bottom"/>
  <anchor x="279.4117647058824" y="493.29411764705884" name="top"/>
  <outline>
    <contour>
      <point x="376.1764705882353" y="385.4117647058824" type="curve"/>
      <point x="435.11764705882354" y="456.70588235294116" type="line"/>
      <point x="386.3529411764706" y="492.7647058823529"/>
      <point x="335.47058823529414" y="506.29411764705884"/>
      <point x="288.05882352941177" y="506.29411764705884" type="curve" smooth="yes"/>
      <point x="129.35294117647058" y="506.29411764705884"/>
      <point x="28.88235294117647" y="362.4117647058824"/>
      <point x="28.88235294117647" y="205.41176470588235" type="curve" smooth="yes"/>
      <point x="28.88235294117647" y="73.23529411764706"/>
      <point x="96.41176470588235" y="-12.529411764705882"/>
      <point x="219.35294117647058" y="-12.529411764705882" type="curve" smooth="yes"/>
      <point x="280.0" y="-12.529411764705882"/>
      <point x="332.70588235294116" y="4.411764705882353"/>
      <point x="386.70588235294116" y="35.529411764705884" type="curve"/>
      <point x="361.29411764705884" y="94.94117647058823" type="line"/>
      <point x="313.7647058823529" y="74.41176470588235"/>
      <point x="272.70588235294116" y="63.411764705882355"/>
      <point x="238.1764705882353" y="63.411764705882355" type="curve" smooth="yes"/>
      <point x="168.0" y="63.411764705882355"/>
      <point x="127.88235294117646" y="110.05882352941177"/>
      <point x="127.88235294117646" y="216.35294117647058" type="curve" smooth="yes"/>
      <point x="127.88235294117646" y="320.0"/>
      <point x="177.11764705882354" y="429.4117647058824"/>
      <point x="280.6470588235294" y="429.4117647058824" type="curve" smooth="yes"/>
      <point x="315.47058823529414" y="429.4117647058824"/>
      <point x="347.94117647058823" y="413.05882352941177"/>
    </contour>
  </outline>
</glyph>
<glyph name="e" format="2">
  <advance width="459.6470588235294"/>
  <unicode hex="0065"/>
  <note>
e
</note>
  <guideline x="127.94117647058823" y="387.29411764705884" angle="90.0"/>
  <guideline x="28.941176470588236" y="387.29411764705884" angle="90.0"/>
  <guideline x="441.29411764705884" y="65.94117647058823" angle="0.0"/>
  <anchor x="223.05882352941177" y="0.0" name="bottom"/>
  <anchor x="286.88235294117646" y="0.0" name="ogonek"/>
  <anchor x="288.05882352941177" y="493.29411764705884" name="top"/>
  <outline>
    <contour>
      <point x="292.94117647058823" y="506.29411764705884" type="curve" smooth="yes"/>
      <point x="122.52941176470588" y="506.29411764705884"/>
      <point x="28.941176470588236" y="351.7647058823529"/>
      <point x="28.941176470588236" y="205.58823529411765" type="curve" smooth="yes"/>
      <point x="28.941176470588236" y="86.05882352941177"/>
      <point x="87.82352941176471" y="-12.529411764705882"/>
      <point x="235.88235294117646" y="-12.529411764705882" type="curve" smooth="yes"/>
      <point x="324.52941176470586" y="-12.529411764705882"/>
      <point x="395.2352941176471" y="30.176470588235293"/>
      <point x="420.6470588235294" y="48.1764705882353" type="curve"/>
      <point x="390.4117647058824" y="106.11764705882354" type="line"/>
      <point x="339.05882352941177" y="80.29411764705883"/>
      <point x="290.70588235294116" y="65.94117647058823"/>
      <point x="249.8235294117647" y="65.94117647058823" type="curve" smooth="yes"/>
      <point x="176.58823529411765" y="65.94117647058823"/>
      <point x="127.94117647058823" y="112.05882352941177"/>
      <point x="127.94117647058823" y="216.76470588235293" type="curve" smooth="yes"/>
      <point x="127.94117647058823" y="320.47058823529414"/>
      <point x="181.58823529411765" y="433.94117647058823"/>
      <point x="283.4117647058824" y="433.94117647058823" type="curve" smooth="yes"/>
      <point x="314.52941176470586" y="433.94117647058823"/>
      <point x="336.94117647058823" y="417.4117647058824"/>
      <point x="336.94117647058823" y="388.5882352941176" type="curve" smooth="yes"/>
      <point x="336.94117647058823" y="321.05882352941177"/>
      <point x="240.35294117647058" y="262.1764705882353"/>
      <point x="115.47058823529412" y="268.52941176470586" type="curve"/>
      <point x="115.47058823529412" y="198.23529411764707" type="line"/>
      <point x="336.52941176470586" y="192.76470588235293"/>
      <point x="439.29411764705884" y="292.6470588235294"/>
      <point x="439.29411764705884" y="390.88235294117646" type="curve" smooth="yes"/>
      <point x="439.29411764705884" y="472.05882352941177"/>
      <point x="369.94117647058823" y="506.29411764705884"/>
    </contour>
  </outline>
</glyph>
<glyph name="f" format="2">
  <advance width="283.11764705882354"/>
  <unicode hex="0066"/>
  <note>
f
</note>
  <outline>
    <contour>
      <point x="-98.17647058823529" y="-156.94117647058823" type="curve"/>
      <point x="-113.11764705882354" y="-219.1764705882353" type="line"/>
      <point x="17.235294117647058" y="-256.8235294117647"/>
      <point x="114.29411764705883" y="-200.2941176470588"/>
      <point x="134.7058823529412" y="-54.411764705882355" type="curve" smooth="yes"/>
      <point x="199.35294117647058" y="420.88235294117646" type="line"/>
      <point x="314.1764705882353" y="420.88235294117646" type="line"/>
      <point x="323.5882352941176" y="493.29411764705884" type="line"/>
      <point x="208.76470588235293" y="493.29411764705884" type="line"/>
      <point x="219.8235294117647" y="580.7647058823529"/>
      <point x="242.1764705882353" y="700.8823529411765"/>
      <point x="343.47058823529414" y="700.8823529411765" type="curve" smooth="yes"/>
      <point x="378.52941176470586" y="700.8823529411765"/>
      <point x="403.5882352941176" y="688.3529411764706"/>
      <point x="429.29411764705884" y="663.5294117647059" type="curve"/>
      <point x="473.0" y="731.9411764705883" type="line"/>
      <point x="438.1764705882353" y="755.8235294117648"/>
      <point x="391.94117647058823" y="772.8235294117648"/>
      <point x="341.70588235294116" y="772.8235294117648" type="curve" smooth="yes"/>
      <point x="190.2941176470588" y="772.8235294117648"/>
      <point x="151.47058823529412" y="659.4705882352941"/>
      <point x="118.58823529411765" y="538.1176470588235" type="curve" smooth="yes"/>
      <point x="105.70588235294117" y="492.2352941176471"/>
      <point x="66.23529411764706" y="493.29411764705884"/>
      <point x="37.529411764705884" y="493.29411764705884" type="curve"/>
      <point x="28.588235294117645" y="420.88235294117646" type="line"/>
      <point x="103.3529411764706" y="420.88235294117646" type="line"/>
      <point x="40.23529411764706" y="-44.0" type="line" smooth="yes"/>
      <point x="28.764705882352942" y="-130.0"/>
      <point x="-9.470588235294118" y="-178.23529411764707"/>
    </contour>
  </outline>
</glyph>
<glyph name="g" format="2">
  <advance width="488.3529411764706"/>
  <unicode hex="0067"/>
  <note>
g
</note>
  <anchor x="286.52941176470586" y="493.29411764705884" name="top"/>
  <outline>
    <contour>
      <point x="419.4117647058824" y="497.3529411764706" type="line"/>
      <point x="365.3529411764706" y="413.3529411764706" type="line"/>
      <point x="352.2352941176471" y="319.70588235294116" type="line" smooth="yes"/>
      <point x="333.8235294117647" y="189.7058823529412"/>
      <point x="292.4117647058824" y="59.94117647058823"/>
      <point x="205.8235294117647" y="59.94117647058823" type="curve" smooth="yes"/>
      <point x="149.58823529411765" y="59.94117647058823"/>
      <point x="127.41176470588235" y="123.52941176470588"/>
      <point x="127.41176470588235" y="198.7058823529412" type="curve" smooth="yes"/>
      <point x="127.41176470588235" y="323.5882352941176"/>
      <point x="178.58823529411765" y="434.4117647058824"/>
      <point x="284.2352941176471" y="434.4117647058824" type="curve" smooth="yes"/>
      <point x="324.7647058823529" y="434.4117647058824"/>
      <point x="363.1764705882353" y="416.52941176470586"/>
      <point x="406.52941176470586" y="377.70588235294116" type="curve"/>
      <point x="406.52941176470586" y="448.94117647058823" type="line"/>
      <point x="370.52941176470586" y="491.3529411764706"/>
      <point x="318.52941176470586" y="505.8235294117647"/>
      <point x="280.3529411764706" y="505.8235294117647" type="curve" smooth="yes"/>
      <point x="110.3529411764706" y="505.8235294117647"/>
      <point x="28.411764705882355" y="344.3529411764706"/>
      <point x="28.411764705882355" y="196.76470588235293" type="curve" smooth="yes"/>
      <point x="28.411764705882355" y="83.82352941176471"/>
      <point x="74.29411764705883" y="-12.529411764705882"/>
      <point x="186.52941176470588" y="-12.529411764705882" type="curve" smooth="yes"/>
      <point x="235.35294117647058" y="-12.529411764705882"/>
      <point x="281.5882352941176" y="11.411764705882353"/>
      <point x="307.88235294117646" y="43.05882352941177" type="curve"/>
      <point x="311.88235294117646" y="43.05882352941177" type="line"/>
      <point x="303.8235294117647" y="-7.470588235294118" type="line" smooth="yes"/>
      <point x="290.8235294117647" y="-91.23529411764706"/>
      <point x="257.94117647058823" y="-153.23529411764707"/>
      <point x="155.05882352941177" y="-153.23529411764707" type="curve" smooth="yes"/>
      <point x="112.88235294117646" y="-153.23529411764707"/>
      <point x="73.17647058823529" y="-127.58823529411765"/>
      <point x="48.470588235294116" y="-99.94117647058823" type="curve"/>
      <point x="-1.9411764705882355" y="-179.8235294117647" type="line"/>
      <point x="19.176470588235293" y="-197.88235294117646"/>
      <point x="80.6470588235294" y="-230.0"/>
      <point x="159.8235294117647" y="-230.0" type="curve" smooth="yes"/>
      <point x="342.94117647058823" y="-230.0"/>
      <point x="387.29411764705884" y="-91.3529411764706"/>
      <point x="404.7647058823529" y="29.941176470588236" type="curve" smooth="yes"/>
      <point x="472.3529411764706" y="497.3529411764706" type="line"/>
    </contour>
  </outline>
</glyph>
<glyph name="h" format="2">
  <advance width="491.52941176470586"/>
  <unicode hex="0068"/>
  <note>
h
</note>
  <anchor x="217.7058823529412" y="0.0" name="bottom"/>
  <anchor x="210.0" y="607.0" name="center"/>
  <anchor x="173.88235294117646" y="727.7647058823529" name="top"/>
  <outline>
    <contour>
      <point x="230.23529411764707" y="766.3529411764706" type="line"/>
      <point x="124.3529411764706" y="766.3529411764706" type="line"/>
      <point x="126.23529411764706" y="710.7647058823529" type="line"/>
      <point x="31.235294117647058" y="0.0" type="line"/>
      <point x="127.23529411764706" y="0.0" type="line"/>
      <point x="175.76470588235293" y="359.6470588235294" type="line"/>
      <point x="193.58823529411765" y="376.4117647058824"/>
      <point x="254.76470588235293" y="423.0"/>
      <point x="300.5882352941176" y="423.0" type="curve" smooth="yes"/>
      <point x="345.52941176470586" y="423.0"/>
      <point x="358.0" y="395.0"/>
      <point x="358.0" y="356.8235294117647" type="curve" smooth="yes"/>
      <point x="358.0" y="342.1764705882353"/>
      <point x="356.47058823529414" y="326.47058823529414"/>
      <point x="354.47058823529414" y="312.3529411764706" type="curve" smooth="yes"/>
      <point x="312.5882352941176" y="0.0" type="line"/>
      <point x="420.05882352941177" y="0.0" type="line"/>
      <point x="417.5882352941176" y="56.11764705882353" type="line"/>
      <point x="454.0" y="331.7647058823529" type="line" smooth="yes"/>
      <point x="456.0" y="347.7647058823529"/>
      <point x="457.0" y="364.1764705882353"/>
      <point x="457.0" y="379.5882352941176" type="curve" smooth="yes"/>
      <point x="457.0" y="470.05882352941177"/>
      <point x="411.0" y="506.7647058823529"/>
      <point x="333.3529411764706" y="506.7647058823529" type="curve" smooth="yes"/>
      <point x="277.5882352941176" y="506.7647058823529"/>
      <point x="224.58823529411765" y="474.52941176470586"/>
      <point x="185.1764705882353" y="441.47058823529414" type="curve"/>
    </contour>
  </outline>
</glyph>
<glyph name="i" format="2">
  <advance width="227.47058823529412"/>
  <unicode hex="0069"/>
  <note>
i
</note>
  <anchor x="100.23529411764706" y="0.0" name="bottom"/>
  <anchor x="86.23529411764706" y="0.0" name="ogonek"/>
  <outline>
    <contour>
      <point x="236.88235294117646" y="677.8823529411765" type="curve" smooth="yes"/>
      <point x="236.88235294117646" y="709.1176470588235"/>
      <point x="214.0" y="735.4705882352941"/>
      <point x="180.7058823529412" y="735.4705882352941" type="curve" smooth="yes"/>
      <point x="140.0" y="735.4705882352941"/>
      <point x="106.23529411764706" y="697.7058823529412"/>
      <point x="106.23529411764706" y="659.0588235294117" type="curve" smooth="yes"/>
      <point x="106.23529411764706" y="627.2941176470588"/>
      <point x="129.58823529411765" y="601.5294117647059"/>
      <point x="162.88235294117646" y="601.5294117647059" type="curve" smooth="yes"/>
      <point x="203.58823529411765" y="601.5294117647059"/>
      <point x="236.88235294117646" y="639.1764705882352"/>
    </contour>
    <contour>
      <point x="195.88235294117646" y="493.29411764705884" type="line"/>
      <point x="90.94117647058823" y="493.29411764705884" type="line"/>
      <point x="92.3529411764706" y="437.70588235294116" type="line"/>
      <point x="33.88235294117647" y="0.0" type="line"/>
      <point x="138.8235294117647" y="0.0" type="line"/>
      <point x="137.41176470588235" y="56.588235294117645" type="line"/>
    </contour>
  </outline>
</glyph>
<glyph name="j" format="2">
  <advance width="228.52941176470588"/>
  <unicode hex="006A"/>
  <note>
j
</note>
  <outline>
    <contour>
      <point x="237.94117647058823" y="677.8823529411765" type="curve" smooth="yes"/>
      <point x="237.94117647058823" y="709.6470588235294"/>
      <point x="214.58823529411765" y="734.9411764705883"/>
      <point x="180.76470588235293" y="734.9411764705883" type="curve" smooth="yes"/>
      <point x="140.52941176470588" y="734.9411764705883"/>
      <point x="106.82352941176471" y="698.2352941176471"/>
      <point x="106.82352941176471" y="659.0588235294117" type="curve" smooth="yes"/>
      <point x="106.82352941176471" y="628.2941176470588"/>
      <point x="130.11764705882354" y="601.0"/>
      <point x="163.94117647058823" y="601.0" type="curve" smooth="yes"/>
      <point x="204.1764705882353" y="601.0"/>
      <point x="237.94117647058823" y="638.7058823529412"/>
    </contour>
    <contour>
      <point x="198.41176470588235" y="493.29411764705884" type="line"/>
      <point x="93.05882352941177" y="493.29411764705884" type="line"/>
      <point x="94.94117647058823" y="438.1764705882353" type="line"/>
      <point x="38.35294117647059" y="25.235294117647058" type="line" smooth="yes"/>
      <point x="28.352941176470587" y="-48.64705882352941"/>
      <point x="12.117647058823529" y="-134.35294117647058"/>
      <point x="-72.0" y="-173.76470588235293" type="curve"/>
      <point x="-59.588235294117645" y="-226.11764705882354" type="line"/>
      <point x="81.47058823529412" y="-208.64705882352942"/>
      <point x="120.88235294117646" y="-70.88235294117646"/>
      <point x="136.76470588235293" y="43.82352941176471" type="curve" smooth="yes"/>
    </contour>
  </outline>
</glyph>
<glyph name="k" format="2">
  <advance width="486.2352941176471"/>
  <unicode hex="006B"/>
  <note>
k
</note>
  <anchor x="209.52941176470588" y="0.0" name="bottom"/>
  <outline>
    <contour>
      <point x="340.3529411764706" y="506.7647058823529" type="curve" smooth="yes"/>
      <point x="280.6470588235294" y="506.7647058823529"/>
      <point x="212.7058823529412" y="469.88235294117646"/>
      <point x="166.47058823529412" y="420.5882352941176" type="curve"/>
      <point x="166.47058823529412" y="346.70588235294116" type="line"/>
      <point x="209.0" y="391.5882352941176"/>
      <point x="267.94117647058823" y="423.0"/>
      <point x="305.6470588235294" y="423.0" type="curve" smooth="yes"/>
      <point x="338.3529411764706" y="423.0"/>
      <point x="362.1764705882353" y="406.3529411764706"/>
      <point x="362.1764705882353" y="371.29411764705884" type="curve" smooth="yes"/>
      <point x="362.1764705882353" y="318.29411764705884"/>
      <point x="308.05882352941177" y="261.0"/>
      <point x="192.7058823529412" y="242.41176470588235" type="curve"/>
      <point x="225.58823529411765" y="164.41176470588235"/>
      <point x="266.70588235294116" y="75.6470588235294"/>
      <point x="314.5882352941176" y="0.0" type="curve"/>
      <point x="426.47058823529414" y="0.0" type="line"/>
      <point x="375.8235294117647" y="71.47058823529412"/>
      <point x="335.29411764705884" y="145.2941176470588"/>
      <point x="306.0" y="213.8235294117647" type="curve"/>
      <point x="414.3529411764706" y="257.88235294117646"/>
      <point x="460.11764705882354" y="331.1764705882353"/>
      <point x="460.11764705882354" y="400.29411764705884" type="curve" smooth="yes"/>
      <point x="460.11764705882354" y="464.88235294117646"/>
      <point x="413.8235294117647" y="506.7647058823529"/>
    </contour>
    <contour>
      <point x="233.8235294117647" y="766.3529411764706" type="line"/>
      <point x="126.52941176470588" y="766.3529411764706" type="line"/>
      <point x="128.88235294117646" y="710.7647058823529" type="line"/>
      <point x="33.35294117647059" y="0.0" type="line"/>
      <point x="130.2941176470588" y="0.0" type="line"/>
    </contour>
  </outline>
</glyph>
<glyph name="l" format="2">
  <advance width="231.23529411764707"/>
  <unicode hex="006C"/>
  <note>
l
</note>
  <anchor x="78.82352941176471" y="0.0" name="bottom"/>
  <anchor x="133.8235294117647" y="391.0" name="center"/>
  <anchor x="177.8235294117647" y="728.0" name="top"/>
  <anchor x="58.05882352941177" y="524.7647058823529" name="topright"/>
  <outline>
    <contour>
      <point x="234.2941176470588" y="766.3529411764706" type="line"/>
      <point x="127.47058823529412" y="766.3529411764706" type="line"/>
      <point x="128.88235294117646" y="710.7647058823529" type="line"/>
      <point x="33.35294117647059" y="0.0" type="line"/>
      <point x="140.23529411764707" y="0.0" type="line"/>
      <point x="138.8235294117647" y="56.11764705882353" type="line"/>
    </contour>
  </outline>
</glyph>
<glyph name="m" format="2">
  <advance width="760.1176470588235"/>
  <unicode hex="006D"/>
  <note>
m
</note>
  <outline>
    <contour>
      <point x="173.88235294117646" y="503.7647058823529" type="curve"/>
      <point x="70.3529411764706" y="491.4117647058824" type="line"/>
      <point x="76.47058823529412" y="482.0"/>
      <point x="84.88235294117646" y="447.5882352941176"/>
      <point x="84.88235294117646" y="407.6470588235294" type="curve" smooth="yes"/>
      <point x="84.88235294117646" y="391.3529411764706"/>
      <point x="83.88235294117646" y="374.47058823529414"/>
      <point x="81.88235294117646" y="357.5882352941176" type="curve" smooth="yes"/>
      <point x="34.411764705882355" y="0.0" type="line"/>
      <point x="129.88235294117646" y="0.0" type="line"/>
      <point x="178.88235294117646" y="363.11764705882354" type="line"/>
      <point x="196.0" y="379.1764705882353"/>
      <point x="252.7058823529412" y="423.0"/>
      <point x="295.6470588235294" y="423.0" type="curve" smooth="yes"/>
      <point x="340.5882352941176" y="423.0"/>
      <point x="353.52941176470586" y="394.05882352941177"/>
      <point x="353.52941176470586" y="356.88235294117646" type="curve" smooth="yes"/>
      <point x="353.52941176470586" y="344.11764705882354"/>
      <point x="352.0" y="330.29411764705884"/>
      <point x="350.47058823529414" y="318.05882352941177" type="curve" smooth="yes"/>
      <point x="308.11764705882354" y="0.0" type="line"/>
      <point x="404.5882352941176" y="0.0" type="line"/>
      <point x="452.05882352941177" y="363.05882352941177" type="line"/>
      <point x="481.88235294117646" y="389.29411764705884"/>
      <point x="529.5294117647059" y="423.0"/>
      <point x="569.3529411764706" y="423.0" type="curve" smooth="yes"/>
      <point x="615.2941176470588" y="423.0"/>
      <point x="628.7058823529412" y="395.4117647058824"/>
      <point x="628.7058823529412" y="356.29411764705884" type="curve" smooth="yes"/>
      <point x="628.7058823529412" y="343.05882352941177"/>
      <point x="627.1764705882352" y="329.3529411764706"/>
      <point x="625.6470588235294" y="316.6470588235294" type="curve" smooth="yes"/>
      <point x="583.7647058823529" y="0.0" type="line"/>
      <point x="688.1764705882352" y="0.0" type="line"/>
      <point x="686.7647058823529" y="55.64705882352941" type="line"/>
      <point x="723.7058823529412" y="333.70588235294116" type="line" smooth="yes"/>
      <point x="725.7058823529412" y="349.70588235294116"/>
      <point x="727.1764705882352" y="365.6470588235294"/>
      <point x="727.1764705882352" y="380.52941176470586" type="curve" smooth="yes"/>
      <point x="727.1764705882352" y="473.4117647058824"/>
      <point x="677.7647058823529" y="506.29411764705884"/>
      <point x="607.3529411764706" y="506.29411764705884" type="curve" smooth="yes"/>
      <point x="544.8823529411765" y="506.29411764705884"/>
      <point x="489.4117647058824" y="467.88235294117646"/>
      <point x="446.52941176470586" y="428.52941176470586" type="curve"/>
      <point x="428.8235294117647" y="486.3529411764706"/>
      <point x="385.29411764705884" y="506.29411764705884"/>
      <point x="332.70588235294116" y="506.29411764705884" type="curve" smooth="yes"/>
      <point x="272.8235294117647" y="506.29411764705884"/>
      <point x="224.7058823529412" y="471.94117647058823"/>
      <point x="182.41176470588235" y="435.52941176470586" type="curve"/>
      <point x="182.41176470588235" y="457.5882352941176"/>
      <point x="178.8235294117647" y="487.52941176470586"/>
    </contour>
  </outline>
</glyph>
<glyph name="n" format="2">
  <advance width="493.05882352941177"/>
  <unicode hex="006E"/>
  <note>
n
</note>
  <anchor x="226.58823529411765" y="0.0" name="bottom"/>
  <anchor x="289.5882352941176" y="493.29411764705884" name="top"/>
  <anchor x="107.58823529411765" y="493.29411764705884" name="topright"/>
  <outline>
    <contour>
      <point x="173.88235294117646" y="503.7647058823529" type="curve"/>
      <point x="70.3529411764706" y="491.4117647058824" type="line"/>
      <point x="76.47058823529412" y="482.0"/>
      <point x="85.41176470588235" y="449.70588235294116"/>
      <point x="85.41176470588235" y="407.6470588235294" type="curve" smooth="yes"/>
      <point x="85.41176470588235" y="390.29411764705884"/>
      <point x="84.41176470588235" y="371.8235294117647"/>
      <point x="81.88235294117646" y="352.8235294117647" type="curve" smooth="yes"/>
      <point x="34.411764705882355" y="0.0" type="line"/>
      <point x="130.41176470588235" y="0.0" type="line"/>
      <point x="179.41176470588235" y="359.6470588235294" type="line"/>
      <point x="197.23529411764707" y="376.4117647058824"/>
      <point x="258.4117647058824" y="423.0"/>
      <point x="304.2352941176471" y="423.0" type="curve" smooth="yes"/>
      <point x="349.70588235294116" y="423.0"/>
      <point x="362.1764705882353" y="395.52941176470586"/>
      <point x="362.1764705882353" y="358.4117647058824" type="curve" smooth="yes"/>
      <point x="362.1764705882353" y="343.2352941176471"/>
      <point x="360.11764705882354" y="327.52941176470586"/>
      <point x="358.11764705882354" y="312.88235294117646" type="curve" smooth="yes"/>
      <point x="316.1764705882353" y="0.0" type="line"/>
      <point x="421.5882352941176" y="0.0" type="line"/>
      <point x="420.1764705882353" y="56.11764705882353" type="line"/>
      <point x="457.11764705882354" y="332.29411764705884" type="line" smooth="yes"/>
      <point x="459.11764705882354" y="348.29411764705884"/>
      <point x="460.11764705882354" y="364.70588235294116"/>
      <point x="460.11764705882354" y="379.5882352941176" type="curve" smooth="yes"/>
      <point x="460.11764705882354" y="474.8235294117647"/>
      <point x="408.8235294117647" y="506.7647058823529"/>
      <point x="337.52941176470586" y="506.7647058823529" type="curve" smooth="yes"/>
      <point x="277.70588235294116" y="506.7647058823529"/>
      <point x="222.35294117647058" y="470.52941176470586"/>
      <point x="182.41176470588235" y="436.52941176470586" type="curve"/>
      <point x="181.88235294117646" y="461.7647058823529"/>
      <point x="178.2941176470588" y="488.5882352941176"/>
    </contour>
  </outline>
</glyph>
<glyph name="o" format="2">
  <advance width="497.5882352941176"/>
  <unicode hex="006F"/>
  <note>
o
</note>
  <anchor x="216.05882352941177" y="0.0" name="bottom"/>
  <anchor x="249.05882352941177" y="252.0" name="center"/>
  <anchor x="249.7058823529412" y="0.0" name="ogonek"/>
  <anchor x="283.05882352941177" y="493.29411764705884" name="top"/>
  <anchor x="311.05882352941177" y="493.29411764705884" name="topright"/>
  <outline>
    <contour>
      <point x="214.58823529411765" y="-12.529411764705882" type="curve" smooth="yes"/>
      <point x="379.4117647058824" y="-12.529411764705882"/>
      <point x="468.6470588235294" y="148.2941176470588"/>
      <point x="468.6470588235294" y="291.1764705882353" type="curve" smooth="yes"/>
      <point x="468.6470588235294" y="404.2352941176471"/>
      <point x="414.1764705882353" y="506.29411764705884"/>
      <point x="283.0" y="506.29411764705884" type="curve" smooth="yes"/>
      <point x="118.17647058823529" y="506.29411764705884"/>
      <point x="28.941176470588236" y="345.47058823529414"/>
      <point x="28.941176470588236" y="202.58823529411765" type="curve" smooth="yes"/>
      <point x="28.941176470588236" y="89.52941176470588"/>
      <point x="83.41176470588235" y="-12.529411764705882"/>
    </contour>
    <contour>
      <point x="223.47058823529412" y="58.411764705882355" type="curve" smooth="yes"/>
      <point x="153.7058823529412" y="58.411764705882355"/>
      <point x="127.94117647058823" y="126.88235294117646"/>
      <point x="127.94117647058823" y="204.76470588235293" type="curve" smooth="yes"/>
      <point x="127.94117647058823" y="313.29411764705884"/>
      <point x="177.11764705882354" y="435.3529411764706"/>
      <point x="274.11764705882354" y="435.3529411764706" type="curve" smooth="yes"/>
      <point x="343.88235294117646" y="435.3529411764706"/>
      <point x="369.6470588235294" y="366.88235294117646"/>
      <point x="369.6470588235294" y="289.0" type="curve" smooth="yes"/>
      <point x="369.6470588235294" y="180.47058823529412"/>
      <point x="320.47058823529414" y="58.411764705882355"/>
    </contour>
  </outline>
</glyph>
<glyph name="p" format="2">
  <advance width="504.05882352941177"/>
  <unicode hex="0070"/>
  <note>
p
</note>
  <outline>
    <contour>
      <point x="323.5882352941176" y="506.7647058823529" type="curve" smooth="yes"/>
      <point x="266.88235294117646" y="506.7647058823529"/>
      <point x="215.7058823529412" y="474.88235294117646"/>
      <point x="180.76470588235293" y="438.88235294117646" type="curve"/>
      <point x="180.2941176470588" y="460.47058823529414"/>
      <point x="177.8235294117647" y="476.4117647058824"/>
      <point x="171.8235294117647" y="503.8235294117647" type="curve"/>
      <point x="70.17647058823529" y="490.94117647058823" type="line"/>
      <point x="80.6470588235294" y="464.1764705882353"/>
      <point x="83.70588235294117" y="434.29411764705884"/>
      <point x="83.70588235294117" y="408.7647058823529" type="curve" smooth="yes"/>
      <point x="83.70588235294117" y="387.11764705882354"/>
      <point x="81.6470588235294" y="365.47058823529414"/>
      <point x="78.6470588235294" y="343.8235294117647" type="curve" smooth="yes"/>
      <point x="3.2941176470588234" y="-224.47058823529412" type="line"/>
      <point x="109.6470588235294" y="-224.47058823529412" type="line"/>
      <point x="107.29411764705883" y="-169.47058823529412" type="line"/>
      <point x="129.2941176470588" y="0.05882352941176472" type="line"/>
      <point x="153.35294117647058" y="-7.0"/>
      <point x="183.8235294117647" y="-12.529411764705882"/>
      <point x="219.52941176470588" y="-12.529411764705882" type="curve" smooth="yes"/>
      <point x="386.70588235294116" y="-12.529411764705882"/>
      <point x="475.6470588235294" y="135.35294117647058"/>
      <point x="475.6470588235294" y="299.52941176470586" type="curve" smooth="yes"/>
      <point x="475.6470588235294" y="416.4117647058824"/>
      <point x="432.29411764705884" y="506.7647058823529"/>
    </contour>
    <contour>
      <point x="300.47058823529414" y="427.29411764705884" type="curve" smooth="yes"/>
      <point x="356.52941176470586" y="427.29411764705884"/>
      <point x="376.6470588235294" y="370.11764705882354"/>
      <point x="376.6470588235294" y="291.4117647058824" type="curve" smooth="yes"/>
      <point x="376.6470588235294" y="181.64705882352942"/>
      <point x="329.47058823529414" y="58.88235294117647"/>
      <point x="219.8235294117647" y="58.88235294117647" type="curve" smooth="yes"/>
      <point x="188.2941176470588" y="58.88235294117647"/>
      <point x="160.52941176470588" y="67.94117647058823"/>
      <point x="140.23529411764707" y="80.41176470588235" type="curve"/>
      <point x="177.2941176470588" y="357.7647058823529" type="line"/>
      <point x="197.47058823529412" y="381.7647058823529"/>
      <point x="250.64705882352942" y="427.29411764705884"/>
    </contour>
  </outline>
</glyph>
<glyph name="r" format="2">
  <advance width="334.47058823529414"/>
  <unicode hex="0072"/>
  <note>
r
</note>
  <anchor x="87.05882352941177" y="0.0" name="bottom"/>
  <anchor x="198.64705882352942" y="493.29411764705884" name="top"/>
  <outline>
    <contour>
      <point x="176.47058823529412" y="504.3529411764706" type="curve"/>
      <point x="70.3529411764706" y="493.8235294117647" type="line"/>
      <point x="84.3529411764706" y="469.7647058823529"/>
      <point x="86.88235294117646" y="432.6470588235294"/>
      <point x="86.88235294117646" y="408.7647058823529" type="curve" smooth="yes"/>
      <point x="86.88235294117646" y="392.29411764705884"/>
      <point x="85.41176470588235" y="374.94117647058823"/>
      <point x="83.41176470588235" y="360.3529411764706" type="curve" smooth="yes"/>
      <point x="36.470588235294116" y="0.0" type="line"/>
      <point x="134.05882352941177" y="0.0" type="line"/>
      <point x="175.64705882352942" y="305.94117647058823" type="line"/>
      <point x="217.47058823529412" y="362.7647058823529"/>
      <point x="264.4117647058824" y="396.88235294117646"/>
      <point x="326.2352941176471" y="396.88235294117646" type="curve"/>
      <point x="359.6470588235294" y="504.3529411764706" type="line"/>
      <point x="290.52941176470586" y="504.3529411764706"/>
      <point x="224.05882352941177" y="457.1764705882353"/>
      <point x="186.0" y="406.7647058823529" type="curve"/>
      <point x="187.41176470588235" y="441.5882352941176"/>
      <point x="184.47058823529412" y="477.4117647058824"/>
    </contour>
  </outline>
</glyph>
<glyph name="s" format="2">
  <advance width="373.6470588235294"/>
  <unicode hex="0073"/>
  <note>
s
</note>
  <anchor x="152.52941176470588" y="0.0" name="bottom"/>
  <anchor x="219.52941176470588" y="493.29411764705884" name="top"/>
  <outline>
    <contour>
      <point x="327.0" y="402.94117647058823" type="curve"/>
      <point x="369.47058823529414" y="474.2352941176471" type="line"/>
      <point x="332.5882352941176" y="495.2352941176471"/>
      <point x="285.4117647058824" y="506.29411764705884"/>
      <point x="241.41176470588235" y="506.29411764705884" type="curve" smooth="yes"/>
      <point x="144.2941176470588" y="506.29411764705884"/>
      <point x="49.11764705882353" y="458.4117647058824"/>
      <point x="49.11764705882353" y="345.70588235294116" type="curve" smooth="yes"/>
      <point x="49.11764705882353" y="216.41176470588235"/>
      <point x="234.35294117647058" y="227.8235294117647"/>
      <point x="234.35294117647058" y="138.0" type="curve" smooth="yes"/>
      <point x="234.35294117647058" y="87.23529411764706"/>
      <point x="190.47058823529412" y="59.35294117647059"/>
      <point x="144.8235294117647" y="59.35294117647059" type="curve" smooth="yes"/>
      <point x="109.47058823529412" y="59.35294117647059"/>
      <point x="72.82352941176471" y="78.6470588235294"/>
      <point x="43.35294117647059" y="100.76470588235294" type="curve"/>
      <point x="-3.882352941176471" y="29.88235294117647" type="line"/>
      <point x="39.17647058823529" y="3.411764705882353"/>
      <point x="92.82352941176471" y="-12.529411764705882"/>
      <point x="145.47058823529412" y="-12.529411764705882" type="curve" smooth="yes"/>
      <point x="246.0" y="-12.529411764705882"/>
      <point x="338.05882352941177" y="43.705882352941174"/>
      <point x="338.05882352941177" y="154.52941176470588" type="curve" smooth="yes"/>
      <point x="338.05882352941177" y="294.05882352941177"/>
      <point x="152.76470588235293" y="286.2352941176471"/>
      <point x="152.76470588235293" y="366.3529411764706" type="curve" smooth="yes"/>
      <point x="152.76470588235293" y="411.6470588235294"/>
      <point x="194.58823529411765" y="433.94117647058823"/>
      <point x="236.41176470588235" y="433.94117647058823" type="curve" smooth="yes"/>
      <point x="268.94117647058823" y="433.94117647058823"/>
      <point x="300.8235294117647" y="424.4117647058824"/>
    </contour>
  </outline>
</glyph>
<glyph name="u" format="2">
  <advance width="504.8235294117647"/>
  <unicode hex="0075"/>
  <note>
u
</note>
  <anchor x="200.1764705882353" y="0.0" name="bottom"/>
  <anchor x="416.2352941176471" y="0.0" name="ogonek"/>
  <anchor x="270.8235294117647" y="493.29411764705884" name="top"/>
  <anchor x="315.6470588235294" y="504.8235294117647" name="topright"/>
  <outline>
    <contour>
      <point x="179.2941176470588" y="493.29411764705884" type="line"/>
      <point x="73.47058823529412" y="493.29411764705884" type="line"/>
      <point x="75.82352941176471" y="442.4117647058824" type="line"/>
      <point x="36.88235294117647" y="152.88235294117646" type="line" smooth="yes"/>
      <point x="34.88235294117647" y="139.8235294117647"/>
      <point x="33.88235294117647" y="127.29411764705883"/>
      <point x="33.88235294117647" y="115.23529411764706" type="curve" smooth="yes"/>
      <point x="33.88235294117647" y="34.8235294117647"/>
      <point x="75.70588235294117" y="-12.058823529411764"/>
      <point x="160.94117647058823" y="-12.058823529411764" type="curve" smooth="yes"/>
      <point x="241.35294117647058" y="-12.058823529411764"/>
      <point x="294.05882352941177" y="32.58823529411765"/>
      <point x="317.94117647058823" y="65.3529411764706" type="curve"/>
      <point x="321.94117647058823" y="65.3529411764706" type="line"/>
      <point x="325.70588235294116" y="15.764705882352942"/>
      <point x="365.05882352941177" y="-10.588235294117647"/>
      <point x="402.3529411764706" y="-10.588235294117647" type="curve" smooth="yes"/>
      <point x="434.29411764705884" y="-10.588235294117647"/>
      <point x="479.2352941176471" y="7.235294117647059"/>
      <point x="492.88235294117646" y="16.176470588235293" type="curve"/>
      <point x="479.05882352941177" y="73.3529411764706" type="line"/>
      <point x="472.94117647058823" y="71.0"/>
      <point x="451.47058823529414" y="62.411764705882355"/>
      <point x="434.7647058823529" y="62.411764705882355" type="curve" smooth="yes"/>
      <point x="416.4117647058824" y="62.411764705882355"/>
      <point x="408.1764705882353" y="76.6470588235294"/>
      <point x="408.1764705882353" y="101.58823529411765" type="curve" smooth="yes"/>
      <point x="408.1764705882353" y="108.58823529411765"/>
      <point x="409.1764705882353" y="116.6470588235294"/>
      <point x="410.1764705882353" y="125.23529411764706" type="curve"/>
      <point x="462.5882352941176" y="493.29411764705884" type="line"/>
      <point x="355.7647058823529" y="493.29411764705884" type="line"/>
      <point x="358.5882352941176" y="441.88235294117646" type="line"/>
      <point x="338.0" y="292.1764705882353" type="line" smooth="yes"/>
      <point x="319.52941176470586" y="159.0"/>
      <point x="262.29411764705884" y="65.47058823529412"/>
      <point x="192.2941176470588" y="65.47058823529412" type="curve" smooth="yes"/>
      <point x="151.11764705882354" y="65.47058823529412"/>
      <point x="133.76470588235293" y="89.47058823529412"/>
      <point x="133.76470588235293" y="135.64705882352942" type="curve" smooth="yes"/>
      <point x="133.76470588235293" y="146.23529411764707"/>
      <point x="134.76470588235293" y="157.88235294117646"/>
      <point x="136.2941176470588" y="170.05882352941177" type="curve" smooth="yes"/>
    </contour>
  </outline>
</glyph>
<glyph name="v" format="2">
  <advance width="418.47058823529414"/>
  <unicode hex="0076"/>
  <note>
v
</note>
  <outline>
    <contour>
      <point x="131.1764705882353" y="493.29411764705884" type="curve"/>
      <point x="29.294117647058826" y="493.29411764705884" type="line"/>
      <point x="132.64705882352942" y="-4.529411764705882" type="line"/>
      <point x="221.1764705882353" y="-4.529411764705882" type="line"/>
      <point x="454.7647058823529" y="493.29411764705884" type="line"/>
      <point x="360.0" y="493.29411764705884" type="line"/>
      <point x="281.5882352941176" y="321.94117647058823"/>
      <point x="239.7058823529412" y="239.11764705882354"/>
      <point x="200.0" y="126.11764705882354" type="curve"/>
      <point x="187.05882352941177" y="225.94117647058823"/>
      <point x="168.47058823529412" y="314.4117647058824"/>
    </contour>
  </outline>
</glyph>
<glyph name="w" format="2">
  <advance width="623.1764705882352"/>
  <unicode hex="0077"/>
  <note>
w
</note>
  <anchor x="349.2352941176471" y="493.29411764705884" name="top"/>
  <outline>
    <contour>
      <point x="130.11764705882354" y="493.29411764705884" type="curve"/>
      <point x="29.294117647058826" y="493.29411764705884" type="line"/>
      <point x="102.76470588235294" y="-4.529411764705882" type="line"/>
      <point x="180.05882352941177" y="-4.529411764705882" type="line"/>
      <point x="243.1764705882353" y="139.47058823529412"/>
      <point x="285.70588235294116" y="230.47058823529412"/>
      <point x="321.05882352941177" y="338.70588235294116" type="curve"/>
      <point x="330.0" y="219.52941176470588"/>
      <point x="343.11764705882354" y="144.64705882352942"/>
      <point x="365.29411764705884" y="-4.529411764705882" type="curve"/>
      <point x="442.5882352941176" y="-4.529411764705882" type="line"/>
      <point x="659.4705882352941" y="493.29411764705884" type="line"/>
      <point x="567.7647058823529" y="493.29411764705884" type="line"/>
      <point x="505.6470588235294" y="346.05882352941177"/>
      <point x="469.29411764705884" y="263.7647058823529"/>
      <point x="433.52941176470586" y="158.7058823529412" type="curve"/>
      <point x="427.88235294117646" y="259.0"/>
      <point x="411.88235294117646" y="356.4117647058824"/>
      <point x="391.5882352941176" y="493.29411764705884" type="curve"/>
      <point x="308.1764705882353" y="493.29411764705884" type="line"/>
      <point x="239.94117647058823" y="332.88235294117646"/>
      <point x="204.94117647058823" y="256.05882352941177"/>
      <point x="171.52941176470588" y="158.7058823529412" type="curve"/>
      <point x="165.94117647058823" y="261.2352941176471"/>
      <point x="152.76470588235293" y="339.47058823529414"/>
    </contour>
  </outline>
</glyph>
<glyph name="x" format="2">
  <advance width="423.7647058823529"/>
  <unicode hex="0078"/>
  <note>
x
</note>
  <outline>
    <contour>
      <point x="163.0" y="493.29411764705884" type="line"/>
      <point x="53.76470588235294" y="493.29411764705884" type="line"/>
      <point x="291.70588235294116" y="0.0" type="line"/>
      <point x="402.47058823529414" y="0.0" type="line"/>
    </contour>
    <contour>
      <point x="340.4117647058824" y="493.29411764705884" type="line"/>
      <point x="-28.470588235294116" y="0.0" type="line"/>
      <point x="82.23529411764706" y="0.0" type="line"/>
      <point x="450.6470588235294" y="493.29411764705884" type="line"/>
    </contour>
  </outline>
</glyph>
<glyph name="y" format="2">
  <advance width="413.70588235294116"/>
  <unicode hex="0079"/>
  <note>
y
</note>
  <anchor x="283.0" y="0.0" name="bottom"/>
  <anchor x="241.23529411764707" y="493.29411764705884" name="top"/>
  <outline>
    <contour>
      <point x="-39.0" y="-157.41176470588235" type="curve"/>
      <point x="-48.0" y="-230.0" type="line"/>
      <point x="87.3529411764706" y="-228.41176470588235"/>
      <point x="159.2941176470588" y="-145.47058823529412"/>
      <point x="213.8235294117647" y="-28.411764705882355" type="curve" smooth="yes"/>
      <point x="454.7647058823529" y="493.29411764705884" type="line"/>
      <point x="361.8235294117647" y="493.29411764705884" type="line"/>
      <point x="298.2352941176471" y="354.70588235294116"/>
      <point x="245.76470588235293" y="254.64705882352942"/>
      <point x="198.64705882352942" y="125.88235294117646" type="curve"/>
      <point x="184.1764705882353" y="257.70588235294116"/>
      <point x="160.58823529411765" y="357.52941176470586"/>
      <point x="133.2941176470588" y="493.29411764705884" type="curve"/>
      <point x="30.88235294117647" y="493.29411764705884" type="line"/>
      <point x="135.35294117647058" y="2.0588235294117645" type="line"/>
      <point x="96.3529411764706" y="-83.47058823529412"/>
      <point x="47.411764705882355" y="-155.2941176470588"/>
    </contour>
  </outline>
</glyph>
<glyph name="z" format="2">
  <advance width="425.94117647058823"/>
  <unicode hex="007A"/>
  <note>
z
</note>
  <anchor x="247.94117647058823" y="493.29411764705884" name="top"/>
  <outline>
    <contour>
      <point x="80.0" y="493.29411764705884" type="line"/>
      <point x="70.05882352941177" y="420.88235294117646" type="line"/>
      <point x="288.05882352941177" y="420.88235294117646" type="line"/>
      <point x="4.8235294117647065" y="54.11764705882353" type="line"/>
      <point x="4.8235294117647065" y="0.0" type="line"/>
      <point x="372.47058823529414" y="0.0" type="line"/>
      <point x="382.94117647058823" y="72.88235294117646" type="line"/>
      <point x="134.94117647058823" y="72.88235294117646" type="line"/>
      <point x="420.6470588235294" y="439.2352941176471" type="line"/>
      <point x="420.6470588235294" y="493.29411764705884" type="line"/>
    </contour>
  </outline>
</glyph>
<glyph name="braceleft" format="2">
  <advance width="350.0"/>
  <unicode hex="007B"/>
  <note>
braceleft
</note>
  <outline>
    <contour>
      <point x="217.2941176470588" y="-140.64705882352942" type="curve" smooth="yes"/>
      <point x="252.1764705882353" y="-140.64705882352942" type="line"/>
      <point x="259.5882352941176" y="-86.11764705882354" type="line"/>
      <point x="190.8235294117647" y="-86.11764705882354"/>
      <point x="172.1764705882353" y="-74.52941176470588"/>
      <point x="182.11764705882354" y="-4.235294117647059" type="curve" smooth="yes"/>
      <point x="206.64705882352942" y="168.11764705882354" type="line" smooth="yes"/>
      <point x="214.1764705882353" y="219.2941176470588"/>
      <point x="213.11764705882354" y="275.7647058823529"/>
      <point x="164.2941176470588" y="298.11764705882354" type="curve"/>
      <point x="220.05882352941177" y="320.47058823529414"/>
      <point x="235.58823529411765" y="377.94117647058823"/>
      <point x="243.11764705882354" y="429.11764705882354" type="curve" smooth="yes"/>
      <point x="267.11764705882354" y="597.2352941176471" type="line" smooth="yes"/>
      <point x="277.11764705882354" y="666.8235294117648"/>
      <point x="296.52941176470586" y="683.3529411764706"/>
      <point x="368.1764705882353" y="683.3529411764706" type="curve"/>
      <point x="375.11764705882354" y="737.4117647058823" type="line"/>
      <point x="335.70588235294116" y="737.4117647058823" type="line" smooth="yes"/>
      <point x="228.64705882352942" y="737.4117647058823"/>
      <point x="178.23529411764707" y="670.2352941176471"/>
      <point x="164.7058823529412" y="571.1176470588235" type="curve" smooth="yes"/>
      <point x="143.7058823529412" y="418.11764705882354" type="line" smooth="yes"/>
      <point x="137.7058823529412" y="375.52941176470586"/>
      <point x="120.3529411764706" y="324.88235294117646"/>
      <point x="66.17647058823529" y="324.88235294117646" type="curve"/>
      <point x="59.23529411764706" y="272.3529411764706" type="line"/>
      <point x="106.82352941176471" y="272.3529411764706"/>
      <point x="117.23529411764706" y="228.35294117647058"/>
      <point x="111.70588235294117" y="187.76470588235293" type="curve" smooth="yes"/>
      <point x="89.17647058823529" y="26.11764705882353" type="line" smooth="yes"/>
      <point x="74.70588235294117" y="-76.76470588235294"/>
      <point x="108.52941176470588" y="-140.64705882352942"/>
    </contour>
  </outline>
</glyph>
<glyph name="bar" format="2">
  <advance width="235.52941176470588"/>
  <unicode hex="007C"/>
  <note>
bar
</note>
  <outline>
    <contour>
      <point x="137.88235294117646" y="743.4117647058823" type="line"/>
      <point x="16.941176470588236" y="-112.29411764705883" type="line"/>
      <point x="99.05882352941177" y="-112.29411764705883" type="line"/>
      <point x="220.0" y="743.4117647058823" type="line"/>
    </contour>
  </outline>
</glyph>
<glyph name="braceright" format="2">
  <advance width="321.0"/>
  <unicode hex="007D"/>
  <note>
braceright
</note>
  <outline>
    <contour>
      <point x="145.94117647058823" y="737.4117647058823" type="curve" smooth="yes"/>
      <point x="111.05882352941177" y="737.4117647058823" type="line"/>
      <point x="103.6470588235294" y="682.8823529411765" type="line"/>
      <point x="172.41176470588235" y="682.8823529411765"/>
      <point x="191.05882352941177" y="671.2941176470588"/>
      <point x="181.11764705882354" y="601.0" type="curve" smooth="yes"/>
      <point x="156.58823529411765" y="428.6470588235294" type="line" smooth="yes"/>
      <point x="149.05882352941177" y="377.47058823529414"/>
      <point x="150.11764705882354" y="321.0"/>
      <point x="198.94117647058823" y="298.6470588235294" type="curve"/>
      <point x="143.1764705882353" y="276.29411764705884"/>
      <point x="127.6470588235294" y="218.8235294117647"/>
      <point x="120.11764705882354" y="167.64705882352942" type="curve" smooth="yes"/>
      <point x="96.11764705882354" y="-0.47058823529411764" type="line" smooth="yes"/>
      <point x="86.11764705882354" y="-70.05882352941177"/>
      <point x="66.70588235294117" y="-86.58823529411765"/>
      <point x="-4.9411764705882355" y="-86.58823529411765" type="curve"/>
      <point x="-11.882352941176471" y="-140.64705882352942" type="line"/>
      <point x="27.529411764705884" y="-140.64705882352942" type="line" smooth="yes"/>
      <point x="134.58823529411765" y="-140.64705882352942"/>
      <point x="185.0" y="-73.47058823529412"/>
      <point x="198.52941176470588" y="25.647058823529413" type="curve" smooth="yes"/>
      <point x="219.52941176470588" y="178.64705882352942" type="line" smooth="yes"/>
      <point x="225.52941176470588" y="221.23529411764707"/>
      <point x="242.88235294117646" y="271.88235294117646"/>
      <point x="297.05882352941177" y="271.88235294117646" type="curve"/>
      <point x="304.0" y="324.4117647058824" type="line"/>
      <point x="256.4117647058824" y="324.4117647058824"/>
      <point x="246.0" y="368.4117647058824"/>
      <point x="251.52941176470588" y="409.0" type="curve" smooth="yes"/>
      <point x="274.05882352941177" y="570.6470588235294" type="line" smooth="yes"/>
      <point x="288.52941176470586" y="673.5294117647059"/>
      <point x="254.7058823529412" y="737.4117647058823"/>
    </contour>
  </outline>
</glyph>
<glyph name="asciitilde" format="2">
  <advance width="559.0"/>
  <unicode hex="007E"/>
  <note>
asciitilde
</note>
  <outline>
    <contour>
      <point x="522.7058823529412" y="297.94117647058823" type="curve"/>
      <point x="476.0" y="349.5882352941176" type="line"/>
      <point x="454.0" y="318.11764705882354"/>
      <point x="418.94117647058823" y="280.29411764705884"/>
      <point x="381.47058823529414" y="280.29411764705884" type="curve" smooth="yes"/>
      <point x="328.47058823529414" y="280.29411764705884"/>
      <point x="268.94117647058823" y="348.1764705882353"/>
      <point x="185.0" y="348.1764705882353" type="curve" smooth="yes"/>
      <point x="126.58823529411765" y="348.1764705882353"/>
      <point x="67.17647058823529" y="297.94117647058823"/>
      <point x="35.76470588235294" y="245.58823529411765" type="curve"/>
      <point x="86.0" y="196.41176470588235" type="line"/>
      <point x="104.52941176470588" y="227.41176470588235"/>
      <point x="138.05882352941177" y="267.70588235294116"/>
      <point x="174.05882352941177" y="267.70588235294116" type="curve" smooth="yes"/>
      <point x="246.11764705882354" y="267.70588235294116"/>
      <point x="292.5882352941176" y="199.2941176470588"/>
      <point x="369.52941176470586" y="199.2941176470588" type="curve" smooth="yes"/>
      <point x="423.94117647058823" y="199.2941176470588"/>
      <point x="488.29411764705884" y="253.05882352941177"/>
    </contour>
  </outline>
</glyph>
<glyph name="exclamdown" format="2">
  <advance width="245.0"/>
  <unicode hex="00A1"/>
  <note>
exclamdown
</note>
  <outline>
    <contour>
      <point x="118.47058823529412" y="-232.94117647058823" type="line"/>
      <point x="161.47058823529412" y="279.0" type="line"/>
      <point x="87.88235294117646" y="279.0" type="line"/>
      <point x="-13.117647058823529" y="-232.94117647058823" type="line"/>
    </contour>
    <contour>
      <point x="75.70588235294117" y="429.7647058823529" type="curve" smooth="yes"/>
      <point x="75.70588235294117" y="395.88235294117646"/>
      <point x="102.11764705882354" y="369.94117647058823"/>
      <point x="137.0" y="369.94117647058823" type="curve" smooth="yes"/>
      <point x="178.41176470588235" y="369.94117647058823"/>
      <point x="217.7058823529412" y="406.7647058823529"/>
      <point x="217.7058823529412" y="449.1764705882353" type="curve" smooth="yes"/>
      <point x="217.7058823529412" y="483.05882352941177"/>
      <point x="191.2941176470588" y="509.47058823529414"/>
      <point x="156.41176470588235" y="509.47058823529414" type="curve" smooth="yes"/>
      <point x="114.58823529411765" y="509.47058823529414"/>
      <point x="75.70588235294117" y="472.5882352941176"/>
    </contour>
  </outline>
</glyph>
<glyph name="cent" format="2">
  <advance width="492.05882352941177"/>
  <unicode hex="00A2"/>
  <note>
cent
</note>
  <outline>
    <contour>
      <point x="319.8235294117647" y="485.47058823529414" type="curve" smooth="yes"/>
      <point x="170.41176470588235" y="485.47058823529414"/>
      <point x="62.588235294117645" y="360.2352941176471"/>
      <point x="62.588235294117645" y="202.0" type="curve" smooth="yes"/>
      <point x="62.588235294117645" y="85.82352941176471"/>
      <point x="128.1764705882353" y="11.470588235294118"/>
      <point x="242.47058823529412" y="11.470588235294118" type="curve" smooth="yes"/>
      <point x="301.2352941176471" y="11.470588235294118"/>
      <point x="346.47058823529414" y="25.470588235294116"/>
      <point x="403.3529411764706" y="55.05882352941177" type="curve"/>
      <point x="378.94117647058823" y="117.41176470588235" type="line"/>
      <point x="337.47058823529414" y="96.0"/>
      <point x="299.4117647058824" y="85.52941176470588"/>
      <point x="268.3529411764706" y="85.52941176470588" type="curve" smooth="yes"/>
      <point x="205.11764705882354" y="85.52941176470588"/>
      <point x="167.41176470588235" y="127.6470588235294"/>
      <point x="167.41176470588235" y="207.47058823529412" type="curve" smooth="yes"/>
      <point x="167.41176470588235" y="308.7647058823529"/>
      <point x="215.76470588235293" y="413.0"/>
      <point x="304.70588235294116" y="413.0" type="curve" smooth="yes"/>
      <point x="338.47058823529414" y="413.0"/>
      <point x="366.2352941176471" y="399.52941176470586"/>
      <point x="394.3529411764706" y="375.3529411764706" type="curve"/>
      <point x="451.3529411764706" y="440.88235294117646" type="line"/>
      <point x="413.6470588235294" y="470.05882352941177"/>
      <point x="364.3529411764706" y="485.47058823529414"/>
    </contour>
    <contour>
      <point x="244.11764705882354" y="37.705882352941174" type="line"/>
      <point x="189.64705882352942" y="37.705882352941174" type="line"/>
      <point x="124.82352941176471" y="-122.70588235294117" type="line"/>
      <point x="206.23529411764707" y="-122.70588235294117" type="line"/>
    </contour>
    <contour>
      <point x="284.2352941176471" y="465.1764705882353" type="line"/>
      <point x="341.6470588235294" y="465.1764705882353" type="line"/>
      <point x="402.5882352941176" y="616.7058823529412" type="line"/>
      <point x="319.1764705882353" y="616.7058823529412" type="line"/>
    </contour>
  </outline>
</glyph>
<glyph name="sterling" format="2">
  <advance width="581.0"/>
  <unicode hex="00A3"/>
  <note>
sterling
</note>
  <outline>
    <contour>
      <point x="22.529411764705884" y="83.58823529411765" type="line"/>
      <point x="10.647058823529411" y="0.0" type="line"/>
      <point x="509.4117647058824" y="0.0" type="line"/>
      <point x="521.2941176470588" y="83.58823529411765" type="line"/>
      <point x="228.8235294117647" y="83.58823529411765" type="line"/>
      <point x="288.88235294117646" y="509.7647058823529" type="line" smooth="yes"/>
      <point x="296.94117647058823" y="570.1176470588235"/>
      <point x="335.1764705882353" y="619.5294117647059"/>
      <point x="399.5882352941176" y="619.5294117647059" type="curve" smooth="yes"/>
      <point x="445.5882352941176" y="619.5294117647059"/>
      <point x="475.1764705882353" y="586.1176470588235"/>
      <point x="489.6470588235294" y="547.5882352941177" type="curve"/>
      <point x="581.9411764705883" y="595.2352941176471" type="line"/>
      <point x="549.6470588235294" y="662.3529411764706"/>
      <point x="492.47058823529414" y="701.2352941176471"/>
      <point x="412.47058823529414" y="701.2352941176471" type="curve" smooth="yes"/>
      <point x="289.1764705882353" y="701.2352941176471"/>
      <point x="192.11764705882354" y="629.8235294117648"/>
      <point x="174.64705882352942" y="502.11764705882354" type="curve" smooth="yes"/>
      <point x="115.52941176470588" y="83.58823529411765" type="line"/>
    </contour>
    <contour>
      <point x="68.23529411764706" y="291.4117647058824" type="line"/>
      <point x="410.11764705882354" y="291.4117647058824" type="line"/>
      <point x="430.52941176470586" y="362.8235294117647" type="line"/>
      <point x="88.6470588235294" y="362.8235294117647" type="line"/>
    </contour>
  </outline>
</glyph>
<glyph name="currency" format="2">
  <advance width="536.4705882352941"/>
  <unicode hex="00A4"/>
  <note>
currency
</note>
  <outline>
    <contour>
      <point x="296.47058823529414" y="460.3529411764706" type="curve" smooth="yes"/>
      <point x="254.35294117647058" y="460.3529411764706"/>
      <point x="213.76470588235293" y="446.2352941176471"/>
      <point x="178.7058823529412" y="422.11764705882354" type="curve"/>
      <point x="133.1764705882353" y="476.1764705882353" type="line"/>
      <point x="66.3529411764706" y="417.7647058823529" type="line"/>
      <point x="114.88235294117646" y="360.7647058823529" type="line"/>
      <point x="87.29411764705883" y="321.3529411764706"/>
      <point x="69.11764705882354" y="271.1764705882353"/>
      <point x="69.11764705882354" y="221.05882352941177" type="curve" smooth="yes"/>
      <point x="69.11764705882354" y="192.41176470588235"/>
      <point x="74.17647058823529" y="166.2941176470588"/>
      <point x="83.76470588235294" y="143.23529411764707" type="curve"/>
      <point x="20.235294117647058" y="87.70588235294117" type="line"/>
      <point x="70.23529411764706" y="29.294117647058822" type="line"/>
      <point x="129.8235294117647" y="81.3529411764706" type="line"/>
      <point x="158.35294117647058" y="57.23529411764706"/>
      <point x="195.41176470588235" y="43.11764705882353"/>
      <point x="237.52941176470588" y="43.11764705882353" type="curve" smooth="yes"/>
      <point x="279.11764705882354" y="43.11764705882353"/>
      <point x="320.70588235294116" y="56.705882352941174"/>
      <point x="355.7647058823529" y="81.3529411764706" type="curve"/>
      <point x="401.29411764705884" y="29.294117647058822" type="line"/>
      <point x="468.11764705882354" y="87.17647058823529" type="line"/>
      <point x="418.11764705882354" y="143.1764705882353" type="line"/>
      <point x="446.2352941176471" y="181.76470588235293"/>
      <point x="465.3529411764706" y="228.2941176470588"/>
      <point x="465.3529411764706" y="280.47058823529414" type="curve" smooth="yes"/>
      <point x="465.3529411764706" y="308.5882352941176"/>
      <point x="459.29411764705884" y="336.1764705882353"/>
      <point x="448.70588235294116" y="360.7647058823529" type="curve"/>
      <point x="514.2352941176471" y="417.7647058823529" type="line"/>
      <point x="464.2352941176471" y="476.1764705882353" type="line"/>
      <point x="402.6470588235294" y="422.6470588235294" type="line"/>
      <point x="374.6470588235294" y="446.7647058823529"/>
      <point x="338.05882352941177" y="460.3529411764706"/>
    </contour>
    <contour>
      <point x="286.52941176470586" y="388.52941176470586" type="curve" smooth="yes"/>
      <point x="348.5882352941176" y="388.52941176470586"/>
      <point x="385.8235294117647" y="337.0"/>
      <point x="381.5882352941176" y="266.1764705882353" type="curve" smooth="yes"/>
      <point x="375.47058823529414" y="169.35294117647058"/>
      <point x="308.0" y="114.94117647058823"/>
      <point x="247.41176470588235" y="114.94117647058823" type="curve" smooth="yes"/>
      <point x="197.94117647058823" y="114.94117647058823"/>
      <point x="152.47058823529412" y="155.41176470588235"/>
      <point x="152.47058823529412" y="226.47058823529412" type="curve" smooth="yes"/>
      <point x="152.47058823529412" y="315.70588235294116"/>
      <point x="213.8235294117647" y="388.52941176470586"/>
    </contour>
  </outline>
</glyph>
<glyph name="yen" format="2">
  <advance width="604.0"/>
  <unicode hex="00A5"/>
  <note>
yen
</note>
  <outline>
    <contour>
      <point x="222.94117647058823" y="701.2352941176471" type="line"/>
      <point x="96.11764705882354" y="701.2352941176471" type="line"/>
      <point x="257.8235294117647" y="318.6470588235294" type="line"/>
      <point x="212.76470588235293" y="0.0" type="line"/>
      <point x="325.6470588235294" y="0.0" type="line"/>
      <point x="370.70588235294116" y="318.6470588235294" type="line"/>
      <point x="637.3529411764706" y="701.2352941176471" type="line"/>
      <point x="534.8235294117648" y="701.2352941176471" type="line"/>
      <point x="341.5882352941176" y="423.4117647058824" type="line"/>
    </contour>
    <contour>
      <point x="90.94117647058823" y="389.0" type="line"/>
      <point x="69.58823529411765" y="317.5882352941176" type="line"/>
      <point x="549.5882352941177" y="317.5882352941176" type="line"/>
      <point x="570.9411764705883" y="389.0" type="line"/>
    </contour>
    <contour>
      <point x="71.94117647058823" y="251.11764705882354" type="line"/>
      <point x="50.11764705882353" y="179.7058823529412" type="line"/>
      <point x="530.1176470588235" y="179.7058823529412" type="line"/>
      <point x="551.9411764705883" y="251.11764705882354" type="line"/>
    </contour>
  </outline>
</glyph>
<glyph name="brokenbar" format="2">
  <advance width="238.0"/>
  <unicode hex="00A6"/>
  <note>
brokenbar
</note>
  <outline>
    <contour>
      <point x="137.88235294117646" y="743.4117647058823" type="line"/>
      <point x="88.41176470588235" y="392.52941176470586" type="line"/>
      <point x="170.52941176470588" y="392.52941176470586" type="line"/>
      <point x="220.0" y="743.4117647058823" type="line"/>
    </contour>
    <contour>
      <point x="66.41176470588235" y="234.88235294117646" type="line"/>
      <point x="16.941176470588236" y="-115.47058823529412" type="line"/>
      <point x="99.05882352941177" y="-115.47058823529412" type="line"/>
      <point x="148.52941176470588" y="234.88235294117646" type="line"/>
    </contour>
  </outline>
</glyph>
<glyph name="section" format="2">
  <advance width="454.0"/>
  <unicode hex="00A7"/>
  <note>
section
</note>
  <outline>
    <contour>
      <point x="393.5882352941176" y="773.9411764705883" type="curve" smooth="yes"/>
      <point x="309.94117647058823" y="773.9411764705883"/>
      <point x="245.7058823529412" y="732.7647058823529"/>
      <point x="230.41176470588235" y="644.7647058823529" type="curve"/>
      <point x="133.35294117647058" y="634.2941176470588"/>
      <point x="95.47058823529412" y="562.0"/>
      <point x="95.47058823529412" y="453.7647058823529" type="curve" smooth="yes"/>
      <point x="95.47058823529412" y="350.7647058823529"/>
      <point x="133.41176470588235" y="63.411764705882355"/>
      <point x="133.41176470588235" y="-57.1764705882353" type="curve" smooth="yes"/>
      <point x="133.41176470588235" y="-119.82352941176471"/>
      <point x="109.6470588235294" y="-160.52941176470588"/>
      <point x="59.76470588235294" y="-160.52941176470588" type="curve" smooth="yes"/>
      <point x="45.0" y="-160.52941176470588"/>
      <point x="14.941176470588236" y="-150.0"/>
      <point x="3.8235294117647056" y="-146.1764705882353" type="curve"/>
      <point x="-23.941176470588236" y="-213.76470588235293" type="line"/>
      <point x="-6.764705882352941" y="-222.35294117647058"/>
      <point x="21.294117647058822" y="-231.58823529411765"/>
      <point x="58.35294117647059" y="-231.58823529411765" type="curve" smooth="yes"/>
      <point x="132.88235294117646" y="-231.58823529411765"/>
      <point x="206.0" y="-194.76470588235293"/>
      <point x="221.52941176470588" y="-101.94117647058823" type="curve"/>
      <point x="318.88235294117646" y="-87.29411764705883"/>
      <point x="355.11764705882354" y="-8.117647058823529"/>
      <point x="355.11764705882354" y="70.05882352941177" type="curve" smooth="yes"/>
      <point x="355.11764705882354" y="179.8235294117647"/>
      <point x="315.70588235294116" y="487.5882352941176"/>
      <point x="315.70588235294116" y="588.0588235294117" type="curve" smooth="yes"/>
      <point x="315.70588235294116" y="665.2941176470588"/>
      <point x="352.4117647058824" y="699.8235294117648"/>
      <point x="391.70588235294116" y="699.8235294117648" type="curve" smooth="yes"/>
      <point x="414.52941176470586" y="699.8235294117648"/>
      <point x="443.1764705882353" y="687.8823529411765"/>
      <point x="450.52941176470586" y="684.4705882352941" type="curve"/>
      <point x="477.4117647058824" y="756.1176470588235" type="line"/>
      <point x="463.29411764705884" y="761.2941176470588"/>
      <point x="423.88235294117646" y="773.9411764705883"/>
    </contour>
    <contour>
      <point x="226.05882352941177" y="564.2941176470588" type="curve"/>
      <point x="232.05882352941177" y="417.1764705882353"/>
      <point x="262.94117647058823" y="196.41176470588235"/>
      <point x="262.94117647058823" y="72.05882352941177" type="curve" smooth="yes"/>
      <point x="262.94117647058823" y="25.588235294117645"/>
      <point x="250.47058823529412" y="-9.0"/>
      <point x="224.05882352941177" y="-23.823529411764707" type="curve"/>
      <point x="219.05882352941177" y="114.94117647058823"/>
      <point x="185.64705882352942" y="386.05882352941177"/>
      <point x="185.64705882352942" y="459.3529411764706" type="curve" smooth="yes"/>
      <point x="185.64705882352942" y="502.88235294117646"/>
      <point x="194.47058823529412" y="546.5294117647059"/>
    </contour>
  </outline>
</glyph>
<glyph name="dieresis" format="2">
  <advance width="285.88235294117646"/>
  <unicode hex="00A8"/>
  <note>
dieresis
</note>
  <anchor x="178.7058823529412" y="493.29411764705884" name="_top"/>
  <outline>
    <contour>
      <point x="177.11764705882354" y="663.1176470588235" type="curve" smooth="yes"/>
      <point x="177.11764705882354" y="692.5294117647059"/>
      <point x="155.7058823529412" y="714.4705882352941"/>
      <point x="125.29411764705883" y="714.4705882352941" type="curve" smooth="yes"/>
      <point x="89.94117647058823" y="714.4705882352941"/>
      <point x="57.05882352941177" y="683.0588235294117"/>
      <point x="57.05882352941177" y="646.1764705882352" type="curve" smooth="yes"/>
      <point x="57.05882352941177" y="617.2941176470588"/>
      <point x="78.47058823529412" y="594.8235294117648"/>
      <point x="108.3529411764706" y="594.8235294117648" type="curve" smooth="yes"/>
      <point x="144.23529411764707" y="594.8235294117648"/>
      <point x="177.11764705882354" y="626.2352941176471"/>
    </contour>
    <contour>
      <point x="343.88235294117646" y="663.1176470588235" type="curve" smooth="yes"/>
      <point x="343.88235294117646" y="692.5294117647059"/>
      <point x="322.0" y="714.4705882352941"/>
      <point x="291.5882352941176" y="714.4705882352941" type="curve" smooth="yes"/>
      <point x="256.70588235294116" y="714.4705882352941"/>
      <point x="223.35294117647058" y="682.5882352941177"/>
      <point x="223.35294117647058" y="646.1764705882352" type="curve" smooth="yes"/>
      <point x="223.35294117647058" y="617.7647058823529"/>
      <point x="245.23529411764707" y="594.8235294117648"/>
      <point x="274.6470588235294" y="594.8235294117648" type="curve" smooth="yes"/>
      <point x="310.52941176470586" y="594.8235294117648"/>
      <point x="343.88235294117646" y="626.2352941176471"/>
    </contour>
  </outline>
</glyph>
<glyph name="copyright" format="2">
  <advance width="641.3529411764706"/>
  <unicode hex="00A9"/>
  <note>
copyright
</note>
  <outline>
    <contour>
      <point x="595.2941176470588" y="250.0" type="curve" smooth="yes"/>
      <point x="595.2941176470588" y="400.4117647058824"/>
      <point x="471.3529411764706" y="524.3529411764706"/>
      <point x="320.94117647058823" y="524.3529411764706" type="curve" smooth="yes"/>
      <point x="169.52941176470588" y="524.3529411764706"/>
      <point x="46.588235294117645" y="401.4117647058824"/>
      <point x="46.588235294117645" y="250.0" type="curve" smooth="yes"/>
      <point x="46.588235294117645" y="98.58823529411765"/>
      <point x="169.52941176470588" y="-24.352941176470587"/>
      <point x="320.94117647058823" y="-24.352941176470587" type="curve" smooth="yes"/>
      <point x="471.3529411764706" y="-24.352941176470587"/>
      <point x="595.2941176470588" y="99.58823529411765"/>
    </contour>
    <contour>
      <point x="555.8235294117648" y="250.0" type="curve" smooth="yes"/>
      <point x="555.8235294117648" y="120.58823529411765"/>
      <point x="450.3529411764706" y="15.117647058823529"/>
      <point x="320.94117647058823" y="15.117647058823529" type="curve" smooth="yes"/>
      <point x="191.52941176470588" y="15.117647058823529"/>
      <point x="86.05882352941177" y="120.58823529411765"/>
      <point x="86.05882352941177" y="250.0" type="curve" smooth="yes"/>
      <point x="86.05882352941177" y="379.4117647058824"/>
      <point x="191.52941176470588" y="484.88235294117646"/>
      <point x="320.94117647058823" y="484.88235294117646" type="curve" smooth="yes"/>
      <point x="450.3529411764706" y="484.88235294117646"/>
      <point x="555.8235294117648" y="379.4117647058824"/>
    </contour>
    <contour>
      <point x="441.1764705882353" y="115.70588235294117" type="curve"/>
      <point x="409.52941176470586" y="168.58823529411765" type="line"/>
      <point x="386.7647058823529" y="150.11764705882354"/>
      <point x="366.8235294117647" y="138.23529411764707"/>
      <point x="336.6470588235294" y="138.23529411764707" type="curve" smooth="yes"/>
      <point x="276.05882352941177" y="138.23529411764707"/>
      <point x="253.2941176470588" y="203.52941176470588"/>
      <point x="253.2941176470588" y="253.64705882352942" type="curve" smooth="yes"/>
      <point x="253.2941176470588" y="299.4117647058824"/>
      <point x="275.11764705882354" y="363.88235294117646"/>
      <point x="330.3529411764706" y="363.88235294117646" type="curve" smooth="yes"/>
      <point x="360.0" y="363.88235294117646"/>
      <point x="377.47058823529414" y="355.0"/>
      <point x="399.5882352941176" y="336.88235294117646" type="curve"/>
      <point x="436.1764705882353" y="383.3529411764706" type="line"/>
      <point x="408.6470588235294" y="402.29411764705884"/>
      <point x="370.88235294117646" y="417.29411764705884"/>
      <point x="337.88235294117646" y="417.29411764705884" type="curve" smooth="yes"/>
      <point x="239.52941176470588" y="417.29411764705884"/>
      <point x="177.23529411764707" y="347.8235294117647"/>
      <point x="177.23529411764707" y="250.52941176470588" type="curve" smooth="yes"/>
      <point x="177.23529411764707" y="156.8235294117647"/>
      <point x="231.1764705882353" y="84.23529411764706"/>
      <point x="329.4117647058824" y="84.23529411764706" type="curve" smooth="yes"/>
      <point x="376.3529411764706" y="84.23529411764706"/>
      <point x="401.2352941176471" y="94.17647058823529"/>
    </contour>
  </outline>
</glyph>
<glyph name="ordfeminine" format="2">
  <advance width="366.7647058823529"/>
  <unicode hex="00AA"/>
  <note>
ordfeminine
</note>
  <outline>
    <contour>
      <point x="235.94117647058823" y="718.1764705882352" type="curve" smooth="yes"/>
      <point x="124.70588235294117" y="718.1764705882352"/>
      <point x="61.17647058823529" y="604.0588235294117"/>
      <point x="61.17647058823529" y="508.05882352941177" type="curve" smooth="yes"/>
      <point x="61.17647058823529" y="437.7647058823529"/>
      <point x="95.52941176470588" y="377.0"/>
      <point x="168.8235294117647" y="377.0" type="curve" smooth="yes"/>
      <point x="202.94117647058823" y="377.0"/>
      <point x="238.8235294117647" y="391.05882352941177"/>
      <point x="263.2352941176471" y="425.0" type="curve"/>
      <point x="267.2352941176471" y="425.0" type="line"/>
      <point x="271.70588235294116" y="396.4117647058824"/>
      <point x="292.6470588235294" y="378.47058823529414"/>
      <point x="321.2352941176471" y="378.47058823529414" type="curve" smooth="yes"/>
      <point x="340.52941176470586" y="378.47058823529414"/>
      <point x="363.2352941176471" y="386.94117647058823"/>
      <point x="380.05882352941177" y="396.29411764705884" type="curve"/>
      <point x="370.70588235294116" y="433.52941176470586" type="line"/>
      <point x="362.70588235294116" y="430.52941176470586"/>
      <point x="350.88235294117646" y="427.11764705882354"/>
      <point x="341.88235294117646" y="427.11764705882354" type="curve" smooth="yes"/>
      <point x="327.29411764705884" y="427.11764705882354"/>
      <point x="323.2352941176471" y="438.52941176470586"/>
      <point x="323.2352941176471" y="452.1764705882353" type="curve" smooth="yes"/>
      <point x="323.2352941176471" y="462.70588235294116"/>
      <point x="329.3529411764706" y="503.6470588235294"/>
      <point x="366.3529411764706" y="712.7058823529412" type="curve"/>
      <point x="328.6470588235294" y="712.7058823529412" type="line"/>
      <point x="311.1764705882353" y="686.7647058823529" type="line"/>
      <point x="290.88235294117646" y="709.7058823529412"/>
      <point x="259.0" y="718.1764705882352"/>
    </contour>
    <contour>
      <point x="234.11764705882354" y="668.4705882352941" type="curve" smooth="yes"/>
      <point x="254.11764705882354" y="668.4705882352941"/>
      <point x="272.6470588235294" y="660.4705882352941"/>
      <point x="289.0" y="643.0" type="curve"/>
      <point x="280.94117647058823" y="594.7058823529412" type="line" smooth="yes"/>
      <point x="266.94117647058823" y="510.1764705882353"/>
      <point x="240.2941176470588" y="426.6470588235294"/>
      <point x="181.1764705882353" y="426.6470588235294" type="curve" smooth="yes"/>
      <point x="146.58823529411765" y="426.6470588235294"/>
      <point x="131.05882352941177" y="465.05882352941177"/>
      <point x="131.05882352941177" y="511.05882352941177" type="curve" smooth="yes"/>
      <point x="131.05882352941177" y="581.7058823529412"/>
      <point x="167.8235294117647" y="668.4705882352941"/>
    </contour>
    <contour>
      <point x="74.17647058823529" y="265.2352941176471" type="line"/>
      <point x="312.11764705882354" y="265.2352941176471" type="line"/>
      <point x="320.11764705882354" y="321.11764705882354" type="line"/>
      <point x="82.70588235294117" y="321.11764705882354" type="line"/>
    </contour>
  </outline>
</glyph>
<glyph name="guillemetleft" format="2">
  <advance width="454.0"/>
  <unicode hex="00AB"/>
  <note>
guillemotleft
</note>
  <outline>
    <contour>
      <point x="231.47058823529412" y="177.23529411764707" type="line"/>
      <point x="134.05882352941177" y="331.47058823529414" type="line"/>
      <point x="272.94117647058823" y="485.7647058823529" type="line"/>
      <point x="205.88235294117646" y="498.1764705882353" type="line"/>
      <point x="34.64705882352941" y="332.0" type="line"/>
      <point x="164.0" y="167.2941176470588" type="line"/>
    </contour>
    <contour>
      <point x="390.3529411764706" y="177.23529411764707" type="line"/>
      <point x="291.47058823529414" y="331.47058823529414" type="line"/>
      <point x="432.3529411764706" y="485.7647058823529" type="line"/>
      <point x="363.29411764705884" y="498.1764705882353" type="line"/>
      <point x="192.05882352941177" y="332.0" type="line"/>
      <point x="321.4117647058824" y="167.2941176470588" type="line"/>
    </contour>
  </outline>
</glyph>
<glyph name="logicalnot" format="2">
  <advance width="638.0"/>
  <unicode hex="00AC"/>
  <note>
logicalnot
</note>
  <outline>
    <contour>
      <point x="501.70588235294116" y="273.3529411764706" type="line"/>
      <point x="475.1764705882353" y="84.29411764705883" type="line"/>
      <point x="547.9411764705883" y="84.29411764705883" type="line"/>
      <point x="584.8823529411765" y="344.1764705882353" type="line"/>
      <point x="89.52941176470588" y="344.1764705882353" type="line"/>
      <point x="79.11764705882354" y="273.3529411764706" type="line"/>
    </contour>
  </outline>
</glyph>
<glyph name="registered" format="2">
  <advance width="470.05882352941177"/>
  <unicode hex="00AE"/>
  <note>
registered
</note>
  <outline>
    <contour>
      <point x="490.1764705882353" y="606.2941176470588" type="curve" smooth="yes"/>
      <point x="490.1764705882353" y="719.1176470588235"/>
      <point x="397.8235294117647" y="810.4117647058823"/>
      <point x="285.52941176470586" y="810.4117647058823" type="curve" smooth="yes"/>
      <point x="172.7058823529412" y="810.4117647058823"/>
      <point x="81.88235294117646" y="719.1176470588235"/>
      <point x="81.88235294117646" y="606.2941176470588" type="curve" smooth="yes"/>
      <point x="81.88235294117646" y="493.47058823529414"/>
      <point x="172.7058823529412" y="402.1764705882353"/>
      <point x="285.52941176470586" y="402.1764705882353" type="curve" smooth="yes"/>
      <point x="397.8235294117647" y="402.1764705882353"/>
      <point x="490.1764705882353" y="493.47058823529414"/>
    </contour>
    <contour>
      <point x="456.2352941176471" y="606.2941176470588" type="curve" smooth="yes"/>
      <point x="456.2352941176471" y="512.4705882352941"/>
      <point x="379.3529411764706" y="436.5882352941176"/>
      <point x="285.52941176470586" y="436.5882352941176" type="curve" smooth="yes"/>
      <point x="192.1764705882353" y="436.5882352941176"/>
      <point x="115.82352941176471" y="512.4705882352941"/>
      <point x="115.82352941176471" y="606.2941176470588" type="curve" smooth="yes"/>
      <point x="115.82352941176471" y="700.1176470588235"/>
      <point x="192.1764705882353" y="776.0"/>
      <point x="285.52941176470586" y="776.0" type="curve" smooth="yes"/>
      <point x="379.3529411764706" y="776.0"/>
      <point x="456.2352941176471" y="699.6470588235294"/>
    </contour>
    <contour>
      <point x="202.64705882352942" y="724.0588235294117" type="line"/>
      <point x="202.64705882352942" y="494.3529411764706" type="line"/>
      <point x="257.3529411764706" y="494.3529411764706" type="line"/>
      <point x="257.3529411764706" y="590.3529411764706" type="line"/>
      <point x="271.5882352941176" y="590.3529411764706" type="line"/>
      <point x="337.05882352941177" y="494.3529411764706" type="line"/>
      <point x="402.2352941176471" y="494.3529411764706" type="line"/>
      <point x="328.7647058823529" y="599.7647058823529" type="line"/>
      <point x="352.8235294117647" y="609.2352941176471"/>
      <point x="373.3529411764706" y="629.7058823529412"/>
      <point x="373.3529411764706" y="657.7058823529412" type="curve" smooth="yes"/>
      <point x="373.3529411764706" y="710.5882352941177"/>
      <point x="335.47058823529414" y="724.0588235294117"/>
      <point x="293.0" y="724.0588235294117" type="curve" smooth="yes"/>
    </contour>
    <contour>
      <point x="257.3529411764706" y="682.3529411764706" type="line"/>
      <point x="286.0" y="682.3529411764706" type="line" smooth="yes"/>
      <point x="305.0" y="682.3529411764706"/>
      <point x="318.6470588235294" y="674.8235294117648"/>
      <point x="318.6470588235294" y="659.7058823529412" type="curve" smooth="yes"/>
      <point x="318.6470588235294" y="639.0588235294117"/>
      <point x="303.52941176470586" y="632.0588235294117"/>
      <point x="279.0" y="632.0588235294117" type="curve" smooth="yes"/>
      <point x="257.3529411764706" y="632.0588235294117" type="line"/>
    </contour>
  </outline>
</glyph>
<glyph name="macron" format="2">
  <advance width="300.29411764705884"/>
  <unicode hex="00AF"/>
  <note>
macron
</note>
  <anchor x="186.7058823529412" y="493.29411764705884" name="_top"/>
  <outline>
    <contour>
      <point x="62.529411764705884" y="689.0" type="line"/>
      <point x="53.588235294117645" y="620.2941176470588" type="line"/>
      <point x="353.3529411764706" y="620.2941176470588" type="line"/>
      <point x="362.29411764705884" y="689.0" type="line"/>
    </contour>
  </outline>
</glyph>
<glyph name="degree" format="2">
  <advance width="388.6470588235294"/>
  <unicode hex="00B0"/>
  <note>
degree
</note>
  <outline>
    <contour>
      <point x="393.29411764705884" y="613.5294117647059" type="curve" smooth="yes"/>
      <point x="393.29411764705884" y="685.5882352941177"/>
      <point x="338.2352941176471" y="740.6470588235294"/>
      <point x="263.11764705882354" y="740.6470588235294" type="curve" smooth="yes"/>
      <point x="174.52941176470588" y="740.6470588235294"/>
      <point x="93.41176470588235" y="663.0588235294117"/>
      <point x="93.41176470588235" y="572.4705882352941" type="curve" smooth="yes"/>
      <point x="93.41176470588235" y="499.88235294117646"/>
      <point x="148.0" y="445.3529411764706"/>
      <point x="222.58823529411765" y="445.3529411764706" type="curve" smooth="yes"/>
      <point x="312.1764705882353" y="445.3529411764706"/>
      <point x="393.29411764705884" y="521.4117647058823"/>
    </contour>
    <contour>
      <point x="327.88235294117646" y="605.0588235294117" type="curve" smooth="yes"/>
      <point x="327.88235294117646" y="551.8235294117648"/>
      <point x="281.11764705882354" y="507.2352941176471"/>
      <point x="230.52941176470588" y="507.2352941176471" type="curve" smooth="yes"/>
      <point x="187.94117647058823" y="507.2352941176471"/>
      <point x="158.8235294117647" y="538.7647058823529"/>
      <point x="158.8235294117647" y="580.4705882352941" type="curve" smooth="yes"/>
      <point x="158.8235294117647" y="633.1764705882352"/>
      <point x="205.05882352941177" y="678.7647058823529"/>
      <point x="255.1764705882353" y="678.7647058823529" type="curve" smooth="yes"/>
      <point x="297.29411764705884" y="678.7647058823529"/>
      <point x="327.88235294117646" y="646.7058823529412"/>
    </contour>
  </outline>
</glyph>
<glyph name="plusminus" format="2">
  <advance width="632.0"/>
  <unicode hex="00B1"/>
  <note>
plusminus
</note>
  <outline>
    <contour>
      <point x="335.11764705882354" y="98.82352941176471" type="line"/>
      <point x="357.70588235294116" y="258.52941176470586" type="line"/>
      <point x="568.0" y="258.52941176470586" type="line"/>
      <point x="578.4705882352941" y="335.05882352941177" type="line"/>
      <point x="368.1764705882353" y="335.05882352941177" type="line"/>
      <point x="390.2352941176471" y="493.29411764705884" type="line"/>
      <point x="311.7647058823529" y="493.29411764705884" type="line"/>
      <point x="289.70588235294116" y="334.5882352941176" type="line"/>
      <point x="79.94117647058823" y="334.5882352941176" type="line"/>
      <point x="69.0" y="258.05882352941177" type="line"/>
      <point x="278.7647058823529" y="258.05882352941177" type="line"/>
      <point x="256.6470588235294" y="98.82352941176471" type="line"/>
    </contour>
    <contour>
      <point x="43.470588235294116" y="76.47058823529412" type="line"/>
      <point x="33.05882352941177" y="0.47058823529411764" type="line"/>
      <point x="531.5882352941177" y="0.47058823529411764" type="line"/>
      <point x="542.0" y="76.47058823529412" type="line"/>
    </contour>
  </outline>
</glyph>
<glyph name="twosuperior" format="2">
  <advance width="455.0"/>
  <unicode hex="00B2"/>
  <note>
uni00B2
</note>
  <outline>
    <contour>
      <point x="90.88235294117646" y="481.5882352941176" type="curve"/>
      <point x="90.88235294117646" y="435.88235294117646" type="line"/>
      <point x="406.29411764705884" y="435.88235294117646" type="line"/>
      <point x="438.47058823529414" y="516.5882352941177" type="line"/>
      <point x="224.0" y="516.5882352941177" type="line"/>
      <point x="337.2352941176471" y="592.2941176470588"/>
      <point x="463.7647058823529" y="710.5294117647059"/>
      <point x="463.7647058823529" y="822.4705882352941" type="curve" smooth="yes"/>
      <point x="463.7647058823529" y="879.7058823529412"/>
      <point x="428.05882352941177" y="931.2941176470588"/>
      <point x="335.11764705882354" y="931.2941176470588" type="curve" smooth="yes"/>
      <point x="228.76470588235293" y="931.2941176470588"/>
      <point x="154.05882352941177" y="864.0"/>
      <point x="154.05882352941177" y="864.0" type="curve"/>
      <point x="182.8235294117647" y="808.0588235294117" type="line"/>
      <point x="182.8235294117647" y="808.0588235294117"/>
      <point x="248.11764705882354" y="863.4117647058823"/>
      <point x="308.8235294117647" y="863.4117647058823" type="curve" smooth="yes"/>
      <point x="346.1764705882353" y="863.4117647058823"/>
      <point x="368.7647058823529" y="840.2352941176471"/>
      <point x="368.7647058823529" y="806.0588235294117" type="curve" smooth="yes"/>
      <point x="368.7647058823529" y="689.9411764705883"/>
      <point x="109.41176470588235" y="495.3529411764706"/>
    </contour>
  </outline>
</glyph>
<glyph name="threesuperior" format="2">
  <advance width="455.0"/>
  <unicode hex="00B3"/>
  <note>
uni00B3
</note>
  <outline>
    <contour>
      <point x="99.41176470588235" y="483.4117647058824" type="curve"/>
      <point x="103.3529411764706" y="423.94117647058823" type="line"/>
      <point x="391.11764705882354" y="434.88235294117646"/>
      <point x="444.70588235294116" y="569.7647058823529"/>
      <point x="444.70588235294116" y="635.6470588235294" type="curve" smooth="yes"/>
      <point x="444.70588235294116" y="692.1764705882352"/>
      <point x="406.0" y="724.2941176470588"/>
      <point x="352.47058823529414" y="732.7058823529412" type="curve"/>
      <point x="402.70588235294116" y="751.1764705882352"/>
      <point x="453.2352941176471" y="790.1764705882352"/>
      <point x="453.2352941176471" y="852.9411764705883" type="curve" smooth="yes"/>
      <point x="453.2352941176471" y="913.2941176470588"/>
      <point x="392.94117647058823" y="931.2941176470588"/>
      <point x="336.6470588235294" y="931.2941176470588" type="curve" smooth="yes"/>
      <point x="278.29411764705884" y="931.2941176470588"/>
      <point x="203.41176470588235" y="903.4117647058823"/>
      <point x="154.47058823529412" y="866.4705882352941" type="curve"/>
      <point x="183.23529411764707" y="813.4117647058823" type="line"/>
      <point x="216.1764705882353" y="838.8823529411765"/>
      <point x="269.70588235294116" y="863.4117647058823"/>
      <point x="311.11764705882354" y="863.4117647058823" type="curve" smooth="yes"/>
      <point x="341.52941176470586" y="863.4117647058823"/>
      <point x="363.1764705882353" y="850.8235294117648"/>
      <point x="363.1764705882353" y="827.6470588235294" type="curve" smooth="yes"/>
      <point x="363.1764705882353" y="762.0588235294117"/>
      <point x="274.11764705882354" y="736.4117647058823"/>
      <point x="221.47058823529412" y="725.8823529411765" type="curve"/>
      <point x="222.88235294117646" y="673.7058823529412" type="line"/>
      <point x="223.41176470588235" y="673.7058823529412"/>
      <point x="238.47058823529412" y="675.7058823529412"/>
      <point x="256.94117647058823" y="675.7058823529412" type="curve" smooth="yes"/>
      <point x="297.70588235294116" y="675.7058823529412"/>
      <point x="352.1764705882353" y="670.1176470588235"/>
      <point x="352.1764705882353" y="619.4117647058823" type="curve" smooth="yes"/>
      <point x="352.1764705882353" y="545.6470588235294"/>
      <point x="259.5882352941176" y="491.4117647058824"/>
    </contour>
  </outline>
</glyph>
<glyph name="acute" format="2">
  <advance width="287.1764705882353"/>
  <unicode hex="00B4"/>
  <note>
acute
</note>
  <anchor x="113.76470588235294" y="493.29411764705884" name="_top"/>
  <outline>
    <contour>
      <point x="203.58823529411765" y="733.9411764705883" type="line"/>
      <point x="78.52941176470588" y="575.8235294117648" type="line"/>
      <point x="168.2941176470588" y="575.8235294117648" type="line"/>
      <point x="336.4117647058824" y="733.9411764705883" type="line"/>
    </contour>
  </outline>
</glyph>
<glyph name="micro" format="2">
  <advance width="584.0"/>
  <unicode hex="00B5"/>
  <note>
uni00B5
</note>
  <outline>
    <contour>
      <point x="233.88235294117646" y="493.29411764705884" type="curve"/>
      <point x="126.3529411764706" y="493.29411764705884" type="line"/>
      <point x="129.88235294117646" y="438.1764705882353" type="line"/>
      <point x="46.411764705882355" y="-186.47058823529412" type="line"/>
      <point x="144.88235294117646" y="-186.47058823529412" type="line"/>
      <point x="170.88235294117646" y="2.411764705882353" type="line"/>
      <point x="189.41176470588235" y="-7.0588235294117645"/>
      <point x="209.94117647058823" y="-12.058823529411764"/>
      <point x="231.41176470588235" y="-12.058823529411764" type="curve" smooth="yes"/>
      <point x="282.8235294117647" y="-12.058823529411764"/>
      <point x="341.3529411764706" y="27.764705882352942"/>
      <point x="372.2352941176471" y="57.529411764705884" type="curve"/>
      <point x="373.6470588235294" y="17.41176470588235"/>
      <point x="392.4117647058824" y="-10.588235294117647"/>
      <point x="429.29411764705884" y="-10.588235294117647" type="curve" smooth="yes"/>
      <point x="467.4117647058824" y="-10.588235294117647"/>
      <point x="518.9411764705883" y="14.352941176470589"/>
      <point x="535.8823529411765" y="19.058823529411764" type="curve"/>
      <point x="525.8823529411765" y="80.41176470588235" type="line"/>
      <point x="519.2941176470588" y="78.52941176470588"/>
      <point x="494.94117647058823" y="68.41176470588235"/>
      <point x="477.29411764705884" y="68.41176470588235" type="curve" smooth="yes"/>
      <point x="467.05882352941177" y="68.41176470588235"/>
      <point x="463.0" y="76.05882352941177"/>
      <point x="463.0" y="87.88235294117646" type="curve"/>
      <point x="463.0" y="99.0"/>
      <point x="483.05882352941177" y="245.05882352941177"/>
      <point x="516.1764705882352" y="493.29411764705884" type="curve"/>
      <point x="408.1764705882353" y="493.29411764705884" type="line"/>
      <point x="412.1764705882353" y="438.1764705882353" type="line"/>
      <point x="370.70588235294116" y="128.41176470588235" type="line"/>
      <point x="350.7647058823529" y="108.94117647058823"/>
      <point x="298.88235294117646" y="71.3529411764706"/>
      <point x="247.76470588235293" y="71.3529411764706" type="curve" smooth="yes"/>
      <point x="200.47058823529412" y="71.3529411764706"/>
      <point x="188.88235294117646" y="105.52941176470588"/>
      <point x="188.88235294117646" y="144.76470588235293" type="curve" smooth="yes"/>
      <point x="188.88235294117646" y="165.2941176470588"/>
      <point x="191.23529411764707" y="180.23529411764707"/>
    </contour>
  </outline>
</glyph>
<glyph name="paragraph" format="2">
  <advance width="509.88235294117646"/>
  <unicode hex="00B6"/>
  <note>
paragraph
</note>
  <outline>
    <contour>
      <point x="112.88235294117646" y="-109.05882352941177" type="curve"/>
      <point x="96.41176470588235" y="-154.0" type="line"/>
      <point x="109.41176470588235" y="-158.0"/>
      <point x="121.88235294117646" y="-160.0"/>
      <point x="135.35294117647058" y="-160.0" type="curve" smooth="yes"/>
      <point x="178.7058823529412" y="-160.0"/>
      <point x="219.94117647058823" y="-137.0"/>
      <point x="239.94117647058823" y="-99.0" type="curve"/>
      <point x="245.94117647058823" y="-100.0"/>
      <point x="251.94117647058823" y="-100.0"/>
      <point x="257.47058823529414" y="-100.0" type="curve" smooth="yes"/>
      <point x="316.52941176470586" y="-100.0"/>
      <point x="367.4117647058824" y="-51.0"/>
      <point x="375.4117647058824" y="10.0" type="curve" smooth="yes"/>
      <point x="466.47058823529414" y="656.9411764705883" type="line"/>
      <point x="522.4705882352941" y="656.9411764705883" type="line"/>
      <point x="531.4117647058823" y="718.0" type="line"/>
      <point x="330.0" y="718.0" type="line" smooth="yes"/>
      <point x="173.64705882352942" y="718.0"/>
      <point x="73.23529411764706" y="615.9411764705883"/>
      <point x="73.23529411764706" y="463.7647058823529" type="curve" smooth="yes"/>
      <point x="73.23529411764706" y="359.47058823529414"/>
      <point x="143.1764705882353" y="294.3529411764706"/>
      <point x="245.23529411764707" y="294.3529411764706" type="curve"/>
      <point x="198.35294117647058" y="-42.294117647058826" type="line" smooth="yes"/>
      <point x="193.35294117647058" y="-79.23529411764706"/>
      <point x="167.47058823529412" y="-110.58823529411765"/>
      <point x="129.05882352941177" y="-110.58823529411765" type="curve" smooth="yes"/>
      <point x="124.0" y="-110.58823529411765"/>
      <point x="118.94117647058823" y="-110.58823529411765"/>
    </contour>
    <contour>
      <point x="356.1764705882353" y="656.9411764705883" type="line"/>
      <point x="407.7647058823529" y="656.9411764705883" type="line"/>
      <point x="317.6470588235294" y="14.705882352941178" type="line" smooth="yes"/>
      <point x="313.1764705882353" y="-15.294117647058822"/>
      <point x="296.05882352941177" y="-42.294117647058826"/>
      <point x="258.05882352941177" y="-42.294117647058826" type="curve"/>
    </contour>
  </outline>
</glyph>
